SplineFontDB: 3.2
FontName: WorkshopSolid-Regular
FullName: Workshop Solid Regular
FamilyName: Workshop Solid
Weight: Regular

StartChar: A
Encoding: 65 65 4
Width: 434
Flags: W
LayerCount: 2
Fore
SplineSet
351 397 m 128,-1,1
 344 426 344 426 336 461 c 128,-1,2
 328 496 328 496 319.5 534 c 128,-1,3
 311 572 311 572 303.5 605.5 c 128,-1,4
 296 639 296 639 289.5 665.5 c 128,-1,5
 283 692 283 692 280 705 c 1,6,7
 247 702 247 702 226.5 701.5 c 128,-1,8
 206 701 206 701 193 701 c 128,-1,9
 180 701 180 701 172 701 c 128,-1,10
 164 701 164 701 157 700 c 1,11,12
 133 620 133 620 113 539 c 128,-1,13
 93 458 93 458 76 383 c 128,-1,14
 59 308 59 308 46.5 241.5 c 128,-1,15
 34 175 34 175 25 124 c 128,-1,16
 16 73 16 73 11 41 c 128,-1,17
 6 9 6 9 4 2 c 0,18,19
 5 1 5 1 6 1 c 0,20,21
 74 2 74 2 106 0 c 128,-1,22
 138 -2 138 -2 146 0 c 0,23,24
 147 0 147 0 147.5 0.5 c 128,-1,25
 148 1 148 1 149 1 c 0,26,27
 158 18 158 18 163 40 c 128,-1,28
 168 62 168 62 172.5 85.5 c 128,-1,29
 177 109 177 109 181.5 130.5 c 128,-1,30
 186 152 186 152 193 168 c 1,31,32
 204 168 204 168 210.5 168.5 c 128,-1,33
 217 169 217 169 222.5 169 c 128,-1,34
 228 169 228 169 235 169 c 128,-1,35
 242 169 242 169 255 167 c 1,36,37
 262 152 262 152 268 131 c 128,-1,38
 274 110 274 110 279.5 87 c 128,-1,39
 285 64 285 64 290.5 42 c 128,-1,40
 296 20 296 20 302 4 c 1,41,-1
 303 4 l 1,42,43
 335 -3 335 -3 371 -4.5 c 128,-1,44
 407 -6 407 -6 437 0 c 1,45,-1
 437 1 l 1,46,-1
 362 351 l 2,47,0
 358 368 358 368 351 397 c 128,-1,1
222 285.5 m 128,-1,49
 203 285 203 285 186 286 c 1,50,51
 193 337 193 337 198.5 381 c 128,-1,52
 204 425 204 425 208.5 454 c 128,-1,53
 213 483 213 483 218.5 492.5 c 128,-1,54
 224 502 224 502 229.5 485 c 128,-1,55
 235 468 235 468 242.5 420 c 128,-1,56
 250 372 250 372 260 286 c 1,57,48
 241 286 241 286 222 285.5 c 128,-1,49
EndSplineSet
EndChar

StartChar: Aacute
Encoding: 193 193 5
Width: 434
Flags: W
LayerCount: 2
Fore
SplineSet
259 882.5 m 128,-1,1
 237 862 237 862 214.5 838.5 c 128,-1,2
 192 815 192 815 170.5 792.5 c 128,-1,3
 149 770 149 770 132 754 c 1,4,5
 139 752 139 752 154.5 750.5 c 128,-1,6
 170 749 170 749 189.5 748 c 128,-1,7
 209 747 209 747 229.5 747.5 c 128,-1,8
 250 748 250 748 266 750 c 1,9,10
 270 758 270 758 284 771 c 128,-1,11
 298 784 298 784 314 798.5 c 128,-1,12
 330 813 330 813 345 826 c 128,-1,13
 360 839 360 839 367 846 c 2,14,-1
 368 847 l 1,15,-1
 299 917 l 1,16,0
 281 903 281 903 259 882.5 c 128,-1,1
351 397 m 128,-1,18
 344 426 344 426 336 461 c 128,-1,19
 328 496 328 496 319.5 534 c 128,-1,20
 311 572 311 572 303.5 605.5 c 128,-1,21
 296 639 296 639 290 665.5 c 128,-1,22
 284 692 284 692 280 705 c 1,23,24
 247 702 247 702 226.5 701.5 c 128,-1,25
 206 701 206 701 193 701 c 128,-1,26
 180 701 180 701 172 701 c 128,-1,27
 164 701 164 701 157 700 c 1,28,29
 133 620 133 620 113 539 c 128,-1,30
 93 458 93 458 76 383 c 128,-1,31
 59 308 59 308 46.5 241.5 c 128,-1,32
 34 175 34 175 25 124 c 128,-1,33
 16 73 16 73 10.5 41 c 128,-1,34
 5 9 5 9 4 2 c 0,35,36
 5 1 5 1 6 1 c 0,37,38
 74 2 74 2 106 0 c 128,-1,39
 138 -2 138 -2 146 0 c 0,40,41
 147 0 147 0 147.5 0.5 c 128,-1,42
 148 1 148 1 149 1 c 0,43,44
 158 18 158 18 163 40 c 128,-1,45
 168 62 168 62 172.5 85.5 c 128,-1,46
 177 109 177 109 181.5 130.5 c 128,-1,47
 186 152 186 152 193 168 c 1,48,49
 204 168 204 168 210.5 168.5 c 128,-1,50
 217 169 217 169 222.5 169 c 128,-1,51
 228 169 228 169 235 169 c 128,-1,52
 242 169 242 169 255 167 c 1,53,54
 262 152 262 152 268 131 c 128,-1,55
 274 110 274 110 279.5 87 c 128,-1,56
 285 64 285 64 290.5 42 c 128,-1,57
 296 20 296 20 302 4 c 1,58,-1
 303 4 l 1,59,60
 335 -3 335 -3 371 -4.5 c 128,-1,61
 407 -6 407 -6 437 0 c 1,62,-1
 437 1 l 1,63,-1
 362 351 l 2,64,17
 358 368 358 368 351 397 c 128,-1,18
222 285.5 m 128,-1,66
 203 285 203 285 186 286 c 1,67,68
 193 337 193 337 198.5 381 c 128,-1,69
 204 425 204 425 208.5 454 c 128,-1,70
 213 483 213 483 218.5 492.5 c 128,-1,71
 224 502 224 502 229.5 485 c 128,-1,72
 235 468 235 468 242.5 420 c 128,-1,73
 250 372 250 372 260 286 c 1,74,65
 241 286 241 286 222 285.5 c 128,-1,66
EndSplineSet
EndChar

StartChar: Acircumflex
Encoding: 194 194 6
Width: 434
Flags: W
LayerCount: 2
Fore
SplineSet
135 839 m 128,-1,1
 93 801 93 801 59 755 c 1,2,3
 92 753 92 753 109.5 752 c 128,-1,4
 127 751 127 751 136.5 750.5 c 128,-1,5
 146 750 146 750 151.5 750 c 128,-1,6
 157 750 157 750 166 751 c 0,7,8
 170 752 170 752 177 759 c 128,-1,9
 184 766 184 766 192 774.5 c 128,-1,10
 200 783 200 783 207 790.5 c 128,-1,11
 214 798 214 798 218 800 c 0,12,13
 223 797 223 797 230 789 c 128,-1,14
 237 781 237 781 244.5 772.5 c 128,-1,15
 252 764 252 764 259 757.5 c 128,-1,16
 266 751 266 751 269 751 c 0,17,18
 293 748 293 748 313.5 749 c 128,-1,19
 334 750 334 750 349.5 752 c 128,-1,20
 365 754 365 754 374 755.5 c 128,-1,21
 383 757 383 757 384 756 c 1,22,-1
 221 918 l 1,23,0
 177 877 177 877 135 839 c 128,-1,1
351 397 m 128,-1,25
 344 426 344 426 336 461 c 128,-1,26
 328 496 328 496 319.5 534 c 128,-1,27
 311 572 311 572 303.5 605.5 c 128,-1,28
 296 639 296 639 289.5 665.5 c 128,-1,29
 283 692 283 692 280 705 c 1,30,31
 247 702 247 702 226.5 701.5 c 128,-1,32
 206 701 206 701 193 701 c 128,-1,33
 180 701 180 701 172 701 c 128,-1,34
 164 701 164 701 157 700 c 1,35,36
 133 620 133 620 113 539 c 128,-1,37
 93 458 93 458 76 383 c 128,-1,38
 59 308 59 308 46.5 241.5 c 128,-1,39
 34 175 34 175 25 124 c 128,-1,40
 16 73 16 73 11 41 c 128,-1,41
 6 9 6 9 4 2 c 0,42,43
 5 1 5 1 6 1 c 0,44,45
 74 2 74 2 106 0 c 128,-1,46
 138 -2 138 -2 146 0 c 0,47,48
 147 0 147 0 147.5 0.5 c 128,-1,49
 148 1 148 1 149 1 c 0,50,51
 158 18 158 18 163 40 c 128,-1,52
 168 62 168 62 172.5 85.5 c 128,-1,53
 177 109 177 109 181.5 130.5 c 128,-1,54
 186 152 186 152 193 168 c 1,55,56
 204 168 204 168 210.5 168.5 c 128,-1,57
 217 169 217 169 222.5 169 c 128,-1,58
 228 169 228 169 235 169 c 128,-1,59
 242 169 242 169 255 167 c 1,60,61
 262 152 262 152 268 131 c 128,-1,62
 274 110 274 110 279.5 87 c 128,-1,63
 285 64 285 64 290.5 42 c 128,-1,64
 296 20 296 20 302 4 c 1,65,-1
 303 4 l 1,66,67
 335 -3 335 -3 371 -4.5 c 128,-1,68
 407 -6 407 -6 437 0 c 1,69,-1
 437 1 l 1,70,-1
 362 351 l 2,71,24
 358 368 358 368 351 397 c 128,-1,25
222 285.5 m 128,-1,73
 203 285 203 285 186 286 c 1,74,75
 193 337 193 337 198.5 381 c 128,-1,76
 204 425 204 425 208.5 454 c 128,-1,77
 213 483 213 483 218.5 492.5 c 128,-1,78
 224 502 224 502 229.5 485 c 128,-1,79
 235 468 235 468 242.5 420 c 128,-1,80
 250 372 250 372 260 286 c 1,81,72
 241 286 241 286 222 285.5 c 128,-1,73
EndSplineSet
EndChar

StartChar: Adieresis
Encoding: 196 196 7
Width: 434
Flags: W
LayerCount: 2
Fore
SplineSet
171 758 m 1,0,-1
 171 759 l 1,1,-1
 171 760 l 2,2,3
 171 767 171 767 172 783 c 128,-1,4
 173 799 173 799 174 816.5 c 128,-1,5
 175 834 175 834 176 847 c 128,-1,6
 177 860 177 860 177 861 c 0,7,8
 170 864 170 864 155.5 865.5 c 128,-1,9
 141 867 141 867 124.5 867 c 128,-1,10
 108 867 108 867 92.5 865 c 128,-1,11
 77 863 77 863 68 860 c 1,12,13
 68 854 68 854 67.5 841 c 128,-1,14
 67 828 67 828 66.5 813 c 128,-1,15
 66 798 66 798 66.5 783.5 c 128,-1,16
 67 769 67 769 69 759 c 1,17,-1
 72 759 l 1,18,-1
 169 758 l 1,19,-1
 171 758 l 1,0,-1
345 758 m 1,20,-1
 345 759 l 1,21,-1
 345 760 l 2,22,23
 345 767 345 767 346 783 c 128,-1,24
 347 799 347 799 348 816.5 c 128,-1,25
 349 834 349 834 350 847 c 128,-1,26
 351 860 351 860 351 861 c 0,27,28
 344 864 344 864 329.5 865.5 c 128,-1,29
 315 867 315 867 298.5 867 c 128,-1,30
 282 867 282 867 266.5 865 c 128,-1,31
 251 863 251 863 242 860 c 1,32,33
 242 854 242 854 241.5 841 c 128,-1,34
 241 828 241 828 240.5 813 c 128,-1,35
 240 798 240 798 240.5 783.5 c 128,-1,36
 241 769 241 769 243 759 c 1,37,-1
 246 759 l 1,38,-1
 343 758 l 1,39,-1
 345 758 l 1,20,-1
351 397 m 128,-1,41
 344 426 344 426 336 461 c 128,-1,42
 328 496 328 496 319.5 534 c 128,-1,43
 311 572 311 572 303.5 605.5 c 128,-1,44
 296 639 296 639 289.5 665.5 c 128,-1,45
 283 692 283 692 280 705 c 1,46,47
 247 702 247 702 226.5 701.5 c 128,-1,48
 206 701 206 701 193 701 c 128,-1,49
 180 701 180 701 172 701 c 128,-1,50
 164 701 164 701 157 700 c 1,51,52
 133 620 133 620 113 539 c 128,-1,53
 93 458 93 458 76 383 c 128,-1,54
 59 308 59 308 46.5 241.5 c 128,-1,55
 34 175 34 175 25 124 c 128,-1,56
 16 73 16 73 11 41 c 128,-1,57
 6 9 6 9 4 2 c 0,58,59
 5 1 5 1 6 1 c 0,60,61
 74 2 74 2 106 0 c 128,-1,62
 138 -2 138 -2 146 0 c 0,63,64
 147 0 147 0 147.5 0.5 c 128,-1,65
 148 1 148 1 149 1 c 0,66,67
 158 18 158 18 163 40 c 128,-1,68
 168 62 168 62 172.5 85.5 c 128,-1,69
 177 109 177 109 181.5 130.5 c 128,-1,70
 186 152 186 152 193 168 c 1,71,72
 204 168 204 168 210.5 168.5 c 128,-1,73
 217 169 217 169 222.5 169 c 128,-1,74
 228 169 228 169 235 169 c 128,-1,75
 242 169 242 169 255 167 c 1,76,77
 262 152 262 152 268 131 c 128,-1,78
 274 110 274 110 279.5 87 c 128,-1,79
 285 64 285 64 290.5 42 c 128,-1,80
 296 20 296 20 302 4 c 1,81,-1
 303 4 l 1,82,83
 335 -3 335 -3 371 -4.5 c 128,-1,84
 407 -6 407 -6 437 0 c 1,85,-1
 437 1 l 1,86,-1
 362 351 l 2,87,40
 358 368 358 368 351 397 c 128,-1,41
222 285.5 m 128,-1,89
 203 285 203 285 186 286 c 1,90,91
 193 337 193 337 198.5 381 c 128,-1,92
 204 425 204 425 208.5 454 c 128,-1,93
 213 483 213 483 218.5 492.5 c 128,-1,94
 224 502 224 502 229.5 485 c 128,-1,95
 235 468 235 468 242.5 420 c 128,-1,96
 250 372 250 372 260 286 c 1,97,88
 241 286 241 286 222 285.5 c 128,-1,89
EndSplineSet
EndChar

StartChar: Agrave
Encoding: 192 192 8
Width: 434
Flags: W
LayerCount: 2
Fore
SplineSet
55 846 m 2,0,1
 62 839 62 839 77 826 c 128,-1,2
 92 813 92 813 108 798.5 c 128,-1,3
 124 784 124 784 137.5 771 c 128,-1,4
 151 758 151 758 156 750 c 1,5,6
 172 748 172 748 192 747.5 c 128,-1,7
 212 747 212 747 231.5 748 c 128,-1,8
 251 749 251 749 267 750.5 c 128,-1,9
 283 752 283 752 290 754 c 1,10,11
 273 770 273 770 251.5 792.5 c 128,-1,12
 230 815 230 815 207.5 838.5 c 128,-1,13
 185 862 185 862 163 882.5 c 128,-1,14
 141 903 141 903 123 917 c 1,15,-1
 54 847 l 1,16,-1
 55 846 l 2,0,1
351 397 m 128,-1,18
 344 426 344 426 336 461 c 128,-1,19
 328 496 328 496 319.5 534 c 128,-1,20
 311 572 311 572 303.5 605.5 c 128,-1,21
 296 639 296 639 290 665.5 c 128,-1,22
 284 692 284 692 280 705 c 1,23,24
 247 702 247 702 226.5 701.5 c 128,-1,25
 206 701 206 701 193 701 c 128,-1,26
 180 701 180 701 172 701 c 128,-1,27
 164 701 164 701 157 700 c 1,28,29
 133 620 133 620 113 539 c 128,-1,30
 93 458 93 458 76 383 c 128,-1,31
 59 308 59 308 46.5 241.5 c 128,-1,32
 34 175 34 175 25 124 c 128,-1,33
 16 73 16 73 10.5 41 c 128,-1,34
 5 9 5 9 4 2 c 0,35,36
 5 1 5 1 6 1 c 0,37,38
 74 2 74 2 106 0 c 128,-1,39
 138 -2 138 -2 146 0 c 0,40,41
 147 0 147 0 147.5 0.5 c 128,-1,42
 148 1 148 1 149 1 c 0,43,44
 158 18 158 18 163 40 c 128,-1,45
 168 62 168 62 172.5 85.5 c 128,-1,46
 177 109 177 109 181.5 130.5 c 128,-1,47
 186 152 186 152 193 168 c 1,48,49
 204 168 204 168 210.5 168.5 c 128,-1,50
 217 169 217 169 222.5 169 c 128,-1,51
 228 169 228 169 235 169 c 128,-1,52
 242 169 242 169 255 167 c 1,53,54
 262 152 262 152 268 131 c 128,-1,55
 274 110 274 110 279.5 87 c 128,-1,56
 285 64 285 64 290.5 42 c 128,-1,57
 296 20 296 20 302 4 c 1,58,-1
 303 4 l 1,59,60
 335 -3 335 -3 371 -4.5 c 128,-1,61
 407 -6 407 -6 437 0 c 1,62,-1
 437 1 l 1,63,-1
 362 351 l 2,64,17
 358 368 358 368 351 397 c 128,-1,18
222 285.5 m 128,-1,66
 203 285 203 285 186 286 c 1,67,68
 193 337 193 337 198.5 381 c 128,-1,69
 204 425 204 425 208.5 454 c 128,-1,70
 213 483 213 483 218.5 492.5 c 128,-1,71
 224 502 224 502 229.5 485 c 128,-1,72
 235 468 235 468 242.5 420 c 128,-1,73
 250 372 250 372 260 286 c 1,74,65
 241 286 241 286 222 285.5 c 128,-1,66
EndSplineSet
EndChar

StartChar: Aring
Encoding: 197 197 9
Width: 434
Flags: W
LayerCount: 2
Fore
SplineSet
305.5 841 m 132,-1,1
 307 875 307 875 298 906 c 5,2,3
 287 922 287 922 263.5 928 c 132,-1,4
 240 934 240 934 219 935 c 4,5,6
 196 937 196 937 175.5 932.5 c 132,-1,7
 155 928 155 928 141 915 c 4,8,9
 133 905 133 905 130 895 c 4,10,11
 123 868 123 868 124.5 838.5 c 132,-1,12
 126 809 126 809 131 781 c 4,13,14
 136 768 136 768 149 760.5 c 132,-1,15
 162 753 162 753 176 752 c 260,16,17
 190 751 190 751 204 751 c 132,-1,18
 218 751 218 751 232 753 c 4,19,20
 249 754 249 754 266 758.5 c 132,-1,21
 283 763 283 763 292 777 c 4,22,0
 304 807 304 807 305.5 841 c 132,-1,1
216 891 m 4,24,25
 227 891 227 891 237 888 c 132,-1,26
 247 885 247 885 255 877 c 4,27,28
 260 869 260 869 262 855 c 4,29,30
 263 844 263 844 261 832 c 132,-1,31
 259 820 259 820 257 810 c 4,32,33
 252 799 252 799 238.5 797.5 c 132,-1,34
 225 796 225 796 214 795 c 6,35,-1
 204 795 l 6,36,37
 189 795 189 795 179 804 c 4,38,39
 171 812 171 812 170 824.5 c 132,-1,40
 169 837 169 837 169 848 c 4,41,42
 169 855 169 855 171 865 c 4,43,44
 174 878 174 878 186 885 c 4,45,23
 199 891 199 891 216 891 c 4,24,25
351 397 m 128,-1,47
 344 426 344 426 336 461 c 128,-1,48
 328 496 328 496 319.5 534 c 128,-1,49
 311 572 311 572 303.5 605.5 c 128,-1,50
 296 639 296 639 289.5 665.5 c 128,-1,51
 283 692 283 692 280 705 c 1,52,53
 247 702 247 702 226.5 701.5 c 128,-1,54
 206 701 206 701 193 701 c 128,-1,55
 180 701 180 701 172 701 c 128,-1,56
 164 701 164 701 157 700 c 1,57,58
 133 620 133 620 113 539 c 128,-1,59
 93 458 93 458 76 383 c 128,-1,60
 59 308 59 308 46.5 241.5 c 128,-1,61
 34 175 34 175 25 124 c 128,-1,62
 16 73 16 73 11 41 c 128,-1,63
 6 9 6 9 4 2 c 0,64,65
 5 1 5 1 6 1 c 0,66,67
 74 2 74 2 106 0 c 128,-1,68
 138 -2 138 -2 146 0 c 0,69,70
 147 0 147 0 147.5 0.5 c 128,-1,71
 148 1 148 1 149 1 c 0,72,73
 158 18 158 18 163 40 c 128,-1,74
 168 62 168 62 172.5 85.5 c 128,-1,75
 177 109 177 109 181.5 130.5 c 128,-1,76
 186 152 186 152 193 168 c 1,77,78
 204 168 204 168 210.5 168.5 c 128,-1,79
 217 169 217 169 222.5 169 c 128,-1,80
 228 169 228 169 235 169 c 128,-1,81
 242 169 242 169 255 167 c 1,82,83
 262 152 262 152 268 131 c 128,-1,84
 274 110 274 110 279.5 87 c 128,-1,85
 285 64 285 64 290.5 42 c 128,-1,86
 296 20 296 20 302 4 c 1,87,-1
 303 4 l 1,88,89
 335 -3 335 -3 371 -4.5 c 128,-1,90
 407 -6 407 -6 437 0 c 1,91,-1
 437 1 l 1,92,-1
 362 351 l 2,93,46
 358 368 358 368 351 397 c 128,-1,47
222 285.5 m 128,-1,95
 203 285 203 285 186 286 c 1,96,97
 193 337 193 337 198.5 381 c 128,-1,98
 204 425 204 425 208.5 454 c 128,-1,99
 213 483 213 483 218.5 492.5 c 128,-1,100
 224 502 224 502 229.5 485 c 128,-1,101
 235 468 235 468 242.5 420 c 128,-1,102
 250 372 250 372 260 286 c 1,103,94
 241 286 241 286 222 285.5 c 128,-1,95
EndSplineSet
EndChar

StartChar: Atilde
Encoding: 195 195 10
Width: 434
Flags: W
LayerCount: 2
Fore
SplineSet
130 775.5 m 128,-1,1
 130 784 130 784 134 795 c 2,2,-1
 137 801 l 2,3,4
 145 814 145 814 161 818.5 c 128,-1,5
 177 823 177 823 188 823 c 0,6,7
 201 822 201 822 209 816 c 128,-1,8
 217 810 217 810 223 800 c 0,9,10
 236 769 236 769 265 757.5 c 128,-1,11
 294 746 294 746 325 751 c 0,12,13
 351 755 351 755 370.5 771.5 c 128,-1,14
 390 788 390 788 402 811 c 128,-1,15
 414 834 414 834 418.5 860.5 c 128,-1,16
 423 887 423 887 420 910 c 2,17,-1
 420 911 l 1,18,19
 419 911 419 911 419 912 c 2,20,-1
 418 913 l 1,21,22
 397 912 397 912 376.5 912 c 128,-1,23
 356 912 356 912 336 910 c 1,24,25
 333 901 333 901 326.5 886.5 c 128,-1,26
 320 872 320 872 309.5 861.5 c 128,-1,27
 299 851 299 851 286.5 847.5 c 128,-1,28
 274 844 274 844 259 857 c 0,29,30
 246 865 246 865 237 880 c 128,-1,31
 228 895 228 895 212 905 c 0,32,33
 196 916 196 916 178 919.5 c 128,-1,34
 160 923 160 923 142 920 c 128,-1,35
 124 917 124 917 107 908 c 128,-1,36
 90 899 90 899 77 886 c 0,37,38
 67 875 67 875 58 858 c 128,-1,39
 49 841 49 841 41 822 c 128,-1,40
 33 803 33 803 26.5 785.5 c 128,-1,41
 20 768 20 768 17 757 c 1,42,43
 43 758 43 758 66 758 c 0,44,45
 86 758 86 758 105 757 c 128,-1,46
 124 756 124 756 134 754 c 1,47,-1
 134 755 l 1,48,0
 130 767 130 767 130 775.5 c 128,-1,1
351 397 m 128,-1,50
 344 426 344 426 336 461 c 128,-1,51
 328 496 328 496 319.5 534 c 128,-1,52
 311 572 311 572 303.5 605.5 c 128,-1,53
 296 639 296 639 290 665.5 c 128,-1,54
 284 692 284 692 280 705 c 1,55,56
 247 702 247 702 226.5 701.5 c 128,-1,57
 206 701 206 701 193 701 c 128,-1,58
 180 701 180 701 172 701 c 128,-1,59
 164 701 164 701 157 700 c 1,60,61
 133 620 133 620 113 539 c 128,-1,62
 93 458 93 458 76 383 c 128,-1,63
 59 308 59 308 46.5 241.5 c 128,-1,64
 34 175 34 175 25 124 c 128,-1,65
 16 73 16 73 11 41 c 128,-1,66
 6 9 6 9 4 2 c 0,67,68
 5 1 5 1 6 1 c 0,69,70
 74 2 74 2 106 0 c 128,-1,71
 138 -2 138 -2 146 0 c 0,72,73
 147 0 147 0 147.5 0.5 c 128,-1,74
 148 1 148 1 149 1 c 0,75,76
 158 18 158 18 163 40 c 128,-1,77
 168 62 168 62 172.5 85.5 c 128,-1,78
 177 109 177 109 181.5 130.5 c 128,-1,79
 186 152 186 152 193 168 c 1,80,81
 204 168 204 168 210.5 168.5 c 128,-1,82
 217 169 217 169 222.5 169 c 128,-1,83
 228 169 228 169 235 169 c 128,-1,84
 242 169 242 169 255 167 c 1,85,86
 262 152 262 152 268 131 c 128,-1,87
 274 110 274 110 279.5 87 c 128,-1,88
 285 64 285 64 290.5 42 c 128,-1,89
 296 20 296 20 302 4 c 1,90,-1
 303 4 l 1,91,92
 335 -3 335 -3 371 -4.5 c 128,-1,93
 407 -6 407 -6 437 0 c 1,94,-1
 437 1 l 1,95,-1
 362 351 l 2,96,49
 358 368 358 368 351 397 c 128,-1,50
222 285.5 m 128,-1,98
 203 285 203 285 186 286 c 1,99,100
 193 337 193 337 198.5 381 c 128,-1,101
 204 425 204 425 208.5 454 c 128,-1,102
 213 483 213 483 218.5 492.5 c 128,-1,103
 224 502 224 502 229.5 485 c 128,-1,104
 235 468 235 468 242.5 420 c 128,-1,105
 250 372 250 372 260 286 c 1,106,97
 241 286 241 286 222 285.5 c 128,-1,98
EndSplineSet
EndChar

StartChar: AE
Encoding: 198 198 11
Width: 716
Flags: W
LayerCount: 2
Fore
SplineSet
572 141 m 128,-1,1
 506 140 506 140 440 143 c 2,2,-1
 439 143 l 1,3,4
 434 153 434 153 432 168 c 128,-1,5
 430 183 430 183 430 200.5 c 128,-1,6
 430 218 430 218 431 236.5 c 128,-1,7
 432 255 432 255 433 270 c 0,8,9
 437 274 437 274 451 275 c 128,-1,10
 465 276 465 276 483 276 c 128,-1,11
 501 276 501 276 520 276.5 c 128,-1,12
 539 277 539 277 554 280 c 1,13,14
 554 315 554 315 556.5 351 c 128,-1,15
 559 387 559 387 552 419 c 1,16,17
 523 424 523 424 491 422 c 128,-1,18
 459 420 459 420 431 425 c 1,19,20
 426 438 426 438 425 452.5 c 128,-1,21
 424 467 424 467 425 482.5 c 128,-1,22
 426 498 426 498 427.5 513 c 128,-1,23
 429 528 429 528 428 542 c 1,24,25
 461 547 461 547 494.5 547 c 128,-1,26
 528 547 528 547 562 546.5 c 128,-1,27
 596 546 596 546 629.5 547 c 128,-1,28
 663 548 663 548 695 555 c 1,29,-1
 695 557 l 2,30,31
 695 592 695 592 697 628 c 128,-1,32
 699 664 699 664 695 699 c 1,33,-1
 695 700 l 1,34,-1
 695 701 l 1,35,36
 690 701 690 701 661 701.5 c 128,-1,37
 632 702 632 702 587 701.5 c 128,-1,38
 542 701 542 701 485.5 700.5 c 128,-1,39
 429 700 429 700 370 699 c 128,-1,40
 311 698 311 698 254.5 696.5 c 128,-1,41
 198 695 198 695 153 693 c 1,42,43
 124 570 124 570 104 487 c 128,-1,44
 84 404 84 404 71 350 c 128,-1,45
 58 296 58 296 50.5 264 c 128,-1,46
 43 232 43 232 38.5 212 c 128,-1,47
 34 192 34 192 31.5 177 c 128,-1,48
 29 162 29 162 25.5 141 c 128,-1,49
 22 120 22 120 17 87.5 c 128,-1,50
 12 55 12 55 2 -1 c 1,51,52
 4 -1 4 -1 5 -0.5 c 128,-1,53
 6 0 6 0 8 0 c 0,54,55
 44 4 44 4 78 2.5 c 128,-1,56
 112 1 112 1 145 1 c 0,57,58
 146 2 146 2 146.5 2 c 128,-1,59
 147 2 147 2 148 3 c 0,60,61
 154 30 154 30 163 59 c 128,-1,62
 172 88 172 88 180 116 c 0,63,64
 181 118 181 118 181 118 c 1,65,-1
 183 118 l 2,66,67
 205 118 205 118 214 117.5 c 128,-1,68
 223 117 223 117 227 117 c 128,-1,69
 231 117 231 117 235 116.5 c 128,-1,70
 239 116 239 116 252 116 c 1,71,-1
 252 115 l 1,72,73
 257 87 257 87 265 60.5 c 128,-1,74
 273 34 273 34 280 5 c 1,75,76
 377 -1 377 -1 482 1.5 c 128,-1,77
 587 4 587 4 690 4 c 1,78,-1
 692 6 l 1,79,80
 703 67 703 67 698 134 c 1,81,-1
 698 137 l 1,82,0
 638 142 638 142 572 141 c 128,-1,1
240.5 282.5 m 128,-1,84
 232 282 232 282 223 283 c 128,-1,85
 214 284 214 284 204.5 285 c 128,-1,86
 195 286 195 286 188 284 c 2,87,-1
 187 284 l 1,88,-1
 186 284 l 1,89,90
 188 306 188 306 190 321 c 128,-1,91
 192 336 192 336 195.5 350 c 128,-1,92
 199 364 199 364 204 380 c 128,-1,93
 209 396 209 396 218 421 c 1,94,-1
 219 418 l 2,95,96
 227 386 227 386 238 352.5 c 128,-1,97
 249 319 249 319 254 287 c 1,98,83
 249 283 249 283 240.5 282.5 c 128,-1,84
EndSplineSet
EndChar

StartChar: B
Encoding: 66 66 12
Width: 477
Flags: W
LayerCount: 2
Fore
SplineSet
388 341 m 128,-1,1
 386 345 386 345 390 352 c 0,2,3
 410 386 410 386 424.5 426 c 128,-1,4
 439 466 439 466 439 508 c 0,5,6
 439 564 439 564 421 602.5 c 128,-1,7
 403 641 403 641 372 665.5 c 128,-1,8
 341 690 341 690 300.5 701 c 128,-1,9
 260 712 260 712 216 714 c 128,-1,10
 172 716 172 716 127 710 c 128,-1,11
 82 704 82 704 42 693 c 1,12,-1
 41 692 l 1,13,14
 44 518 44 518 41 347.5 c 128,-1,15
 38 177 38 177 44 4 c 1,16,17
 49 2 49 2 54.5 2 c 128,-1,18
 60 2 60 2 66 2 c 0,19,20
 102 1 102 1 143.5 -2 c 128,-1,21
 185 -5 185 -5 226.5 -4.5 c 128,-1,22
 268 -4 268 -4 307 1.5 c 128,-1,23
 346 7 346 7 378 23 c 128,-1,24
 410 39 410 39 432.5 68.5 c 128,-1,25
 455 98 455 98 463 145 c 0,26,27
 469 177 469 177 465 203 c 128,-1,28
 461 229 461 229 450.5 250.5 c 128,-1,29
 440 272 440 272 425.5 291.5 c 128,-1,30
 411 311 411 311 395 331 c 0,31,0
 390 337 390 337 388 341 c 128,-1,1
277.5 147.5 m 128,-1,33
 264 142 264 142 248.5 140.5 c 128,-1,34
 233 139 233 139 217.5 139.5 c 128,-1,35
 202 140 202 140 188 140 c 1,36,-1
 186 141 l 1,37,38
 178 153 178 153 175 171 c 128,-1,39
 172 189 172 189 172.5 208.5 c 128,-1,40
 173 228 173 228 176 247 c 128,-1,41
 179 266 179 266 183 281 c 1,42,43
 202 279 202 279 222 278.5 c 128,-1,44
 242 278 242 278 261 273 c 0,45,46
 274 270 274 270 286 260.5 c 128,-1,47
 298 251 298 251 304 239 c 0,48,49
 311 222 311 222 311.5 201 c 128,-1,50
 312 180 312 180 301 165 c 0,51,32
 291 153 291 153 277.5 147.5 c 128,-1,33
278.5 427.5 m 128,-1,53
 265 420 265 420 249 418 c 128,-1,54
 233 416 233 416 216 417 c 128,-1,55
 199 418 199 418 184 420 c 1,56,57
 175 455 175 455 178.5 488 c 128,-1,58
 182 521 182 521 180 544 c 1,59,60
 195 552 195 552 217.5 551.5 c 128,-1,61
 240 551 240 551 260 547 c 0,62,63
 276 543 276 543 288.5 534.5 c 128,-1,64
 301 526 301 526 309 510 c 256,65,66
 317 494 317 494 312 478 c 128,-1,67
 307 462 307 462 300 450 c 0,68,52
 292 435 292 435 278.5 427.5 c 128,-1,53
EndSplineSet
EndChar

StartChar: C
Encoding: 67 67 13
Width: 488
Flags: W
LayerCount: 2
Fore
SplineSet
215.5 553 m 128,-1,1
 230 556 230 556 243 558 c 0,2,3
 272 559 272 559 285.5 546 c 128,-1,4
 299 533 299 533 304 512.5 c 128,-1,5
 309 492 309 492 309.5 468 c 128,-1,6
 310 444 310 444 313 425 c 1,7,8
 351 418 351 418 386.5 415.5 c 128,-1,9
 422 413 422 413 459 421 c 1,10,11
 475 467 475 467 471 511 c 128,-1,12
 467 555 467 555 448 592.5 c 128,-1,13
 429 630 429 630 397 659 c 128,-1,14
 365 688 365 688 325.5 705.5 c 128,-1,15
 286 723 286 723 241 726 c 128,-1,16
 196 729 196 729 150 714 c 0,17,18
 136 710 136 710 123 704.5 c 128,-1,19
 110 699 110 699 99 691 c 0,20,21
 80 674 80 674 66.5 652 c 128,-1,22
 53 630 53 630 44 604 c 0,23,24
 38 589 38 589 34.5 571.5 c 128,-1,25
 31 554 31 554 33 537 c 0,26,27
 32 456 32 456 31.5 394.5 c 128,-1,28
 31 333 31 333 31.5 284.5 c 128,-1,29
 32 236 32 236 33 197 c 128,-1,30
 34 158 34 158 36 122 c 0,31,32
 40 80 40 80 62.5 52 c 128,-1,33
 85 24 85 24 118 8.5 c 128,-1,34
 151 -7 151 -7 189 -11.5 c 128,-1,35
 227 -16 227 -16 263 -11 c 1,36,37
 318 -10 318 -10 361.5 16.5 c 128,-1,38
 405 43 405 43 432 84 c 128,-1,39
 459 125 459 125 467 176.5 c 128,-1,40
 475 228 475 228 458 280 c 1,41,42
 444 284 444 284 426.5 285 c 128,-1,43
 409 286 409 286 391 286 c 128,-1,44
 373 286 373 286 355.5 285 c 128,-1,45
 338 284 338 284 324 286 c 1,46,47
 319 261 319 261 320.5 235.5 c 128,-1,48
 322 210 322 210 311 187 c 0,49,50
 301 167 301 167 281.5 158.5 c 128,-1,51
 262 150 262 150 240 152 c 0,52,53
 211 160 211 160 198.5 187.5 c 128,-1,54
 186 215 186 215 183 244 c 0,55,56
 180 279 180 279 180 326.5 c 128,-1,57
 180 374 180 374 181 418 c 128,-1,58
 182 462 182 462 183.5 494 c 128,-1,59
 185 526 185 526 187 529 c 0,60,61
 188 531 188 531 189.5 535.5 c 128,-1,62
 191 540 191 540 193 542 c 0,63,0
 201 550 201 550 215.5 553 c 128,-1,1
EndSplineSet
EndChar

StartChar: Ccedilla
Encoding: 199 199 14
Width: 476
Flags: W
LayerCount: 2
Fore
SplineSet
33 356.5 m 128,-1,1
 33 271 33 271 35 194 c 2,2,-1
 35 184 l 2,3,4
 36 148 36 148 43.5 111.5 c 128,-1,5
 51 75 51 75 67 47 c 128,-1,6
 83 19 83 19 109.5 3.5 c 128,-1,7
 136 -12 136 -12 177 -7 c 1,8,-1
 177 -10 l 2,9,10
 175 -24 175 -24 170.5 -42 c 128,-1,11
 166 -60 166 -60 161.5 -76.5 c 128,-1,12
 157 -93 157 -93 154 -106.5 c 128,-1,13
 151 -120 151 -120 151 -125 c 0,14,15
 151 -128 151 -128 152 -128 c 0,16,17
 170 -131 170 -131 194 -128 c 128,-1,18
 218 -125 218 -125 241 -127 c 1,19,-1
 241 -125 l 1,20,21
 249 -99 249 -99 257.5 -65 c 128,-1,22
 266 -31 266 -31 271 -9 c 1,23,-1
 272 -10 l 1,24,-1
 274 -10 l 2,25,26
 326 -7 326 -7 365 19.5 c 128,-1,27
 404 46 404 46 427 86 c 128,-1,28
 450 126 450 126 455.5 174.5 c 128,-1,29
 461 223 461 223 446 270 c 1,30,31
 432 274 432 274 414.5 275 c 128,-1,32
 397 276 397 276 379 276 c 128,-1,33
 361 276 361 276 344.5 275 c 128,-1,34
 328 274 328 274 316 274 c 1,35,36
 313 251 313 251 313.5 226 c 128,-1,37
 314 201 314 201 304 180 c 0,38,39
 294 160 294 160 275 152 c 128,-1,40
 256 144 256 144 235 146 c 0,41,42
 211 153 211 153 199 173.5 c 128,-1,43
 187 194 187 194 182 218 c 0,44,45
 176 283 176 283 176.5 348.5 c 128,-1,46
 177 414 177 414 180 480 c 0,47,48
 182 506 182 506 200 524 c 128,-1,49
 218 542 218 542 246 540 c 0,50,51
 253 540 253 540 256 539 c 0,52,53
 278 534 278 534 287 519 c 128,-1,54
 296 504 296 504 299 484.5 c 128,-1,55
 302 465 302 465 303 444.5 c 128,-1,56
 304 424 304 424 310 409 c 1,57,-1
 312 409 l 1,58,59
 347 404 347 404 378.5 401.5 c 128,-1,60
 410 399 410 399 444 407 c 0,61,62
 445 407 445 407 445.5 407.5 c 128,-1,63
 446 408 446 408 447 408 c 0,64,65
 459 446 459 446 456 487.5 c 128,-1,66
 453 529 453 529 437.5 566.5 c 128,-1,67
 422 604 422 604 395 634 c 128,-1,68
 368 664 368 664 331 679 c 0,69,70
 300 690 300 690 266 692 c 128,-1,71
 232 694 232 694 197 693 c 0,72,73
 174 694 174 694 148.5 691.5 c 128,-1,74
 123 689 123 689 103 676 c 0,75,76
 72 650 72 650 57.5 613 c 128,-1,77
 43 576 43 576 39 535 c 0,78,79
 38 531 38 531 38 524 c 0,80,0
 33 442 33 442 33 356.5 c 128,-1,1
EndSplineSet
EndChar

StartChar: D
Encoding: 68 68 15
Width: 482
Flags: W
LayerCount: 2
Fore
SplineSet
345.5 669.5 m 128,-1,1
 316 693 316 693 284 701 c 1,2,3
 255 700 255 700 224.5 701 c 128,-1,4
 194 702 194 702 163 702.5 c 128,-1,5
 132 703 132 703 101.5 700.5 c 128,-1,6
 71 698 71 698 43 691 c 0,7,8
 42 690 42 690 41.5 689 c 128,-1,9
 41 688 41 688 40 687 c 0,10,11
 42 600 42 600 40.5 511.5 c 128,-1,12
 39 423 39 423 39 336 c 128,-1,13
 39 249 39 249 42 164.5 c 128,-1,14
 45 80 45 80 56 1 c 1,15,16
 57 2 57 2 57 2 c 1,17,18
 120 2 120 2 187 2.5 c 128,-1,19
 254 3 254 3 320 5 c 1,20,21
 358 52 358 52 392.5 105 c 128,-1,22
 427 158 427 158 447 217 c 0,23,24
 447 218 447 218 447.5 218 c 128,-1,25
 448 218 448 218 448 219 c 0,26,27
 457 265 457 265 458.5 312.5 c 128,-1,28
 460 360 460 360 462 407 c 0,29,30
 461 423 461 423 459.5 438.5 c 128,-1,31
 458 454 458 454 453 470 c 0,32,33
 444 510 444 510 429.5 546.5 c 128,-1,34
 415 583 415 583 393 617 c 0,35,0
 375 646 375 646 345.5 669.5 c 128,-1,1
287.5 236.5 m 128,-1,37
 280 228 280 228 270 222 c 0,38,39
 265 220 265 220 261 217.5 c 128,-1,40
 257 215 257 215 252 216 c 0,41,42
 234 214 234 214 214.5 213 c 128,-1,43
 195 212 195 212 184 222 c 1,44,45
 182 256 182 256 182 290.5 c 128,-1,46
 182 325 182 325 183 358.5 c 128,-1,47
 184 392 184 392 184 423 c 128,-1,48
 184 454 184 454 182 481 c 2,49,-1
 182 485 l 1,50,-1
 183 485 l 1,51,-1
 185 485 l 1,52,53
 203 489 203 489 223 488.5 c 128,-1,54
 243 488 243 488 260 486 c 0,55,56
 277 480 277 480 288 468.5 c 128,-1,57
 299 457 299 457 306.5 442 c 128,-1,58
 314 427 314 427 318 410.5 c 128,-1,59
 322 394 322 394 325 379 c 0,60,61
 333 342 333 342 325.5 311 c 128,-1,62
 318 280 318 280 301 254 c 0,63,36
 295 245 295 245 287.5 236.5 c 128,-1,37
EndSplineSet
EndChar

StartChar: Eth
Encoding: 208 208 16
Width: 482
Flags: W
LayerCount: 2
Fore
SplineSet
-3.5 332.5 m 128,-1,1
 -1 301 -1 301 -1 272 c 1,2,3
 11 272 11 272 24.5 272 c 128,-1,4
 38 272 38 272 52 271 c 1,5,6
 52 208 52 208 53 142 c 128,-1,7
 54 76 54 76 56 4 c 1,8,9
 87 5 87 5 119.5 3 c 128,-1,10
 152 1 152 1 186 0 c 128,-1,11
 220 -1 220 -1 253.5 0.5 c 128,-1,12
 287 2 287 2 319 8 c 0,13,14
 333 11 333 11 349.5 21 c 128,-1,15
 366 31 366 31 382.5 54.5 c 128,-1,16
 399 78 399 78 415.5 117.5 c 128,-1,17
 432 157 432 157 446 219 c 0,18,19
 457 265 457 265 460 313 c 128,-1,20
 463 361 463 361 458 408 c 0,21,22
 456 437 456 437 449 467 c 128,-1,23
 442 497 442 497 434 524 c 0,24,25
 427 550 427 550 416.5 572.5 c 128,-1,26
 406 595 406 595 392 618 c 0,27,28
 365 664 365 664 324 683 c 128,-1,29
 283 702 283 702 236.5 704.5 c 128,-1,30
 190 707 190 707 142 700 c 128,-1,31
 94 693 94 693 51 687 c 1,32,33
 53 614 53 614 53 546 c 128,-1,34
 53 478 53 478 52 409 c 1,35,-1
 -5 410 l 1,36,0
 -6 364 -6 364 -3.5 332.5 c 128,-1,1
277 177 m 128,-1,38
 261 168 261 168 238 166 c 0,39,40
 235 166 235 166 224 165 c 128,-1,41
 213 164 213 164 201 164 c 128,-1,42
 189 164 189 164 179 166 c 128,-1,43
 169 168 169 168 169 173 c 0,44,45
 167 193 167 193 167 221 c 128,-1,46
 167 249 167 249 167 278 c 1,47,-1
 230 277 l 1,48,49
 230 292 230 292 229.5 311.5 c 128,-1,50
 229 331 229 331 228.5 349.5 c 128,-1,51
 228 368 228 368 227.5 383.5 c 128,-1,52
 227 399 227 399 227 405 c 1,53,-1
 168 406 l 1,54,55
 169 441 169 441 169 472.5 c 128,-1,56
 169 504 169 504 167 524 c 1,57,58
 175 527 175 527 188 530 c 128,-1,59
 201 533 201 533 215.5 534 c 128,-1,60
 230 535 230 535 244 533 c 128,-1,61
 258 531 258 531 268 525 c 0,62,63
 286 513 286 513 296.5 496 c 128,-1,64
 307 479 307 479 313.5 459.5 c 128,-1,65
 320 440 320 440 323 419.5 c 128,-1,66
 326 399 326 399 329 380 c 0,67,68
 332 358 332 358 331.5 333 c 128,-1,69
 331 308 331 308 328 283.5 c 128,-1,70
 325 259 325 259 319.5 238.5 c 128,-1,71
 314 218 314 218 306 205 c 0,72,37
 293 186 293 186 277 177 c 128,-1,38
EndSplineSet
EndChar

StartChar: E
Encoding: 69 69 17
Width: 481
Flags: W
LayerCount: 2
Fore
SplineSet
331 137.5 m 128,-1,1
 267 141 267 141 201 141 c 1,2,-1
 200 142 l 1,3,4
 198 166 198 166 196.5 202 c 128,-1,5
 195 238 195 238 200 267 c 1,6,7
 205 271 205 271 219 272 c 128,-1,8
 233 273 233 273 250.5 273 c 128,-1,9
 268 273 268 273 287 273.5 c 128,-1,10
 306 274 306 274 321 278 c 1,11,12
 320 315 320 315 322 349 c 128,-1,13
 324 383 324 383 319 417 c 1,14,-1
 319 418 l 1,15,16
 288 419 288 419 257 419 c 128,-1,17
 226 419 226 419 196 421 c 1,18,-1
 195 422 l 1,19,20
 188 449 188 449 191.5 479.5 c 128,-1,21
 195 510 195 510 194 539 c 1,22,-1
 195 540 l 1,23,-1
 198 540 l 2,24,25
 231 543 231 543 264 543 c 128,-1,26
 297 543 297 543 330 542.5 c 128,-1,27
 363 542 363 542 395.5 543.5 c 128,-1,28
 428 545 428 545 460 552 c 1,29,-1
 460 553 l 2,30,31
 460 588 460 588 462.5 624 c 128,-1,32
 465 660 465 660 460 695 c 0,33,34
 460 696 460 696 440 697 c 128,-1,35
 420 698 420 698 387 698 c 128,-1,36
 354 698 354 698 311 697 c 128,-1,37
 268 696 268 696 222 695 c 128,-1,38
 176 694 176 694 130.5 692.5 c 128,-1,39
 85 691 85 691 46 689 c 1,40,41
 41 603 41 603 40 518 c 128,-1,42
 39 433 39 433 40 348 c 128,-1,43
 41 263 41 263 43 177.5 c 128,-1,44
 45 92 45 92 45 5 c 1,45,46
 142 -3 142 -3 247.5 0.5 c 128,-1,47
 353 4 353 4 455 3 c 1,48,49
 463 33 463 33 464 67.5 c 128,-1,50
 465 102 465 102 463 134 c 2,51,-1
 463 136 l 1,52,0
 395 134 395 134 331 137.5 c 128,-1,1
EndSplineSet
EndChar

StartChar: Eacute
Encoding: 201 201 18
Width: 481
Flags: W
LayerCount: 2
Fore
SplineSet
331 137.5 m 128,-1,1
 267 141 267 141 201 141 c 1,2,-1
 200 142 l 1,3,4
 198 166 198 166 196.5 202 c 128,-1,5
 195 238 195 238 200 267 c 1,6,7
 205 271 205 271 219 272 c 128,-1,8
 233 273 233 273 250.5 273 c 128,-1,9
 268 273 268 273 287 273.5 c 128,-1,10
 306 274 306 274 321 278 c 1,11,12
 320 315 320 315 322 349 c 128,-1,13
 324 383 324 383 319 417 c 1,14,-1
 319 418 l 1,15,16
 288 419 288 419 257 419 c 128,-1,17
 226 419 226 419 196 421 c 1,18,-1
 195 422 l 1,19,20
 188 449 188 449 191.5 479.5 c 128,-1,21
 195 510 195 510 194 539 c 1,22,-1
 195 540 l 1,23,-1
 198 540 l 2,24,25
 231 543 231 543 264 543 c 128,-1,26
 297 543 297 543 330 542.5 c 128,-1,27
 363 542 363 542 395.5 543.5 c 128,-1,28
 428 545 428 545 460 552 c 1,29,-1
 460 553 l 2,30,31
 460 588 460 588 462.5 624 c 128,-1,32
 465 660 465 660 460 695 c 0,33,34
 460 696 460 696 440 697 c 128,-1,35
 420 698 420 698 387 698 c 128,-1,36
 354 698 354 698 311 697 c 128,-1,37
 268 696 268 696 222 695 c 128,-1,38
 176 694 176 694 130.5 692.5 c 128,-1,39
 85 691 85 691 46 689 c 1,40,41
 41 603 41 603 40 518 c 128,-1,42
 39 433 39 433 40 348 c 128,-1,43
 41 263 41 263 43 177.5 c 128,-1,44
 45 92 45 92 45 5 c 1,45,46
 142 -3 142 -3 247.5 0.5 c 128,-1,47
 353 4 353 4 455 3 c 1,48,49
 463 33 463 33 464 67.5 c 128,-1,50
 465 102 465 102 463 134 c 2,51,-1
 463 136 l 1,52,0
 395 134 395 134 331 137.5 c 128,-1,1
287 882.5 m 128,-1,54
 265 862 265 862 242.5 838.5 c 128,-1,55
 220 815 220 815 198.5 792.5 c 128,-1,56
 177 770 177 770 160 754 c 1,57,58
 167 752 167 752 182.5 750.5 c 128,-1,59
 198 749 198 749 217.5 748 c 128,-1,60
 237 747 237 747 257.5 747.5 c 128,-1,61
 278 748 278 748 294 750 c 1,62,63
 298 758 298 758 312 771 c 128,-1,64
 326 784 326 784 342 798.5 c 128,-1,65
 358 813 358 813 373 826 c 128,-1,66
 388 839 388 839 395 846 c 2,67,-1
 396 847 l 1,68,-1
 327 917 l 1,69,53
 309 903 309 903 287 882.5 c 128,-1,54
EndSplineSet
EndChar

StartChar: Ecircumflex
Encoding: 202 202 19
Width: 481
Flags: W
LayerCount: 2
Fore
SplineSet
166 839 m 128,-1,1
 124 801 124 801 90 755 c 1,2,3
 123 753 123 753 140.5 752 c 128,-1,4
 158 751 158 751 167.5 750.5 c 128,-1,5
 177 750 177 750 182.5 750 c 128,-1,6
 188 750 188 750 197 751 c 0,7,8
 201 752 201 752 208 759 c 128,-1,9
 215 766 215 766 223 774.5 c 128,-1,10
 231 783 231 783 238 790.5 c 128,-1,11
 245 798 245 798 249 800 c 0,12,13
 254 797 254 797 261 789 c 128,-1,14
 268 781 268 781 275.5 772.5 c 128,-1,15
 283 764 283 764 290 757.5 c 128,-1,16
 297 751 297 751 300 751 c 0,17,18
 324 748 324 748 344.5 749 c 128,-1,19
 365 750 365 750 380.5 752 c 128,-1,20
 396 754 396 754 405 755.5 c 128,-1,21
 414 757 414 757 415 756 c 1,22,-1
 252 918 l 1,23,0
 208 877 208 877 166 839 c 128,-1,1
331 137.5 m 128,-1,25
 267 141 267 141 201 141 c 1,26,-1
 200 142 l 1,27,28
 198 166 198 166 196.5 202 c 128,-1,29
 195 238 195 238 200 267 c 1,30,31
 205 271 205 271 219 272 c 128,-1,32
 233 273 233 273 250.5 273 c 128,-1,33
 268 273 268 273 287 273.5 c 128,-1,34
 306 274 306 274 321 278 c 1,35,36
 320 315 320 315 322 349 c 128,-1,37
 324 383 324 383 319 417 c 1,38,-1
 319 418 l 1,39,40
 288 419 288 419 257 419 c 128,-1,41
 226 419 226 419 196 421 c 1,42,-1
 195 422 l 1,43,44
 188 449 188 449 191.5 479.5 c 128,-1,45
 195 510 195 510 194 539 c 1,46,-1
 195 540 l 1,47,-1
 198 540 l 2,48,49
 231 543 231 543 264 543 c 128,-1,50
 297 543 297 543 330 542.5 c 128,-1,51
 363 542 363 542 395.5 543.5 c 128,-1,52
 428 545 428 545 460 552 c 1,53,-1
 460 553 l 2,54,55
 460 588 460 588 462.5 624 c 128,-1,56
 465 660 465 660 460 695 c 0,57,58
 460 696 460 696 440 697 c 128,-1,59
 420 698 420 698 387 698 c 128,-1,60
 354 698 354 698 311 697 c 128,-1,61
 268 696 268 696 222 695 c 128,-1,62
 176 694 176 694 130.5 692.5 c 128,-1,63
 85 691 85 691 46 689 c 1,64,65
 41 603 41 603 40 518 c 128,-1,66
 39 433 39 433 40 348 c 128,-1,67
 41 263 41 263 43 177.5 c 128,-1,68
 45 92 45 92 45 5 c 1,69,70
 142 -3 142 -3 247.5 0.5 c 128,-1,71
 353 4 353 4 455 3 c 1,72,73
 463 33 463 33 464 67.5 c 128,-1,74
 465 102 465 102 463 134 c 2,75,-1
 463 136 l 1,76,24
 395 134 395 134 331 137.5 c 128,-1,25
EndSplineSet
EndChar

StartChar: Edieresis
Encoding: 203 203 20
Width: 481
Flags: W
LayerCount: 2
Fore
SplineSet
331 137.5 m 128,-1,1
 267 141 267 141 201 141 c 1,2,-1
 200 142 l 1,3,4
 198 166 198 166 196.5 202 c 128,-1,5
 195 238 195 238 200 267 c 1,6,7
 205 271 205 271 219 272 c 128,-1,8
 233 273 233 273 250.5 273 c 128,-1,9
 268 273 268 273 287 273.5 c 128,-1,10
 306 274 306 274 321 278 c 1,11,12
 320 315 320 315 322 349 c 128,-1,13
 324 383 324 383 319 417 c 1,14,-1
 319 418 l 1,15,16
 288 419 288 419 257 419 c 128,-1,17
 226 419 226 419 196 421 c 1,18,-1
 195 422 l 1,19,20
 188 449 188 449 191.5 479.5 c 128,-1,21
 195 510 195 510 194 539 c 1,22,-1
 195 540 l 1,23,-1
 198 540 l 2,24,25
 231 543 231 543 264 543 c 128,-1,26
 297 543 297 543 330 542.5 c 128,-1,27
 363 542 363 542 395.5 543.5 c 128,-1,28
 428 545 428 545 460 552 c 1,29,-1
 460 553 l 2,30,31
 460 588 460 588 462.5 624 c 128,-1,32
 465 660 465 660 460 695 c 0,33,34
 460 696 460 696 440 697 c 128,-1,35
 420 698 420 698 387 698 c 128,-1,36
 354 698 354 698 311 697 c 128,-1,37
 268 696 268 696 222 695 c 128,-1,38
 176 694 176 694 130.5 692.5 c 128,-1,39
 85 691 85 691 46 689 c 1,40,41
 41 603 41 603 40 518 c 128,-1,42
 39 433 39 433 40 348 c 128,-1,43
 41 263 41 263 43 177.5 c 128,-1,44
 45 92 45 92 45 5 c 1,45,46
 142 -3 142 -3 247.5 0.5 c 128,-1,47
 353 4 353 4 455 3 c 1,48,49
 463 33 463 33 464 67.5 c 128,-1,50
 465 102 465 102 463 134 c 2,51,-1
 463 136 l 1,52,0
 395 134 395 134 331 137.5 c 128,-1,1
210 758 m 1,53,-1
 210 759 l 1,54,-1
 210 760 l 2,55,56
 210 767 210 767 211 783 c 128,-1,57
 212 799 212 799 213 816.5 c 128,-1,58
 214 834 214 834 215 847 c 128,-1,59
 216 860 216 860 216 861 c 0,60,61
 209 864 209 864 194.5 865.5 c 128,-1,62
 180 867 180 867 163.5 867 c 128,-1,63
 147 867 147 867 131.5 865 c 128,-1,64
 116 863 116 863 107 860 c 1,65,66
 107 854 107 854 106.5 841 c 128,-1,67
 106 828 106 828 105.5 813 c 128,-1,68
 105 798 105 798 105.5 783.5 c 128,-1,69
 106 769 106 769 108 759 c 1,70,-1
 111 759 l 1,71,-1
 208 758 l 1,72,-1
 210 758 l 1,53,-1
384 758 m 1,73,-1
 384 759 l 1,74,-1
 384 760 l 2,75,76
 384 767 384 767 385 783 c 128,-1,77
 386 799 386 799 387 816.5 c 128,-1,78
 388 834 388 834 389 847 c 128,-1,79
 390 860 390 860 390 861 c 0,80,81
 383 864 383 864 368.5 865.5 c 128,-1,82
 354 867 354 867 337.5 867 c 128,-1,83
 321 867 321 867 305.5 865 c 128,-1,84
 290 863 290 863 281 860 c 1,85,86
 281 854 281 854 280.5 841 c 128,-1,87
 280 828 280 828 279.5 813 c 128,-1,88
 279 798 279 798 279.5 783.5 c 128,-1,89
 280 769 280 769 282 759 c 1,90,-1
 285 759 l 1,91,-1
 382 758 l 1,92,-1
 384 758 l 1,73,-1
EndSplineSet
EndChar

StartChar: Egrave
Encoding: 200 200 21
Width: 481
Flags: W
LayerCount: 2
Fore
SplineSet
112 846 m 2,0,1
 119 839 119 839 134 826 c 128,-1,2
 149 813 149 813 165 798.5 c 128,-1,3
 181 784 181 784 194.5 771 c 128,-1,4
 208 758 208 758 213 750 c 1,5,6
 229 748 229 748 249 747.5 c 128,-1,7
 269 747 269 747 288.5 748 c 128,-1,8
 308 749 308 749 324 750.5 c 128,-1,9
 340 752 340 752 347 754 c 1,10,11
 330 770 330 770 308.5 792.5 c 128,-1,12
 287 815 287 815 264.5 838.5 c 128,-1,13
 242 862 242 862 220 882.5 c 128,-1,14
 198 903 198 903 180 917 c 1,15,-1
 111 847 l 1,16,-1
 112 846 l 2,0,1
331 137.5 m 128,-1,18
 267 141 267 141 201 141 c 1,19,-1
 200 142 l 1,20,21
 198 166 198 166 196.5 202 c 128,-1,22
 195 238 195 238 200 267 c 1,23,24
 205 271 205 271 219 272 c 128,-1,25
 233 273 233 273 250.5 273 c 128,-1,26
 268 273 268 273 287 273.5 c 128,-1,27
 306 274 306 274 321 278 c 1,28,29
 320 315 320 315 322 349 c 128,-1,30
 324 383 324 383 319 417 c 1,31,-1
 319 418 l 1,32,33
 288 419 288 419 257 419 c 128,-1,34
 226 419 226 419 196 421 c 1,35,-1
 195 422 l 1,36,37
 188 449 188 449 191.5 479.5 c 128,-1,38
 195 510 195 510 194 539 c 1,39,-1
 195 540 l 1,40,-1
 198 540 l 2,41,42
 231 543 231 543 264 543 c 128,-1,43
 297 543 297 543 330 542.5 c 128,-1,44
 363 542 363 542 395.5 543.5 c 128,-1,45
 428 545 428 545 460 552 c 1,46,-1
 460 553 l 2,47,48
 460 588 460 588 462.5 624 c 128,-1,49
 465 660 465 660 460 695 c 0,50,51
 460 696 460 696 440 697 c 128,-1,52
 420 698 420 698 387 698 c 128,-1,53
 354 698 354 698 311 697 c 128,-1,54
 268 696 268 696 222 695 c 128,-1,55
 176 694 176 694 130.5 692.5 c 128,-1,56
 85 691 85 691 46 689 c 1,57,58
 41 603 41 603 40 518 c 128,-1,59
 39 433 39 433 40 348 c 128,-1,60
 41 263 41 263 43 177.5 c 128,-1,61
 45 92 45 92 45 5 c 1,62,63
 142 -3 142 -3 247.5 0.5 c 128,-1,64
 353 4 353 4 455 3 c 1,65,66
 463 33 463 33 464 67.5 c 128,-1,67
 465 102 465 102 463 134 c 2,68,-1
 463 136 l 1,69,17
 395 134 395 134 331 137.5 c 128,-1,18
EndSplineSet
EndChar

StartChar: F
Encoding: 70 70 22
Width: 494
Flags: W
LayerCount: 2
Fore
SplineSet
356 263 m 0,1,2
 354 281 354 281 354.5 306 c 128,-1,3
 355 331 355 331 356 355.5 c 128,-1,4
 357 380 357 380 356.5 400 c 128,-1,5
 356 420 356 420 353 427 c 1,6,7
 342 426 342 426 326 425 c 128,-1,8
 310 424 310 424 293 424 c 128,-1,9
 276 424 276 424 258.5 424.5 c 128,-1,10
 241 425 241 425 227 427 c 0,11,12
 226 427 226 427 225 428 c 0,13,14
 216 444 216 444 214 468 c 128,-1,15
 212 492 212 492 223 518 c 1,16,17
 254 521 254 521 289.5 523 c 128,-1,18
 325 525 325 525 360.5 526.5 c 128,-1,19
 396 528 396 528 429.5 530 c 128,-1,20
 463 532 463 532 490 534 c 1,21,22
 491 547 491 547 491 566.5 c 128,-1,23
 491 586 491 586 491 607.5 c 128,-1,24
 491 629 491 629 490.5 649 c 128,-1,25
 490 669 490 669 490 682 c 1,26,27
 462 689 462 689 423 693 c 128,-1,28
 384 697 384 697 340 697.5 c 128,-1,29
 296 698 296 698 250.5 696.5 c 128,-1,30
 205 695 205 695 164.5 692 c 128,-1,31
 124 689 124 689 92 686 c 128,-1,32
 60 683 60 683 43 680 c 1,33,-1
 43 679 l 2,34,35
 43 601 43 601 43 537.5 c 128,-1,36
 43 474 43 474 42.5 419 c 128,-1,37
 42 364 42 364 42 314.5 c 128,-1,38
 42 265 42 265 41.5 216 c 128,-1,39
 41 167 41 167 41 114.5 c 128,-1,40
 41 62 41 62 41 2 c 1,41,-1
 42 1 l 2,42,43
 46 -1 46 -1 66.5 -2 c 128,-1,44
 87 -3 87 -3 114 -3 c 128,-1,45
 141 -3 141 -3 168.5 -2 c 128,-1,46
 196 -1 196 -1 216 1 c 1,47,48
 217 58 217 58 218 120.5 c 128,-1,49
 219 183 219 183 224 246 c 1,50,-1
 225 246 l 1,51,52
 255 251 255 251 288.5 253.5 c 128,-1,53
 322 256 322 256 353 261 c 0,54,0
 356 261 356 261 356 263 c 0,1,2
EndSplineSet
EndChar

StartChar: G
Encoding: 71 71 23
Width: 481
Flags: W
LayerCount: 2
Fore
SplineSet
241 347 m 2,1,2
 240 347 240 347 240 346 c 2,3,-1
 240 345 l 2,4,5
 242 327 242 327 242 315 c 128,-1,6
 242 303 242 303 241.5 291.5 c 128,-1,7
 241 280 241 280 241.5 268 c 128,-1,8
 242 256 242 256 244 240 c 1,9,10
 249 238 249 238 258.5 237.5 c 128,-1,11
 268 237 268 237 279.5 237.5 c 128,-1,12
 291 238 291 238 301.5 238.5 c 128,-1,13
 312 239 312 239 318 238 c 0,14,15
 321 237 321 237 321.5 229 c 128,-1,16
 322 221 322 221 321.5 211 c 128,-1,17
 321 201 321 201 319.5 191.5 c 128,-1,18
 318 182 318 182 317 178 c 0,19,20
 313 164 313 164 305 155.5 c 128,-1,21
 297 147 297 147 286 142 c 0,22,23
 272 137 272 137 255.5 134 c 128,-1,24
 239 131 239 131 224 133 c 0,25,26
 210 136 210 136 201 142 c 0,27,28
 182 157 182 157 176 183 c 128,-1,29
 170 209 170 209 168 231 c 0,30,31
 165 268 165 268 164 309 c 128,-1,32
 163 350 163 350 165 388.5 c 128,-1,33
 167 427 167 427 171.5 461 c 128,-1,34
 176 495 176 495 183 519 c 0,35,36
 185 527 185 527 188.5 535.5 c 128,-1,37
 192 544 192 544 194 546 c 0,38,39
 206 558 206 558 222 558 c 128,-1,40
 238 558 238 558 255 557 c 0,41,42
 270 557 270 557 281 547.5 c 128,-1,43
 292 538 292 538 300.5 525.5 c 128,-1,44
 309 513 309 513 314.5 498.5 c 128,-1,45
 320 484 320 484 323 474 c 1,46,47
 338 472 338 472 349 471 c 128,-1,48
 360 470 360 470 370.5 470 c 128,-1,49
 381 470 381 470 391.5 470.5 c 128,-1,50
 402 471 402 471 417 471 c 0,51,52
 433 472 433 472 440 472 c 128,-1,53
 447 472 447 472 449 475 c 2,54,-1
 450 481 l 2,55,56
 457 542 457 542 439 586.5 c 128,-1,57
 421 631 421 631 385 658 c 128,-1,58
 349 685 349 685 299 695.5 c 128,-1,59
 249 706 249 706 194 699 c 0,60,61
 167 695 167 695 142 687 c 128,-1,62
 117 679 117 679 97 662 c 0,63,64
 68 642 68 642 55.5 611 c 128,-1,65
 43 580 43 580 38 547 c 0,66,67
 33 515 33 515 31 481.5 c 128,-1,68
 29 448 29 448 28 416 c 0,69,70
 27 379 27 379 27.5 350.5 c 128,-1,71
 28 322 28 322 29.5 296.5 c 128,-1,72
 31 271 31 271 33 245 c 128,-1,73
 35 219 35 219 38 187 c 0,74,75
 40 167 40 167 43.5 147.5 c 128,-1,76
 47 128 47 128 50 117 c 0,77,78
 62 74 62 74 83 45 c 128,-1,79
 104 16 104 16 144 -1 c 0,80,81
 168 -11 168 -11 194.5 -14 c 128,-1,82
 221 -17 221 -17 249 -14.5 c 128,-1,83
 277 -12 277 -12 304 -6.5 c 128,-1,84
 331 -1 331 -1 356 6 c 0,85,86
 394 20 394 20 420 47 c 128,-1,87
 446 74 446 74 451 125 c 1,88,89
 461 179 461 179 459 238.5 c 128,-1,90
 457 298 457 298 451 351 c 1,91,-1
 450 352 l 1,92,-1
 448 352 l 2,93,94
 438 352 438 352 409.5 354.5 c 128,-1,95
 381 357 381 357 348 358 c 128,-1,96
 315 359 315 359 285.5 357.5 c 128,-1,97
 256 356 256 356 243 348 c 0,98,0
 241 347 241 347 241 347 c 2,1,2
EndSplineSet
EndChar

StartChar: H
Encoding: 72 72 24
Width: 499
Flags: W
LayerCount: 2
Fore
SplineSet
408.5 707.5 m 128,-1,1
 390 708 390 708 371 706.5 c 128,-1,2
 352 705 352 705 334.5 702 c 128,-1,3
 317 699 317 699 305 695 c 1,4,5
 308 623 308 623 307.5 563 c 128,-1,6
 307 503 307 503 301 434 c 1,7,-1
 300 434 l 2,8,9
 275 432 275 432 246 429.5 c 128,-1,10
 217 427 217 427 192 433 c 1,11,-1
 191 433 l 1,12,13
 179 497 179 497 179 562 c 128,-1,14
 179 627 179 627 170 696 c 1,15,16
 156 700 156 700 140 700 c 128,-1,17
 124 700 124 700 107.5 699 c 128,-1,18
 91 698 91 698 74.5 697 c 128,-1,19
 58 696 58 696 43 699 c 2,20,-1
 41 699 l 1,21,-1
 40 699 l 1,22,-1
 40 698 l 2,23,24
 39 647 39 647 38.5 583.5 c 128,-1,25
 38 520 38 520 39 451.5 c 128,-1,26
 40 383 40 383 41.5 315 c 128,-1,27
 43 247 43 247 45 186.5 c 128,-1,28
 47 126 47 126 49.5 77.5 c 128,-1,29
 52 29 52 29 54 1 c 1,30,31
 63 6 63 6 80.5 5 c 128,-1,32
 98 4 98 4 118 2 c 128,-1,33
 138 0 138 0 158 0 c 128,-1,34
 178 0 178 0 190 7 c 1,35,36
 195 39 195 39 195.5 71.5 c 128,-1,37
 196 104 196 104 195 138 c 128,-1,38
 194 172 194 172 193.5 206 c 128,-1,39
 193 240 193 240 196 275 c 1,40,41
 225 282 225 282 254 282 c 128,-1,42
 283 282 283 282 312 277 c 1,43,-1
 313 276 l 1,44,45
 317 244 317 244 318 209 c 128,-1,46
 319 174 319 174 319.5 139 c 128,-1,47
 320 104 320 104 321.5 68.5 c 128,-1,48
 323 33 323 33 328 0 c 1,49,-1
 329 0 l 2,50,51
 341 1 341 1 358.5 1 c 128,-1,52
 376 1 376 1 394.5 1 c 128,-1,53
 413 1 413 1 432.5 2 c 128,-1,54
 452 3 452 3 469 6 c 1,55,-1
 442 706 l 1,56,0
 427 707 427 707 408.5 707.5 c 128,-1,1
EndSplineSet
EndChar

StartChar: I
Encoding: 73 73 25
Width: 260
Flags: W
LayerCount: 2
Fore
SplineSet
129.5 703.5 m 128,-1,1
 106 705 106 705 88 706 c 0,2,3
 81 706 81 706 66.5 707.5 c 128,-1,4
 52 709 52 709 47 708 c 1,5,-1
 47 706 l 1,6,7
 38 622 38 622 38.5 534.5 c 128,-1,8
 39 447 39 447 41.5 357.5 c 128,-1,9
 44 268 44 268 45 177 c 128,-1,10
 46 86 46 86 39 -4 c 1,11,12
 49 -1 49 -1 76 -2.5 c 128,-1,13
 103 -4 103 -4 132.5 -5 c 128,-1,14
 162 -6 162 -6 187.5 -4.5 c 128,-1,15
 213 -3 213 -3 221 5 c 1,16,17
 216 90 216 90 215 177 c 128,-1,18
 214 264 214 264 215.5 351.5 c 128,-1,19
 217 439 217 439 219.5 526 c 128,-1,20
 222 613 222 613 222 699 c 2,21,-1
 222 703 l 1,22,-1
 198 703 l 2,23,0
 153 702 153 702 129.5 703.5 c 128,-1,1
EndSplineSet
EndChar

StartChar: Iacute
Encoding: 205 205 26
Width: 259
Flags: W
LayerCount: 2
Fore
SplineSet
129.5 703.5 m 128,-1,1
 106 705 106 705 88 706 c 0,2,3
 81 706 81 706 66.5 707.5 c 128,-1,4
 52 709 52 709 47 708 c 1,5,-1
 47 706 l 1,6,7
 38 622 38 622 38.5 534.5 c 128,-1,8
 39 447 39 447 41.5 357.5 c 128,-1,9
 44 268 44 268 45 177 c 128,-1,10
 46 86 46 86 39 -4 c 1,11,12
 49 -1 49 -1 76 -2.5 c 128,-1,13
 103 -4 103 -4 132.5 -5 c 128,-1,14
 162 -6 162 -6 187.5 -4.5 c 128,-1,15
 213 -3 213 -3 221 5 c 1,16,17
 216 90 216 90 215 177 c 128,-1,18
 214 264 214 264 215.5 351.5 c 128,-1,19
 217 439 217 439 219.5 526 c 128,-1,20
 222 613 222 613 222 699 c 2,21,-1
 222 703 l 1,22,-1
 198 703 l 2,23,0
 153 702 153 702 129.5 703.5 c 128,-1,1
186 882.5 m 128,-1,25
 164 862 164 862 141.5 838.5 c 128,-1,26
 119 815 119 815 97.5 792.5 c 128,-1,27
 76 770 76 770 59 754 c 1,28,29
 66 752 66 752 81.5 750.5 c 128,-1,30
 97 749 97 749 116.5 748 c 128,-1,31
 136 747 136 747 156.5 747.5 c 128,-1,32
 177 748 177 748 193 750 c 1,33,34
 197 758 197 758 211 771 c 128,-1,35
 225 784 225 784 241 798.5 c 128,-1,36
 257 813 257 813 272 826 c 128,-1,37
 287 839 287 839 294 846 c 2,38,-1
 295 847 l 1,39,-1
 226 917 l 1,40,24
 208 903 208 903 186 882.5 c 128,-1,25
EndSplineSet
EndChar

StartChar: Icircumflex
Encoding: 206 206 27
Width: 260
Flags: W
LayerCount: 2
Fore
SplineSet
58 839 m 128,-1,1
 16 801 16 801 -18 755 c 1,2,3
 15 753 15 753 32.5 752 c 128,-1,4
 50 751 50 751 59.5 750.5 c 128,-1,5
 69 750 69 750 74.5 750 c 128,-1,6
 80 750 80 750 89 751 c 0,7,8
 93 752 93 752 100 759 c 128,-1,9
 107 766 107 766 115 774.5 c 128,-1,10
 123 783 123 783 130 790.5 c 128,-1,11
 137 798 137 798 141 800 c 0,12,13
 146 797 146 797 153 789 c 128,-1,14
 160 781 160 781 167.5 772.5 c 128,-1,15
 175 764 175 764 182 757.5 c 128,-1,16
 189 751 189 751 192 751 c 0,17,18
 216 748 216 748 236.5 749 c 128,-1,19
 257 750 257 750 272.5 752 c 128,-1,20
 288 754 288 754 297 755.5 c 128,-1,21
 306 757 306 757 307 756 c 1,22,-1
 144 918 l 1,23,0
 100 877 100 877 58 839 c 128,-1,1
129.5 703.5 m 128,-1,25
 106 705 106 705 88 706 c 0,26,27
 81 706 81 706 66.5 707.5 c 128,-1,28
 52 709 52 709 47 708 c 1,29,-1
 47 706 l 1,30,31
 38 622 38 622 38.5 534.5 c 128,-1,32
 39 447 39 447 41.5 357.5 c 128,-1,33
 44 268 44 268 45 177 c 128,-1,34
 46 86 46 86 39 -4 c 1,35,36
 49 -1 49 -1 76 -2.5 c 128,-1,37
 103 -4 103 -4 132.5 -5 c 128,-1,38
 162 -6 162 -6 187.5 -4.5 c 128,-1,39
 213 -3 213 -3 221 5 c 1,40,41
 216 90 216 90 215 177 c 128,-1,42
 214 264 214 264 215.5 351.5 c 128,-1,43
 217 439 217 439 219.5 526 c 128,-1,44
 222 613 222 613 222 699 c 2,45,-1
 222 703 l 1,46,-1
 198 703 l 2,47,24
 153 702 153 702 129.5 703.5 c 128,-1,25
EndSplineSet
EndChar

StartChar: Idieresis
Encoding: 207 207 28
Width: 260
Flags: W
LayerCount: 2
Fore
SplineSet
129.5 703.5 m 128,-1,1
 106 705 106 705 88 706 c 0,2,3
 81 706 81 706 66.5 707.5 c 128,-1,4
 52 709 52 709 47 708 c 1,5,-1
 47 706 l 1,6,7
 38 622 38 622 38.5 534.5 c 128,-1,8
 39 447 39 447 41.5 357.5 c 128,-1,9
 44 268 44 268 45 177 c 128,-1,10
 46 86 46 86 39 -4 c 1,11,12
 49 -1 49 -1 76 -2.5 c 128,-1,13
 103 -4 103 -4 132.5 -5 c 128,-1,14
 162 -6 162 -6 187.5 -4.5 c 128,-1,15
 213 -3 213 -3 221 5 c 1,16,17
 216 90 216 90 215 177 c 128,-1,18
 214 264 214 264 215.5 351.5 c 128,-1,19
 217 439 217 439 219.5 526 c 128,-1,20
 222 613 222 613 222 699 c 2,21,-1
 222 703 l 1,22,-1
 198 703 l 2,23,0
 153 702 153 702 129.5 703.5 c 128,-1,1
104 758 m 1,24,-1
 104 759 l 1,25,-1
 104 760 l 2,26,27
 104 767 104 767 105 783 c 128,-1,28
 106 799 106 799 107 816.5 c 128,-1,29
 108 834 108 834 109 847 c 128,-1,30
 110 860 110 860 110 861 c 0,31,32
 103 864 103 864 88.5 865.5 c 128,-1,33
 74 867 74 867 57.5 867 c 128,-1,34
 41 867 41 867 25.5 865 c 128,-1,35
 10 863 10 863 1 860 c 1,36,37
 1 854 1 854 0.5 841 c 128,-1,38
 0 828 0 828 -0.5 813 c 128,-1,39
 -1 798 -1 798 -0.5 783.5 c 128,-1,40
 0 769 0 769 2 759 c 1,41,-1
 5 759 l 1,42,-1
 102 758 l 1,43,-1
 104 758 l 1,24,-1
278 758 m 1,44,-1
 278 759 l 1,45,-1
 278 760 l 2,46,47
 278 767 278 767 279 783 c 128,-1,48
 280 799 280 799 281 816.5 c 128,-1,49
 282 834 282 834 283 847 c 128,-1,50
 284 860 284 860 284 861 c 0,51,52
 277 864 277 864 262.5 865.5 c 128,-1,53
 248 867 248 867 231.5 867 c 128,-1,54
 215 867 215 867 199.5 865 c 128,-1,55
 184 863 184 863 175 860 c 1,56,57
 175 854 175 854 174.5 841 c 128,-1,58
 174 828 174 828 173.5 813 c 128,-1,59
 173 798 173 798 173.5 783.5 c 128,-1,60
 174 769 174 769 176 759 c 1,61,-1
 179 759 l 1,62,-1
 276 758 l 1,63,-1
 278 758 l 1,44,-1
EndSplineSet
EndChar

StartChar: Igrave
Encoding: 204 204 29
Width: 260
Flags: W
LayerCount: 2
Fore
SplineSet
-15 846 m 2,0,1
 -8 839 -8 839 7 826 c 128,-1,2
 22 813 22 813 38 798.5 c 128,-1,3
 54 784 54 784 67.5 771 c 128,-1,4
 81 758 81 758 86 750 c 1,5,6
 102 748 102 748 122 747.5 c 128,-1,7
 142 747 142 747 161.5 748 c 128,-1,8
 181 749 181 749 197 750.5 c 128,-1,9
 213 752 213 752 220 754 c 1,10,11
 203 770 203 770 181.5 792.5 c 128,-1,12
 160 815 160 815 137.5 838.5 c 128,-1,13
 115 862 115 862 93 882.5 c 128,-1,14
 71 903 71 903 53 917 c 1,15,-1
 -16 847 l 1,16,-1
 -15 846 l 2,0,1
129.5 703.5 m 128,-1,18
 106 705 106 705 88 706 c 0,19,20
 81 706 81 706 66.5 707.5 c 128,-1,21
 52 709 52 709 47 708 c 1,22,-1
 47 706 l 1,23,24
 38 622 38 622 38.5 534.5 c 128,-1,25
 39 447 39 447 41.5 357.5 c 128,-1,26
 44 268 44 268 45 177 c 128,-1,27
 46 86 46 86 39 -4 c 1,28,29
 49 -1 49 -1 76 -2.5 c 128,-1,30
 103 -4 103 -4 132.5 -5 c 128,-1,31
 162 -6 162 -6 187.5 -4.5 c 128,-1,32
 213 -3 213 -3 221 5 c 1,33,34
 216 90 216 90 215 177 c 128,-1,35
 214 264 214 264 215.5 351.5 c 128,-1,36
 217 439 217 439 219.5 526 c 128,-1,37
 222 613 222 613 222 699 c 2,38,-1
 222 703 l 1,39,-1
 198 703 l 2,40,17
 153 702 153 702 129.5 703.5 c 128,-1,18
EndSplineSet
EndChar

StartChar: J
Encoding: 74 74 30
Width: 463
Flags: W
LayerCount: 2
Fore
SplineSet
279 703 m 1,0,1
 275 584 275 584 276.5 466 c 128,-1,2
 278 348 278 348 280 236 c 0,3,4
 279 221 279 221 275 207.5 c 128,-1,5
 271 194 271 194 263.5 183.5 c 128,-1,6
 256 173 256 173 245 168 c 128,-1,7
 234 163 234 163 219 166 c 0,8,9
 201 167 201 167 190 179 c 128,-1,10
 179 191 179 191 172 208.5 c 128,-1,11
 165 226 165 226 162.5 245.5 c 128,-1,12
 160 265 160 265 159 280 c 2,13,-1
 159 285 l 1,14,-1
 159 286 l 1,15,16
 141 289 141 289 119.5 291 c 128,-1,17
 98 293 98 293 77 293 c 128,-1,18
 56 293 56 293 36.5 292 c 128,-1,19
 17 291 17 291 4 288 c 1,20,21
 2 250 2 250 5.5 204.5 c 128,-1,22
 9 159 9 159 22 117.5 c 128,-1,23
 35 76 35 76 60 44 c 128,-1,24
 85 12 85 12 126 0 c 0,25,26
 171 -10 171 -10 221 -7.5 c 128,-1,27
 271 -5 271 -5 313 16 c 1,28,29
 359 33 359 33 382.5 69 c 128,-1,30
 406 105 406 105 415.5 149 c 128,-1,31
 425 193 425 193 426 240.5 c 128,-1,32
 427 288 427 288 429 329 c 0,33,34
 431 426 431 426 427 522 c 128,-1,35
 423 618 423 618 425 712 c 1,36,-1
 279 710 l 1,37,-1
 279 703 l 1,0,1
EndSplineSet
EndChar

StartChar: K
Encoding: 75 75 31
Width: 459
Flags: W
LayerCount: 2
Fore
SplineSet
334 443 m 128,-1,1
 358 485 358 485 382.5 527 c 128,-1,2
 407 569 407 569 428.5 611 c 128,-1,3
 450 653 450 653 462 695 c 1,4,5
 430 700 430 700 394 698 c 128,-1,6
 358 696 358 696 326 698 c 1,7,8
 305 668 305 668 288.5 638 c 128,-1,9
 272 608 272 608 256.5 578 c 128,-1,10
 241 548 241 548 224 519 c 128,-1,11
 207 490 207 490 186 463 c 0,12,13
 184 461 184 461 182.5 458.5 c 128,-1,14
 181 456 181 456 181 457 c 0,15,16
 179 514 179 514 180 577 c 128,-1,17
 181 640 181 640 179 697 c 1,18,19
 147 697 147 697 112.5 698.5 c 128,-1,20
 78 700 78 700 45 699 c 1,21,22
 46 524 46 524 40.5 350.5 c 128,-1,23
 35 177 35 177 43 5 c 1,24,25
 56 2 56 2 75.5 0 c 128,-1,26
 95 -2 95 -2 116 -2 c 128,-1,27
 137 -2 137 -2 156 -0.5 c 128,-1,28
 175 1 175 1 189 5 c 1,29,30
 189 33 189 33 188.5 66 c 128,-1,31
 188 99 188 99 187 133 c 128,-1,32
 186 167 186 167 185.5 200.5 c 128,-1,33
 185 234 185 234 186 263 c 1,34,35
 202 235 202 235 218 200 c 128,-1,36
 234 165 234 165 250.5 129 c 128,-1,37
 267 93 267 93 285 59.5 c 128,-1,38
 303 26 303 26 324 2 c 1,39,40
 356 1 356 1 393.5 -1 c 128,-1,41
 431 -3 431 -3 463 4 c 1,42,-1
 292 359 l 1,43,0
 310 401 310 401 334 443 c 128,-1,1
EndSplineSet
EndChar

StartChar: L
Encoding: 76 76 32
Width: 461
Flags: W
LayerCount: 2
Fore
SplineSet
456.5 109.5 m 128,-1,1
 457 120 457 120 458 130 c 0,2,3
 459 141 459 141 459 152 c 1,4,5
 451 151 451 151 430.5 151.5 c 128,-1,6
 410 152 410 152 383.5 153 c 128,-1,7
 357 154 357 154 327.5 155.5 c 128,-1,8
 298 157 298 157 272 158 c 128,-1,9
 246 159 246 159 226.5 159.5 c 128,-1,10
 207 160 207 160 200 158 c 1,11,-1
 200 159 l 2,12,13
 201 223 201 223 200.5 291.5 c 128,-1,14
 200 360 200 360 199 429 c 128,-1,15
 198 498 198 498 197.5 566.5 c 128,-1,16
 197 635 197 635 199 700 c 1,17,18
 185 706 185 706 162 709 c 128,-1,19
 139 712 139 712 115 712 c 128,-1,20
 91 712 91 712 70 709.5 c 128,-1,21
 49 707 49 707 39 703 c 1,22,23
 40 633 40 633 41 575.5 c 128,-1,24
 42 518 42 518 43 467 c 128,-1,25
 44 416 44 416 44 367 c 128,-1,26
 44 318 44 318 43.5 265.5 c 128,-1,27
 43 213 43 213 41 152.5 c 128,-1,28
 39 92 39 92 36 17 c 2,29,-1
 36 -1 l 1,30,31
 157 -3 157 -3 229.5 -3 c 128,-1,32
 302 -3 302 -3 343.5 -2 c 128,-1,33
 385 -1 385 -1 402.5 0 c 128,-1,34
 420 1 420 1 431 0 c 0,35,36
 442 0 442 0 448 0.5 c 128,-1,37
 454 1 454 1 456.5 9.5 c 128,-1,38
 459 18 459 18 459 36.5 c 128,-1,39
 459 55 459 55 457 91 c 0,40,0
 456 99 456 99 456.5 109.5 c 128,-1,1
EndSplineSet
EndChar

StartChar: M
Encoding: 77 77 33
Width: 501
Flags: W
LayerCount: 2
Fore
SplineSet
460 507.5 m 128,-1,1
 456 601 456 601 460 697 c 1,2,3
 444 697 444 697 421.5 696.5 c 128,-1,4
 399 696 399 696 377.5 695 c 128,-1,5
 356 694 356 694 337.5 693 c 128,-1,6
 319 692 319 692 312 693 c 1,7,8
 303 681 303 681 293.5 655 c 128,-1,9
 284 629 284 629 276.5 602.5 c 128,-1,10
 269 576 269 576 262.5 556 c 128,-1,11
 256 536 256 536 253 537 c 0,12,13
 250 537 250 537 247 540 c 0,14,15
 239 552 239 552 231.5 573 c 128,-1,16
 224 594 224 594 216 617 c 128,-1,17
 208 640 208 640 199 660.5 c 128,-1,18
 190 681 190 681 181 691 c 1,19,-1
 180 691 l 2,20,21
 163 690 163 690 145 690.5 c 128,-1,22
 127 691 127 691 109 691.5 c 128,-1,23
 91 692 91 692 74 691 c 128,-1,24
 57 690 57 690 44 686 c 1,25,26
 43 550 43 550 42.5 448 c 128,-1,27
 42 346 42 346 41.5 272 c 128,-1,28
 41 198 41 198 41 148 c 128,-1,29
 41 98 41 98 41.5 67.5 c 128,-1,30
 42 37 42 37 43 22 c 128,-1,31
 44 7 44 7 45 3 c 0,32,33
 46 0 46 0 48 0 c 0,34,35
 80 0 80 0 118 -1 c 128,-1,36
 156 -2 156 -2 188 3 c 1,37,38
 182 96 182 96 179.5 192 c 128,-1,39
 177 288 177 288 185 382 c 1,40,41
 185 382 185 382 188.5 372 c 128,-1,42
 192 362 192 362 197 347 c 128,-1,43
 202 332 202 332 209 314 c 128,-1,44
 216 296 216 296 222.5 280 c 128,-1,45
 229 264 229 264 235.5 253.5 c 128,-1,46
 242 243 242 243 247 243 c 0,47,48
 251 243 251 243 259 262 c 128,-1,49
 267 281 267 281 276 306 c 128,-1,50
 285 331 285 331 294 354.5 c 128,-1,51
 303 378 303 378 310 389 c 1,52,53
 315 347 315 347 317.5 297 c 128,-1,54
 320 247 320 247 320.5 195 c 128,-1,55
 321 143 321 143 321.5 93 c 128,-1,56
 322 43 322 43 324 0 c 1,57,58
 336 0 336 0 352.5 0.5 c 128,-1,59
 369 1 369 1 387 1 c 128,-1,60
 405 1 405 1 423 1 c 128,-1,61
 441 1 441 1 456 -1 c 1,62,-1
 459 318 l 1,63,0
 464 414 464 414 460 507.5 c 128,-1,1
EndSplineSet
EndChar

StartChar: N
Encoding: 78 78 34
Width: 498
Flags: W
LayerCount: 2
Fore
SplineSet
448 -3 m 128,-1,1
 455 -1 455 -1 457 0 c 2,2,-1
 457 20 l 2,3,4
 457 40 457 40 456.5 60 c 128,-1,5
 456 80 456 80 456 100 c 0,6,7
 456 128 456 128 456.5 155 c 128,-1,8
 457 182 457 182 457 211 c 0,9,10
 457 254 457 254 457 297 c 128,-1,11
 457 340 457 340 456 382 c 2,12,-1
 456 704 l 1,13,14
 427 710 427 710 390 710 c 0,15,16
 352 710 352 710 318 704 c 1,17,18
 317 679 317 679 316.5 657.5 c 128,-1,19
 316 636 316 636 316 615 c 0,20,21
 316 579 316 579 317.5 544.5 c 128,-1,22
 319 510 319 510 319 470 c 0,23,24
 319 453 319 453 317 435 c 128,-1,25
 315 417 315 417 312 415 c 0,26,27
 311 415 311 415 305 426.5 c 128,-1,28
 299 438 299 438 290.5 454.5 c 128,-1,29
 282 471 282 471 272 491.5 c 128,-1,30
 262 512 262 512 253 530.5 c 128,-1,31
 244 549 244 549 237 563 c 128,-1,32
 230 577 230 577 228 582 c 0,33,34
 219 603 219 603 212.5 616.5 c 128,-1,35
 206 630 206 630 200.5 641 c 128,-1,36
 195 652 195 652 189 664 c 128,-1,37
 183 676 183 676 176 694 c 0,38,39
 176 696 176 696 165.5 698 c 128,-1,40
 155 700 155 700 141 701.5 c 128,-1,41
 127 703 127 703 113 703.5 c 128,-1,42
 99 704 99 704 93 704 c 0,43,44
 81 704 81 704 69.5 703 c 128,-1,45
 58 702 58 702 48 700 c 1,46,47
 43 636 43 636 41 568.5 c 128,-1,48
 39 501 39 501 39 432 c 0,49,50
 39 338 39 338 40.5 252 c 128,-1,51
 42 166 42 166 42 71 c 2,52,-1
 42 1 l 1,53,54
 65 1 65 1 89.5 -2 c 128,-1,55
 114 -5 114 -5 138 -5 c 0,56,57
 149 -5 149 -5 160 -4 c 128,-1,58
 171 -3 171 -3 182 0 c 1,59,60
 181 17 181 17 181 38.5 c 128,-1,61
 181 60 181 60 181 83 c 0,62,63
 181 125 181 125 181.5 170 c 128,-1,64
 182 215 182 215 183 252 c 128,-1,65
 184 289 184 289 185.5 313 c 128,-1,66
 187 337 187 337 188 337 c 0,67,68
 190 337 190 337 193.5 327.5 c 128,-1,69
 197 318 197 318 201 307 c 2,70,-1
 211 277 l 2,71,72
 234 213 234 213 266.5 143.5 c 128,-1,73
 299 74 299 74 332 0 c 1,74,75
 352 0 352 0 378 -2.5 c 128,-1,76
 404 -5 404 -5 424 -5 c 0,77,0
 441 -5 441 -5 448 -3 c 128,-1,1
EndSplineSet
EndChar

StartChar: Ntilde
Encoding: 209 209 35
Width: 516
Flags: W
LayerCount: 2
Fore
SplineSet
474 199 m 128,-1,1
 475 291 475 291 473 382 c 2,2,-1
 474 702 l 1,3,4
 468 703 468 703 450 704.5 c 128,-1,5
 432 706 432 706 408.5 706 c 128,-1,6
 385 706 385 706 360.5 704.5 c 128,-1,7
 336 703 336 703 318 699 c 1,8,-1
 318 696 l 1,9,10
 313 668 313 668 313.5 636.5 c 128,-1,11
 314 605 314 605 316.5 575 c 128,-1,12
 319 545 319 545 320 518.5 c 128,-1,13
 321 492 321 492 316 474 c 1,14,15
 302 498 302 498 282 530.5 c 128,-1,16
 262 563 262 563 243.5 594.5 c 128,-1,17
 225 626 225 626 210.5 651.5 c 128,-1,18
 196 677 196 677 194 687 c 2,19,-1
 194 688 l 1,20,21
 179 692 179 692 158.5 695.5 c 128,-1,22
 138 699 138 699 117.5 700.5 c 128,-1,23
 97 702 97 702 78.5 701 c 128,-1,24
 60 700 60 700 48 695 c 1,25,26
 41 611 41 611 39.5 524 c 128,-1,27
 38 437 38 437 39 349 c 128,-1,28
 40 261 40 261 41.5 173.5 c 128,-1,29
 43 86 43 86 42 1 c 0,30,31
 42 0 42 0 43 0 c 0,32,33
 61 3 61 3 82 1 c 128,-1,34
 103 -1 103 -1 124.5 -3 c 128,-1,35
 146 -5 146 -5 166 -5.5 c 128,-1,36
 186 -6 186 -6 201 -1 c 0,37,38
 202 -1 202 -1 202 0 c 0,39,40
 199 78 199 78 200.5 148.5 c 128,-1,41
 202 219 202 219 207 294 c 1,42,43
 233 225 233 225 263.5 146.5 c 128,-1,44
 294 68 294 68 327 -5 c 1,45,-1
 328 -5 l 2,46,47
 343 -2 343 -2 366.5 -3.5 c 128,-1,48
 390 -5 390 -5 412.5 -6.5 c 128,-1,49
 435 -8 435 -8 453 -7 c 128,-1,50
 471 -6 471 -6 475 3 c 2,51,-1
 476 17 l 1,52,0
 473 107 473 107 474 199 c 128,-1,1
172 773.5 m 128,-1,54
 172 782 172 782 176 793 c 0,55,56
 178 799 178 799 182 803.5 c 128,-1,57
 186 808 186 808 191 812 c 0,58,59
 201 816 201 816 209.5 818.5 c 128,-1,60
 218 821 218 821 226 821 c 0,61,62
 241 821 241 821 249.5 815 c 128,-1,63
 258 809 258 809 265 798 c 0,64,65
 272 780 272 780 286 769 c 128,-1,66
 300 758 300 758 316.5 752.5 c 128,-1,67
 333 747 333 747 351 747.5 c 128,-1,68
 369 748 369 748 386 754 c 0,69,70
 408 761 408 761 426 782 c 0,71,72
 444 808 444 808 456.5 842.5 c 128,-1,73
 469 877 469 877 462 909 c 0,74,75
 461 909 461 909 461 910 c 2,76,-1
 460 911 l 1,77,78
 439 910 439 910 418.5 910 c 128,-1,79
 398 910 398 910 378 908 c 1,80,81
 375 899 375 899 368.5 884.5 c 128,-1,82
 362 870 362 870 351.5 859.5 c 128,-1,83
 341 849 341 849 328.5 845.5 c 128,-1,84
 316 842 316 842 301 855 c 0,85,86
 288 863 288 863 279 878 c 128,-1,87
 270 893 270 893 254 903 c 0,88,89
 238 914 238 914 220 917.5 c 128,-1,90
 202 921 202 921 184 918 c 128,-1,91
 166 915 166 915 149 906 c 128,-1,92
 132 897 132 897 119 884 c 0,93,94
 109 873 109 873 100 856 c 128,-1,95
 91 839 91 839 83 820 c 128,-1,96
 75 801 75 801 68.5 783.5 c 128,-1,97
 62 766 62 766 59 755 c 1,98,99
 85 756 85 756 108 756 c 0,100,101
 128 756 128 756 147 755 c 128,-1,102
 166 754 166 754 176 752 c 1,103,-1
 176 753 l 1,104,53
 172 765 172 765 172 773.5 c 128,-1,54
EndSplineSet
EndChar

StartChar: O
Encoding: 79 79 36
Width: 483
Flags: W
LayerCount: 2
Fore
SplineSet
396 653 m 0,1,2
 367 675 367 675 330.5 686.5 c 128,-1,3
 294 698 294 698 255.5 700 c 128,-1,4
 217 702 217 702 178.5 694.5 c 128,-1,5
 140 687 140 687 107 671 c 0,6,7
 94 663 94 663 84 653 c 0,8,9
 53 618 53 618 42.5 572.5 c 128,-1,10
 32 527 32 527 31 482 c 0,11,12
 26 403 26 403 29.5 324.5 c 128,-1,13
 33 246 33 246 36 168 c 0,14,15
 37 139 37 139 41.5 110.5 c 128,-1,16
 46 82 46 82 60 57 c 0,17,18
 69 37 69 37 83 24.5 c 128,-1,19
 97 12 97 12 114.5 4 c 128,-1,20
 132 -4 132 -4 151.5 -7.5 c 128,-1,21
 171 -11 171 -11 192 -13 c 0,22,23
 221 -15 221 -15 249.5 -13 c 128,-1,24
 278 -11 278 -11 306 -3 c 0,25,26
 337 5 337 5 364.5 19.5 c 128,-1,27
 392 34 392 34 409 58 c 0,28,29
 427 87 427 87 436 122.5 c 128,-1,30
 445 158 445 158 447 193 c 2,31,-1
 450 226 l 2,32,33
 454 278 454 278 453 328 c 128,-1,34
 452 378 452 378 455 431 c 0,35,36
 456 456 456 456 455.5 480.5 c 128,-1,37
 455 505 455 505 453 530 c 0,38,39
 451 546 451 546 447.5 561.5 c 128,-1,40
 444 577 444 577 437 592 c 0,41,0
 425 627 425 627 396 653 c 0,1,2
330 300 m 2,42,43
 330 298 330 298 329.5 283 c 128,-1,44
 329 268 329 268 328 248 c 0,45,46
 326 227 326 227 326.5 214.5 c 128,-1,47
 327 202 327 202 326 193 c 128,-1,48
 325 184 325 184 321 176.5 c 128,-1,49
 317 169 317 169 308 157 c 0,50,51
 293 140 293 140 271 132.5 c 128,-1,52
 249 125 249 125 227 126.5 c 128,-1,53
 205 128 205 128 186 139 c 128,-1,54
 167 150 167 150 157 170 c 0,55,56
 147 203 147 203 145 239.5 c 128,-1,57
 143 276 143 276 138 311 c 0,58,59
 136 353 136 353 137.5 395 c 128,-1,60
 139 437 139 437 147 475 c 0,61,62
 159 517 159 517 194 544 c 0,63,64
 210 556 210 556 231 561 c 128,-1,65
 252 566 252 566 272 558 c 0,66,67
 295 547 295 547 308.5 524 c 128,-1,68
 322 501 322 501 324 473 c 0,69,70
 325 456 325 456 326.5 436.5 c 128,-1,71
 328 417 328 417 328 416 c 2,72,-1
 330 348 l 1,73,-1
 330 300 l 2,42,43
EndSplineSet
EndChar

StartChar: Oacute
Encoding: 211 211 37
Width: 485
Flags: W
LayerCount: 2
Fore
SplineSet
397 658 m 0,1,2
 368 680 368 680 331.5 691.5 c 128,-1,3
 295 703 295 703 256.5 705 c 128,-1,4
 218 707 218 707 179.5 699.5 c 128,-1,5
 141 692 141 692 108 676 c 0,6,7
 95 668 95 668 85 658 c 0,8,9
 54 623 54 623 43.5 577.5 c 128,-1,10
 33 532 33 532 32 487 c 0,11,12
 27 408 27 408 30.5 329.5 c 128,-1,13
 34 251 34 251 37 173 c 0,14,15
 38 144 38 144 42.5 115.5 c 128,-1,16
 47 87 47 87 61 62 c 0,17,18
 70 42 70 42 84 29.5 c 128,-1,19
 98 17 98 17 115.5 9 c 128,-1,20
 133 1 133 1 152.5 -2.5 c 128,-1,21
 172 -6 172 -6 193 -8 c 0,22,23
 222 -10 222 -10 250.5 -8 c 128,-1,24
 279 -6 279 -6 307 2 c 0,25,26
 338 10 338 10 365.5 24.5 c 128,-1,27
 393 39 393 39 410 63 c 0,28,29
 428 92 428 92 437 127.5 c 128,-1,30
 446 163 446 163 448 198 c 2,31,-1
 451 231 l 2,32,33
 455 283 455 283 454 333 c 128,-1,34
 453 383 453 383 456 436 c 0,35,36
 457 461 457 461 456.5 485.5 c 128,-1,37
 456 510 456 510 454 535 c 0,38,39
 452 551 452 551 448.5 566.5 c 128,-1,40
 445 582 445 582 438 597 c 0,41,0
 426 632 426 632 397 658 c 0,1,2
331 305 m 2,42,43
 331 303 331 303 330.5 288 c 128,-1,44
 330 273 330 273 329 253 c 0,45,46
 327 232 327 232 327.5 219.5 c 128,-1,47
 328 207 328 207 327 198 c 128,-1,48
 326 189 326 189 322 181.5 c 128,-1,49
 318 174 318 174 309 162 c 0,50,51
 294 145 294 145 272 137.5 c 128,-1,52
 250 130 250 130 228 131.5 c 128,-1,53
 206 133 206 133 187 144 c 128,-1,54
 168 155 168 155 158 175 c 0,55,56
 148 208 148 208 146 244.5 c 128,-1,57
 144 281 144 281 139 316 c 0,58,59
 137 358 137 358 138.5 400 c 128,-1,60
 140 442 140 442 148 480 c 0,61,62
 160 522 160 522 195 549 c 0,63,64
 211 561 211 561 232 566 c 128,-1,65
 253 571 253 571 273 563 c 0,66,67
 296 552 296 552 309.5 529 c 128,-1,68
 323 506 323 506 325 478 c 0,69,70
 326 461 326 461 327.5 441.5 c 128,-1,71
 329 422 329 422 329 421 c 2,72,-1
 331 353 l 1,73,-1
 331 305 l 2,42,43
293 882.5 m 128,-1,75
 271 862 271 862 248.5 838.5 c 128,-1,76
 226 815 226 815 204.5 792.5 c 128,-1,77
 183 770 183 770 166 754 c 1,78,79
 173 752 173 752 188.5 750.5 c 128,-1,80
 204 749 204 749 223.5 748 c 128,-1,81
 243 747 243 747 263.5 747.5 c 128,-1,82
 284 748 284 748 300 750 c 1,83,84
 304 758 304 758 318 771 c 128,-1,85
 332 784 332 784 348 798.5 c 128,-1,86
 364 813 364 813 379 826 c 128,-1,87
 394 839 394 839 401 846 c 2,88,-1
 402 847 l 1,89,-1
 333 917 l 1,90,74
 315 903 315 903 293 882.5 c 128,-1,75
EndSplineSet
EndChar

StartChar: Ocircumflex
Encoding: 212 212 38
Width: 484
Flags: W
LayerCount: 2
Fore
SplineSet
161 839 m 128,-1,1
 119 801 119 801 85 755 c 1,2,3
 118 753 118 753 135.5 752 c 128,-1,4
 153 751 153 751 162.5 750.5 c 128,-1,5
 172 750 172 750 177.5 750 c 128,-1,6
 183 750 183 750 192 751 c 0,7,8
 196 752 196 752 203 759 c 128,-1,9
 210 766 210 766 218 774.5 c 128,-1,10
 226 783 226 783 233 790.5 c 128,-1,11
 240 798 240 798 244 800 c 0,12,13
 249 797 249 797 256 789 c 128,-1,14
 263 781 263 781 270.5 772.5 c 128,-1,15
 278 764 278 764 285 757.5 c 128,-1,16
 292 751 292 751 295 751 c 0,17,18
 319 748 319 748 339.5 749 c 128,-1,19
 360 750 360 750 375.5 752 c 128,-1,20
 391 754 391 754 400 755.5 c 128,-1,21
 409 757 409 757 410 756 c 1,22,-1
 247 918 l 1,23,0
 203 877 203 877 161 839 c 128,-1,1
396 658 m 0,25,26
 367 680 367 680 330.5 691.5 c 128,-1,27
 294 703 294 703 255.5 705 c 128,-1,28
 217 707 217 707 178.5 699.5 c 128,-1,29
 140 692 140 692 107 676 c 0,30,31
 94 668 94 668 84 658 c 0,32,33
 53 623 53 623 42.5 577.5 c 128,-1,34
 32 532 32 532 31 487 c 0,35,36
 26 408 26 408 29.5 329.5 c 128,-1,37
 33 251 33 251 36 173 c 0,38,39
 37 144 37 144 41.5 115.5 c 128,-1,40
 46 87 46 87 60 62 c 0,41,42
 69 42 69 42 83 29.5 c 128,-1,43
 97 17 97 17 114.5 9 c 128,-1,44
 132 1 132 1 151.5 -2.5 c 128,-1,45
 171 -6 171 -6 192 -8 c 0,46,47
 221 -10 221 -10 249.5 -8 c 128,-1,48
 278 -6 278 -6 306 2 c 0,49,50
 337 10 337 10 364.5 24.5 c 128,-1,51
 392 39 392 39 409 63 c 0,52,53
 427 92 427 92 436 127.5 c 128,-1,54
 445 163 445 163 447 198 c 2,55,-1
 450 231 l 2,56,57
 454 283 454 283 453 333 c 128,-1,58
 452 383 452 383 455 436 c 0,59,60
 456 461 456 461 455.5 485.5 c 128,-1,61
 455 510 455 510 453 535 c 0,62,63
 451 551 451 551 447.5 566.5 c 128,-1,64
 444 582 444 582 437 597 c 0,65,24
 425 632 425 632 396 658 c 0,25,26
330 305 m 2,66,67
 330 303 330 303 329.5 288 c 128,-1,68
 329 273 329 273 328 253 c 0,69,70
 326 232 326 232 326.5 219.5 c 128,-1,71
 327 207 327 207 326 198 c 128,-1,72
 325 189 325 189 321 181.5 c 128,-1,73
 317 174 317 174 308 162 c 0,74,75
 293 145 293 145 271 137.5 c 128,-1,76
 249 130 249 130 227 131.5 c 128,-1,77
 205 133 205 133 186 144 c 128,-1,78
 167 155 167 155 157 175 c 0,79,80
 147 208 147 208 145 244.5 c 128,-1,81
 143 281 143 281 138 316 c 0,82,83
 136 358 136 358 137.5 400 c 128,-1,84
 139 442 139 442 147 480 c 0,85,86
 159 522 159 522 194 549 c 0,87,88
 210 561 210 561 231 566 c 128,-1,89
 252 571 252 571 272 563 c 0,90,91
 295 552 295 552 308.5 529 c 128,-1,92
 322 506 322 506 324 478 c 0,93,94
 325 461 325 461 326.5 441.5 c 128,-1,95
 328 422 328 422 328 421 c 2,96,-1
 330 353 l 1,97,-1
 330 305 l 2,66,67
EndSplineSet
EndChar

StartChar: Odieresis
Encoding: 214 214 39
Width: 484
Flags: W
LayerCount: 2
Fore
SplineSet
396 658 m 0,1,2
 367 680 367 680 330.5 691.5 c 128,-1,3
 294 703 294 703 255.5 705 c 128,-1,4
 217 707 217 707 178.5 699.5 c 128,-1,5
 140 692 140 692 107 676 c 0,6,7
 94 668 94 668 84 658 c 0,8,9
 53 623 53 623 42.5 577.5 c 128,-1,10
 32 532 32 532 31 487 c 0,11,12
 26 408 26 408 29.5 329.5 c 128,-1,13
 33 251 33 251 36 173 c 0,14,15
 37 144 37 144 41.5 115.5 c 128,-1,16
 46 87 46 87 60 62 c 0,17,18
 69 42 69 42 83 29.5 c 128,-1,19
 97 17 97 17 114.5 9 c 128,-1,20
 132 1 132 1 151.5 -2.5 c 128,-1,21
 171 -6 171 -6 192 -8 c 0,22,23
 221 -10 221 -10 249.5 -8 c 128,-1,24
 278 -6 278 -6 306 2 c 0,25,26
 337 10 337 10 364.5 24.5 c 128,-1,27
 392 39 392 39 409 63 c 0,28,29
 427 92 427 92 436 127.5 c 128,-1,30
 445 163 445 163 447 198 c 2,31,-1
 450 231 l 2,32,33
 454 283 454 283 453 333 c 128,-1,34
 452 383 452 383 455 436 c 0,35,36
 456 461 456 461 455.5 485.5 c 128,-1,37
 455 510 455 510 453 535 c 0,38,39
 451 551 451 551 447.5 566.5 c 128,-1,40
 444 582 444 582 437 597 c 0,41,0
 425 632 425 632 396 658 c 0,1,2
330 305 m 2,42,43
 330 303 330 303 329.5 288 c 128,-1,44
 329 273 329 273 328 253 c 0,45,46
 326 232 326 232 326.5 219.5 c 128,-1,47
 327 207 327 207 326 198 c 128,-1,48
 325 189 325 189 321 181.5 c 128,-1,49
 317 174 317 174 308 162 c 0,50,51
 293 145 293 145 271 137.5 c 128,-1,52
 249 130 249 130 227 131.5 c 128,-1,53
 205 133 205 133 186 144 c 128,-1,54
 167 155 167 155 157 175 c 0,55,56
 147 208 147 208 145 244.5 c 128,-1,57
 143 281 143 281 138 316 c 0,58,59
 136 358 136 358 137.5 400 c 128,-1,60
 139 442 139 442 147 480 c 0,61,62
 159 522 159 522 194 549 c 0,63,64
 210 561 210 561 231 566 c 128,-1,65
 252 571 252 571 272 563 c 0,66,67
 295 552 295 552 308.5 529 c 128,-1,68
 322 506 322 506 324 478 c 0,69,70
 325 461 325 461 326.5 441.5 c 128,-1,71
 328 422 328 422 328 421 c 2,72,-1
 330 353 l 1,73,-1
 330 305 l 2,42,43
208 758 m 1,74,-1
 208 759 l 1,75,-1
 208 760 l 2,76,77
 208 767 208 767 209 783 c 128,-1,78
 210 799 210 799 211 816.5 c 128,-1,79
 212 834 212 834 213 847 c 128,-1,80
 214 860 214 860 214 861 c 0,81,82
 207 864 207 864 192.5 865.5 c 128,-1,83
 178 867 178 867 161.5 867 c 128,-1,84
 145 867 145 867 129.5 865 c 128,-1,85
 114 863 114 863 105 860 c 1,86,87
 105 854 105 854 104.5 841 c 128,-1,88
 104 828 104 828 103.5 813 c 128,-1,89
 103 798 103 798 103.5 783.5 c 128,-1,90
 104 769 104 769 106 759 c 1,91,-1
 109 759 l 1,92,-1
 206 758 l 1,93,-1
 208 758 l 1,74,-1
382 758 m 1,94,-1
 382 759 l 1,95,-1
 382 760 l 2,96,97
 382 767 382 767 383 783 c 128,-1,98
 384 799 384 799 385 816.5 c 128,-1,99
 386 834 386 834 387 847 c 128,-1,100
 388 860 388 860 388 861 c 0,101,102
 381 864 381 864 366.5 865.5 c 128,-1,103
 352 867 352 867 335.5 867 c 128,-1,104
 319 867 319 867 303.5 865 c 128,-1,105
 288 863 288 863 279 860 c 1,106,107
 279 854 279 854 278.5 841 c 128,-1,108
 278 828 278 828 277.5 813 c 128,-1,109
 277 798 277 798 277.5 783.5 c 128,-1,110
 278 769 278 769 280 759 c 1,111,-1
 283 759 l 1,112,-1
 380 758 l 1,113,-1
 382 758 l 1,94,-1
EndSplineSet
EndChar

StartChar: Ograve
Encoding: 210 210 40
Width: 485
Flags: W
LayerCount: 2
Fore
SplineSet
67 846 m 2,0,1
 74 839 74 839 89 826 c 128,-1,2
 104 813 104 813 120 798.5 c 128,-1,3
 136 784 136 784 149.5 771 c 128,-1,4
 163 758 163 758 168 750 c 1,5,6
 184 748 184 748 204 747.5 c 128,-1,7
 224 747 224 747 243.5 748 c 128,-1,8
 263 749 263 749 279 750.5 c 128,-1,9
 295 752 295 752 302 754 c 1,10,11
 285 770 285 770 263.5 792.5 c 128,-1,12
 242 815 242 815 219.5 838.5 c 128,-1,13
 197 862 197 862 175 882.5 c 128,-1,14
 153 903 153 903 135 917 c 1,15,-1
 66 847 l 1,16,-1
 67 846 l 2,0,1
397 658 m 0,18,19
 368 680 368 680 331.5 691.5 c 128,-1,20
 295 703 295 703 256.5 705 c 128,-1,21
 218 707 218 707 179.5 699.5 c 128,-1,22
 141 692 141 692 108 676 c 0,23,24
 95 668 95 668 85 658 c 0,25,26
 54 623 54 623 43.5 577.5 c 128,-1,27
 33 532 33 532 32 487 c 0,28,29
 27 408 27 408 30.5 329.5 c 128,-1,30
 34 251 34 251 37 173 c 0,31,32
 38 144 38 144 42.5 115.5 c 128,-1,33
 47 87 47 87 61 62 c 0,34,35
 70 42 70 42 84 29.5 c 128,-1,36
 98 17 98 17 115.5 9 c 128,-1,37
 133 1 133 1 152.5 -2.5 c 128,-1,38
 172 -6 172 -6 193 -8 c 0,39,40
 222 -10 222 -10 250.5 -8 c 128,-1,41
 279 -6 279 -6 307 2 c 0,42,43
 338 10 338 10 365.5 24.5 c 128,-1,44
 393 39 393 39 410 63 c 0,45,46
 428 92 428 92 437 127.5 c 128,-1,47
 446 163 446 163 448 198 c 2,48,-1
 451 231 l 2,49,50
 455 283 455 283 454 333 c 128,-1,51
 453 383 453 383 456 436 c 0,52,53
 457 461 457 461 456.5 485.5 c 128,-1,54
 456 510 456 510 454 535 c 0,55,56
 452 551 452 551 448.5 566.5 c 128,-1,57
 445 582 445 582 438 597 c 0,58,17
 426 632 426 632 397 658 c 0,18,19
331 305 m 2,59,60
 331 303 331 303 330.5 288 c 128,-1,61
 330 273 330 273 329 253 c 0,62,63
 327 232 327 232 327.5 219.5 c 128,-1,64
 328 207 328 207 327 198 c 128,-1,65
 326 189 326 189 322 181.5 c 128,-1,66
 318 174 318 174 309 162 c 0,67,68
 294 145 294 145 272 137.5 c 128,-1,69
 250 130 250 130 228 131.5 c 128,-1,70
 206 133 206 133 187 144 c 128,-1,71
 168 155 168 155 158 175 c 0,72,73
 148 208 148 208 146 244.5 c 128,-1,74
 144 281 144 281 139 316 c 0,75,76
 137 358 137 358 138.5 400 c 128,-1,77
 140 442 140 442 148 480 c 0,78,79
 160 522 160 522 195 549 c 0,80,81
 211 561 211 561 232 566 c 128,-1,82
 253 571 253 571 273 563 c 0,83,84
 296 552 296 552 309.5 529 c 128,-1,85
 323 506 323 506 325 478 c 0,86,87
 326 461 326 461 327.5 441.5 c 128,-1,88
 329 422 329 422 329 421 c 2,89,-1
 331 353 l 1,90,-1
 331 305 l 2,59,60
EndSplineSet
EndChar

StartChar: Oslash
Encoding: 216 216 41
Width: 479
Flags: W
LayerCount: 2
Fore
SplineSet
453 489.5 m 128,-1,1
 453 518 453 518 449 545 c 128,-1,2
 445 572 445 572 435 597.5 c 128,-1,3
 425 623 425 623 406 645 c 1,4,5
 404 662 404 662 413.5 679 c 128,-1,6
 423 696 423 696 424 716 c 1,7,8
 415 722 415 722 399 723 c 128,-1,9
 383 724 383 724 363.5 723 c 128,-1,10
 344 722 344 722 324.5 721.5 c 128,-1,11
 305 721 305 721 289 723 c 2,12,-1
 288 723 l 2,13,14
 284 723 284 723 283 720 c 128,-1,15
 282 717 282 717 281.5 713 c 128,-1,16
 281 709 281 709 280.5 705.5 c 128,-1,17
 280 702 280 702 278 701 c 0,18,19
 256 703 256 703 232 704 c 128,-1,20
 208 705 208 705 184 702.5 c 128,-1,21
 160 700 160 700 138 692.5 c 128,-1,22
 116 685 116 685 98 671 c 2,23,-1
 95 668 l 2,24,25
 71 644 71 644 55 609 c 0,26,27
 46 592 46 592 42.5 574.5 c 128,-1,28
 39 557 39 557 37.5 538.5 c 128,-1,29
 36 520 36 520 35.5 501.5 c 128,-1,30
 35 483 35 483 33 465 c 0,31,32
 27 365 27 365 30.5 267 c 128,-1,33
 34 169 34 169 59 71 c 0,34,35
 59 70 59 70 59.5 70 c 128,-1,36
 60 70 60 70 60 69 c 256,37,38
 60 68 60 68 59.5 68 c 128,-1,39
 59 68 59 68 59 67 c 0,40,41
 56 59 56 59 51 46 c 128,-1,42
 46 33 46 33 41.5 19 c 128,-1,43
 37 5 37 5 34 -6.5 c 128,-1,44
 31 -18 31 -18 33 -21 c 0,45,46
 48 -20 48 -20 67 -20.5 c 128,-1,47
 86 -21 86 -21 104.5 -21 c 128,-1,48
 123 -21 123 -21 139 -20.5 c 128,-1,49
 155 -20 155 -20 165 -18 c 1,50,-1
 164 -18 l 1,51,-1
 165 -17 l 2,52,53
 173 -11 173 -11 175.5 -7 c 128,-1,54
 178 -3 178 -3 178 -2 c 1,55,-1
 179 -2 l 1,56,-1
 180 -2 l 2,57,58
 204 1 204 1 233 0.5 c 128,-1,59
 262 0 262 0 290 3 c 0,60,61
 345 8 345 8 383.5 42.5 c 128,-1,62
 422 77 422 77 434 131 c 0,63,64
 448 206 448 206 449 281.5 c 128,-1,65
 450 357 450 357 451 434 c 0,66,0
 453 461 453 461 453 489.5 c 128,-1,1
138.5 295 m 128,-1,68
 138 305 138 305 139 316.5 c 128,-1,69
 140 328 140 328 141 339.5 c 128,-1,70
 142 351 142 351 143 360 c 0,71,72
 144 366 144 366 144.5 371.5 c 128,-1,73
 145 377 145 377 146 383 c 0,74,75
 151 415 151 415 152 446.5 c 128,-1,76
 153 478 153 478 158 510 c 1,77,78
 166 530 166 530 186 545.5 c 128,-1,79
 206 561 206 561 226 563 c 2,80,-1
 233 563 l 1,81,-1
 234 563 l 1,82,-1
 234 562 l 1,83,84
 212 491 212 491 186.5 417 c 128,-1,85
 161 343 161 343 141 279 c 1,86,67
 139 285 139 285 138.5 295 c 128,-1,68
324 353 m 128,-1,88
 326 332 326 332 327.5 306 c 128,-1,89
 329 280 329 280 327.5 250 c 128,-1,90
 326 220 326 220 318 187 c 0,91,92
 314 174 314 174 303.5 164.5 c 128,-1,93
 293 155 293 155 280.5 148 c 128,-1,94
 268 141 268 141 254.5 136.5 c 128,-1,95
 241 132 241 132 231 130 c 0,96,97
 230 130 230 130 230 130.5 c 128,-1,98
 230 131 230 131 229 131 c 1,99,100
 240 162 240 162 252.5 197 c 128,-1,101
 265 232 265 232 277 267 c 128,-1,102
 289 302 289 302 300.5 335 c 128,-1,103
 312 368 312 368 322 395 c 1,104,-1
 322 391 l 2,105,87
 322 374 322 374 324 353 c 128,-1,88
EndSplineSet
EndChar

StartChar: Otilde
Encoding: 213 213 42
Width: 484
Flags: W
LayerCount: 2
Fore
SplineSet
396 658 m 0,1,2
 367 680 367 680 330.5 691.5 c 128,-1,3
 294 703 294 703 255.5 705 c 128,-1,4
 217 707 217 707 178.5 699.5 c 128,-1,5
 140 692 140 692 107 676 c 0,6,7
 94 668 94 668 84 658 c 0,8,9
 53 623 53 623 42.5 577.5 c 128,-1,10
 32 532 32 532 31 487 c 0,11,12
 26 408 26 408 29.5 329.5 c 128,-1,13
 33 251 33 251 36 173 c 0,14,15
 37 144 37 144 41.5 115.5 c 128,-1,16
 46 87 46 87 60 62 c 0,17,18
 69 42 69 42 83 29.5 c 128,-1,19
 97 17 97 17 114.5 9 c 128,-1,20
 132 1 132 1 151.5 -2.5 c 128,-1,21
 171 -6 171 -6 192 -8 c 0,22,23
 221 -10 221 -10 249.5 -8 c 128,-1,24
 278 -6 278 -6 306 2 c 0,25,26
 337 10 337 10 364.5 24.5 c 128,-1,27
 392 39 392 39 409 63 c 0,28,29
 427 92 427 92 436 127.5 c 128,-1,30
 445 163 445 163 447 198 c 2,31,-1
 450 231 l 2,32,33
 454 283 454 283 453 333 c 128,-1,34
 452 383 452 383 455 436 c 0,35,36
 456 461 456 461 455.5 485.5 c 128,-1,37
 455 510 455 510 453 535 c 0,38,39
 451 551 451 551 447.5 566.5 c 128,-1,40
 444 582 444 582 437 597 c 0,41,0
 425 632 425 632 396 658 c 0,1,2
330 305 m 2,42,43
 330 303 330 303 329.5 288 c 128,-1,44
 329 273 329 273 328 253 c 0,45,46
 326 232 326 232 326.5 219.5 c 128,-1,47
 327 207 327 207 326 198 c 128,-1,48
 325 189 325 189 321 181.5 c 128,-1,49
 317 174 317 174 308 162 c 0,50,51
 293 145 293 145 271 137.5 c 128,-1,52
 249 130 249 130 227 131.5 c 128,-1,53
 205 133 205 133 186 144 c 128,-1,54
 167 155 167 155 157 175 c 0,55,56
 147 208 147 208 145 244.5 c 128,-1,57
 143 281 143 281 138 316 c 0,58,59
 136 358 136 358 137.5 400 c 128,-1,60
 139 442 139 442 147 480 c 0,61,62
 159 522 159 522 194 549 c 0,63,64
 210 561 210 561 231 566 c 128,-1,65
 252 571 252 571 272 563 c 0,66,67
 295 552 295 552 308.5 529 c 128,-1,68
 322 506 322 506 324 478 c 0,69,70
 325 461 325 461 326.5 441.5 c 128,-1,71
 328 422 328 422 328 421 c 2,72,-1
 330 353 l 1,73,-1
 330 305 l 2,42,43
152 764.5 m 128,-1,75
 152 773 152 773 156 784 c 0,76,77
 158 790 158 790 162 794.5 c 128,-1,78
 166 799 166 799 171 803 c 0,79,80
 181 807 181 807 189.5 809.5 c 128,-1,81
 198 812 198 812 206 812 c 0,82,83
 221 812 221 812 229.5 806 c 128,-1,84
 238 800 238 800 245 789 c 0,85,86
 252 771 252 771 266 760 c 128,-1,87
 280 749 280 749 296.5 743.5 c 128,-1,88
 313 738 313 738 331 738.5 c 128,-1,89
 349 739 349 739 366 745 c 0,90,91
 388 752 388 752 406 773 c 0,92,93
 424 799 424 799 436.5 833.5 c 128,-1,94
 449 868 449 868 442 900 c 0,95,96
 441 900 441 900 441 901 c 2,97,-1
 440 902 l 1,98,99
 419 901 419 901 398.5 901 c 128,-1,100
 378 901 378 901 358 899 c 1,101,102
 355 890 355 890 348.5 875.5 c 128,-1,103
 342 861 342 861 331.5 850.5 c 128,-1,104
 321 840 321 840 308.5 836.5 c 128,-1,105
 296 833 296 833 281 846 c 0,106,107
 268 854 268 854 259 869 c 128,-1,108
 250 884 250 884 234 894 c 0,109,110
 218 905 218 905 200 908.5 c 128,-1,111
 182 912 182 912 164 909 c 128,-1,112
 146 906 146 906 129 897 c 128,-1,113
 112 888 112 888 99 875 c 0,114,115
 89 864 89 864 80 847 c 128,-1,116
 71 830 71 830 63 811 c 128,-1,117
 55 792 55 792 48.5 774.5 c 128,-1,118
 42 757 42 757 39 746 c 1,119,120
 65 747 65 747 88 747 c 0,121,122
 108 747 108 747 127 746 c 128,-1,123
 146 745 146 745 156 743 c 1,124,-1
 156 744 l 1,125,74
 152 756 152 756 152 764.5 c 128,-1,75
EndSplineSet
EndChar

StartChar: OE
Encoding: 338 338 43
Width: 830
Flags: W
LayerCount: 2
Fore
SplineSet
686 140 m 128,-1,1
 621 140 621 140 556 142 c 2,2,-1
 554 142 l 1,3,4
 548 151 548 151 546 172 c 128,-1,5
 544 193 544 193 544.5 215 c 128,-1,6
 545 237 545 237 547 254 c 128,-1,7
 549 271 549 271 552 273 c 2,8,-1
 553 273 l 2,9,10
 570 273 570 273 583 273.5 c 128,-1,11
 596 274 596 274 608.5 274.5 c 128,-1,12
 621 275 621 275 635 274.5 c 128,-1,13
 649 274 649 274 669 273 c 2,14,-1
 670 273 l 1,15,-1
 670 274 l 2,16,17
 670 311 670 311 671.5 345 c 128,-1,18
 673 379 673 379 670 414 c 0,19,20
 670 415 670 415 669.5 415.5 c 128,-1,21
 669 416 669 416 669 417 c 0,22,23
 640 421 640 421 608 420 c 128,-1,24
 576 419 576 419 547 422 c 1,25,26
 541 434 541 434 540.5 448.5 c 128,-1,27
 540 463 540 463 540.5 478 c 128,-1,28
 541 493 541 493 542 508 c 128,-1,29
 543 523 543 523 542 537 c 1,30,-1
 543 538 l 1,31,32
 574 543 574 543 607.5 543.5 c 128,-1,33
 641 544 641 544 674.5 543.5 c 128,-1,34
 708 543 708 543 741.5 544 c 128,-1,35
 775 545 775 545 808 551 c 1,36,37
 811 586 811 586 811.5 624.5 c 128,-1,38
 812 663 812 663 811 698 c 1,39,40
 802 698 802 698 776 698 c 128,-1,41
 750 698 750 698 712 697.5 c 128,-1,42
 674 697 674 697 626 696.5 c 128,-1,43
 578 696 578 696 525.5 695.5 c 128,-1,44
 473 695 473 695 419 695.5 c 128,-1,45
 365 696 365 696 314 697 c 0,46,47
 290 696 290 696 268 698 c 128,-1,48
 246 700 246 700 224.5 700 c 128,-1,49
 203 700 203 700 182 696.5 c 128,-1,50
 161 693 161 693 141 681 c 0,51,52
 93 656 93 656 65.5 608.5 c 128,-1,53
 38 561 38 561 37 504 c 0,54,55
 36 455 36 455 32.5 405 c 128,-1,56
 29 355 29 355 27.5 305.5 c 128,-1,57
 26 256 26 256 28 206.5 c 128,-1,58
 30 157 30 157 41 109 c 1,59,60
 58 62 58 62 93 29 c 128,-1,61
 128 -4 128 -4 185 -10 c 0,62,63
 218 -14 218 -14 248 -13.5 c 128,-1,64
 278 -13 278 -13 307.5 -10.5 c 128,-1,65
 337 -8 337 -8 368 -5.5 c 128,-1,66
 399 -3 399 -3 435 -2 c 0,67,68
 484 1 484 1 529.5 2 c 128,-1,69
 575 3 575 3 619.5 3 c 128,-1,70
 664 3 664 3 709 2.5 c 128,-1,71
 754 2 754 2 802 3 c 2,72,-1
 803 3 l 1,73,74
 813 32 813 32 813.5 67 c 128,-1,75
 814 102 814 102 812 135 c 2,76,-1
 812 137 l 1,77,0
 751 140 751 140 686 140 c 128,-1,1
339.5 475 m 128,-1,79
 341 463 341 463 342 452 c 0,80,81
 344 403 344 403 340.5 355.5 c 128,-1,82
 337 308 337 308 332 258 c 0,83,84
 327 224 327 224 317.5 194 c 128,-1,85
 308 164 308 164 282 141 c 0,86,87
 263 127 263 127 240 123 c 128,-1,88
 217 119 217 119 200 135 c 0,89,90
 181 152 181 152 171.5 179.5 c 128,-1,91
 162 207 162 207 160 227 c 0,92,93
 157 250 157 250 157 272.5 c 128,-1,94
 157 295 157 295 158 318 c 128,-1,95
 159 341 159 341 159.5 364.5 c 128,-1,96
 160 388 160 388 157 412 c 0,97,98
 157 428 157 428 157 446 c 128,-1,99
 157 464 157 464 159 484 c 0,100,101
 162 505 162 505 170 522.5 c 128,-1,102
 178 540 178 540 192 551 c 0,103,104
 202 558 202 558 215.5 561 c 128,-1,105
 229 564 229 564 243.5 564 c 128,-1,106
 258 564 258 564 272 560 c 128,-1,107
 286 556 286 556 297 549 c 0,108,109
 315 537 315 537 327 513 c 0,110,111
 329 509 329 509 330.5 505.5 c 128,-1,112
 332 502 332 502 334 498 c 0,113,78
 338 487 338 487 339.5 475 c 128,-1,79
EndSplineSet
EndChar

StartChar: P
Encoding: 80 80 44
Width: 497
Flags: W
LayerCount: 2
Fore
SplineSet
458 588 m 128,-1,1
 435 628 435 628 399.5 654.5 c 128,-1,2
 364 681 364 681 318 694.5 c 128,-1,3
 272 708 272 708 223.5 712 c 128,-1,4
 175 716 175 716 126.5 711 c 128,-1,5
 78 706 78 706 37 695 c 1,6,7
 40 612 40 612 40.5 521 c 128,-1,8
 41 430 41 430 41 340 c 128,-1,9
 41 250 41 250 41 164.5 c 128,-1,10
 41 79 41 79 44 6 c 1,11,12
 61 4 61 4 84 3 c 128,-1,13
 107 2 107 2 130.5 2.5 c 128,-1,14
 154 3 154 3 175.5 4.5 c 128,-1,15
 197 6 197 6 211 10 c 0,16,17
 212 10 212 10 212.5 10.5 c 128,-1,18
 213 11 213 11 214 11 c 1,19,-1
 214 12 l 2,20,21
 212 85 212 85 211.5 128 c 128,-1,22
 211 171 211 171 211 196.5 c 128,-1,23
 211 222 211 222 211 235.5 c 128,-1,24
 211 249 211 249 210 263 c 1,25,26
 258 255 258 255 304 267.5 c 128,-1,27
 350 280 350 280 388 308 c 128,-1,28
 426 336 426 336 451.5 376 c 128,-1,29
 477 416 477 416 483 464 c 0,30,31
 484 470 484 470 484 476.5 c 128,-1,32
 484 483 484 483 484 490 c 2,33,-1
 484 491 l 2,34,0
 481 548 481 548 458 588 c 128,-1,1
329.5 513 m 128,-1,36
 337 501 337 501 339.5 487 c 128,-1,37
 342 473 342 473 338.5 459 c 128,-1,38
 335 445 335 445 327 434 c 0,39,40
 315 422 315 422 298.5 416.5 c 128,-1,41
 282 411 282 411 264.5 409 c 128,-1,42
 247 407 247 407 229 406.5 c 128,-1,43
 211 406 211 406 195 405 c 2,44,-1
 192 405 l 1,45,46
 187 420 187 420 185.5 438.5 c 128,-1,47
 184 457 184 457 183.5 477 c 128,-1,48
 183 497 183 497 183.5 517 c 128,-1,49
 184 537 184 537 183 555 c 0,50,51
 184 556 184 556 186 556 c 0,52,53
 218 564 218 564 251 558.5 c 128,-1,54
 284 553 284 553 309 533 c 0,55,35
 322 525 322 525 329.5 513 c 128,-1,36
EndSplineSet
EndChar

StartChar: Thorn
Encoding: 222 222 45
Width: 478
Flags: W
LayerCount: 2
Fore
SplineSet
242 148.5 m 128,-1,1
 277 133 277 133 311 133 c 0,2,3
 350 133 350 133 377.5 160 c 128,-1,4
 405 187 405 187 423 227 c 128,-1,5
 441 267 441 267 449.5 314 c 128,-1,6
 458 361 458 361 458 401 c 0,7,8
 458 451 458 451 445 493 c 128,-1,9
 432 535 432 535 409.5 565.5 c 128,-1,10
 387 596 387 596 356 613.5 c 128,-1,11
 325 631 325 631 290 632 c 0,12,13
 272 632 272 632 255.5 631.5 c 128,-1,14
 239 631 239 631 225 626.5 c 128,-1,15
 211 622 211 622 200 612.5 c 128,-1,16
 189 603 189 603 182 586 c 1,17,18
 182 629 182 629 182 649 c 128,-1,19
 182 669 182 669 181.5 679.5 c 128,-1,20
 181 690 181 690 180.5 698 c 128,-1,21
 180 706 180 706 180 727 c 1,22,-1
 44 730 l 1,23,24
 39 634 39 634 40 548 c 128,-1,25
 41 462 41 462 42.5 375.5 c 128,-1,26
 44 289 44 289 44 196.5 c 128,-1,27
 44 104 44 104 37 -4 c 1,28,29
 44 -2 44 -2 65.5 -2.5 c 128,-1,30
 87 -3 87 -3 111 -3.5 c 128,-1,31
 135 -4 135 -4 155.5 -3 c 128,-1,32
 176 -2 176 -2 181 4 c 1,33,34
 179 10 179 10 179 17 c 128,-1,35
 179 24 179 24 180 42 c 128,-1,36
 181 60 181 60 182 94 c 128,-1,37
 183 128 183 128 183 187 c 1,38,0
 207 164 207 164 242 148.5 c 128,-1,1
334 407.5 m 128,-1,40
 335 394 335 394 335 381 c 0,41,42
 335 336 335 336 311.5 304.5 c 128,-1,43
 288 273 288 273 246 273 c 0,44,45
 221 273 221 273 208.5 281.5 c 128,-1,46
 196 290 196 290 190.5 305.5 c 128,-1,47
 185 321 185 321 184.5 343.5 c 128,-1,48
 184 366 184 366 184 394 c 0,49,50
 184 429 184 429 184.5 449.5 c 128,-1,51
 185 470 185 470 189.5 481 c 128,-1,52
 194 492 194 492 204.5 495 c 128,-1,53
 215 498 215 498 236 498 c 0,54,55
 277 498 277 498 300.5 478.5 c 128,-1,56
 324 459 324 459 329 434 c 0,57,39
 333 421 333 421 334 407.5 c 128,-1,40
EndSplineSet
EndChar

StartChar: Q
Encoding: 81 81 46
Width: 495
Flags: W
LayerCount: 2
Fore
SplineSet
462.5 214 m 128,-1,1
 463 239 463 239 465 264 c 0,2,3
 467 294 467 294 467.5 315.5 c 128,-1,4
 468 337 468 337 468 368 c 0,5,6
 468 428 468 428 462 488 c 128,-1,7
 456 548 456 548 439 602 c 1,8,9
 422 642 422 642 404 664.5 c 128,-1,10
 386 687 386 687 364 698 c 128,-1,11
 342 709 342 709 315 711.5 c 128,-1,12
 288 714 288 714 253 714 c 0,13,14
 214 714 214 714 181 707 c 128,-1,15
 148 700 148 700 121.5 687 c 128,-1,16
 95 674 95 674 77 656.5 c 128,-1,17
 59 639 59 639 52 618 c 0,18,19
 42 582 42 582 37.5 542 c 128,-1,20
 33 502 33 502 31.5 461.5 c 128,-1,21
 30 421 30 421 30 381.5 c 128,-1,22
 30 342 30 342 30 307 c 0,23,24
 30 270 30 270 30 235 c 128,-1,25
 30 200 30 200 35 167.5 c 128,-1,26
 40 135 40 135 52.5 106.5 c 128,-1,27
 65 78 65 78 90 54 c 0,28,29
 105 40 105 40 119.5 30 c 128,-1,30
 134 20 134 20 150.5 12.5 c 128,-1,31
 167 5 167 5 186.5 0.5 c 128,-1,32
 206 -4 206 -4 231 -6 c 0,33,34
 246 -7 246 -7 263 -5 c 128,-1,35
 280 -3 280 -3 295 1 c 128,-1,36
 310 5 310 5 322 11 c 128,-1,37
 334 17 334 17 340 24 c 1,38,39
 346 16 346 16 358.5 4 c 128,-1,40
 371 -8 371 -8 377 -8 c 0,41,42
 388 -8 388 -8 400 -1.5 c 128,-1,43
 412 5 412 5 420 10 c 0,44,45
 431 18 431 18 439 26 c 128,-1,46
 447 34 447 34 447 48 c 0,47,48
 447 55 447 55 441 62.5 c 128,-1,49
 435 70 435 70 428 78 c 1,50,51
 445 115 445 115 451 139 c 0,52,53
 455 153 455 153 456 165 c 0,54,0
 462 189 462 189 462.5 214 c 128,-1,1
275 224 m 128,-1,56
 267 216 267 216 259 211 c 0,57,58
 248 203 248 203 237 198 c 128,-1,59
 226 193 226 193 226 179 c 0,60,61
 226 170 226 170 232.5 159.5 c 128,-1,62
 239 149 239 149 247 139 c 0,63,64
 257 128 257 128 269 116 c 1,65,66
 264 115 264 115 260 115 c 128,-1,67
 256 115 256 115 251 115 c 0,68,69
 221 115 221 115 196.5 128 c 128,-1,70
 172 141 172 141 161 171 c 0,71,72
 156 186 156 186 154 209.5 c 128,-1,73
 152 233 152 233 152 258 c 128,-1,74
 152 283 152 283 152.5 306 c 128,-1,75
 153 329 153 329 153 343 c 0,76,77
 153 364 153 364 153.5 381.5 c 128,-1,78
 154 399 154 399 154.5 415.5 c 128,-1,79
 155 432 155 432 156.5 449.5 c 128,-1,80
 158 467 158 467 160 488 c 0,81,82
 162 513 162 513 165.5 528.5 c 128,-1,83
 169 544 169 544 178.5 552 c 128,-1,84
 188 560 188 560 204.5 562.5 c 128,-1,85
 221 565 221 565 250 565 c 0,86,87
 297 565 297 565 315 542.5 c 128,-1,88
 333 520 333 520 336 484 c 0,89,90
 340 448 340 448 341.5 422 c 128,-1,91
 343 396 343 396 343 361 c 0,92,93
 343 350 343 350 343.5 334.5 c 128,-1,94
 344 319 344 319 344 302.5 c 128,-1,95
 344 286 344 286 343.5 271 c 128,-1,96
 343 256 343 256 342 245 c 0,97,98
 341 240 341 240 340 231.5 c 128,-1,99
 339 223 339 223 338 213.5 c 128,-1,100
 337 204 337 204 336 195.5 c 128,-1,101
 335 187 335 187 334 182 c 1,102,103
 328 188 328 188 323.5 197 c 128,-1,104
 319 206 319 206 314.5 213.5 c 128,-1,105
 310 221 310 221 305 226.5 c 128,-1,106
 300 232 300 232 294 232 c 0,107,55
 283 232 283 232 275 224 c 128,-1,56
EndSplineSet
EndChar

StartChar: R
Encoding: 82 82 47
Width: 518
Flags: W
LayerCount: 2
Fore
SplineSet
479 82.5 m 128,-1,1
 457 121 457 121 433 158 c 128,-1,2
 409 195 409 195 384 231.5 c 128,-1,3
 359 268 359 268 338 305 c 1,4,-1
 338 306 l 1,5,-1
 339 306 l 1,6,-1
 343 306 l 2,7,8
 391 309 391 309 422.5 333 c 128,-1,9
 454 357 454 357 473 393 c 0,10,11
 504 445 504 445 502.5 500.5 c 128,-1,12
 501 556 501 556 475 602 c 128,-1,13
 449 648 449 648 402 679 c 128,-1,14
 355 710 355 710 296 713 c 0,15,16
 223 721 223 721 156 714 c 128,-1,17
 89 707 89 707 33 699 c 1,18,19
 35 686 35 686 36.5 649.5 c 128,-1,20
 38 613 38 613 39 561.5 c 128,-1,21
 40 510 40 510 41.5 448.5 c 128,-1,22
 43 387 43 387 43.5 324.5 c 128,-1,23
 44 262 44 262 44 203.5 c 128,-1,24
 44 145 44 145 44 100 c 128,-1,25
 44 55 44 55 43 27.5 c 128,-1,26
 42 0 42 0 40 0 c 1,27,28
 45 1 45 1 66.5 0 c 128,-1,29
 88 -1 88 -1 115 -0.5 c 128,-1,30
 142 0 142 0 169.5 2 c 128,-1,31
 197 4 197 4 214 11 c 1,32,33
 213 30 213 30 211 62 c 128,-1,34
 209 94 209 94 207.5 129.5 c 128,-1,35
 206 165 206 165 206 198.5 c 128,-1,36
 206 232 206 232 209 255 c 1,37,-1
 211 252 l 2,38,39
 232 226 232 226 253 192 c 128,-1,40
 274 158 274 158 292 123 c 128,-1,41
 310 88 310 88 325 56 c 128,-1,42
 340 24 340 24 350 1 c 1,43,-1
 351 1 l 2,44,45
 396 -2 396 -2 439 0.5 c 128,-1,46
 482 3 482 3 517 3 c 1,47,-1
 516 3 l 1,48,0
 501 44 501 44 479 82.5 c 128,-1,1
248 574.5 m 128,-1,50
 282 576 282 576 304 556 c 0,51,52
 318 545 318 545 324 526.5 c 128,-1,53
 330 508 330 508 328 489.5 c 128,-1,54
 326 471 326 471 315.5 455.5 c 128,-1,55
 305 440 305 440 286 436 c 0,56,57
 262 432 262 432 235 433 c 128,-1,58
 208 434 208 434 185 436 c 2,59,-1
 184 436 l 1,60,61
 182 447 182 447 181.5 463 c 128,-1,62
 181 479 181 479 181 496 c 128,-1,63
 181 513 181 513 180.5 529.5 c 128,-1,64
 180 546 180 546 179 559 c 1,65,49
 214 573 214 573 248 574.5 c 128,-1,50
EndSplineSet
EndChar

StartChar: S
Encoding: 83 83 48
Width: 485
Flags: W
LayerCount: 2
Fore
SplineSet
451 598 m 128,-1,1
 425 647 425 647 377 672 c 0,2,3
 353 683 353 683 324.5 690 c 128,-1,4
 296 697 296 697 266.5 698.5 c 128,-1,5
 237 700 237 700 208 696.5 c 128,-1,6
 179 693 179 693 155 683 c 0,7,8
 107 663 107 663 73.5 622 c 128,-1,9
 40 581 40 581 28 531 c 128,-1,10
 16 481 16 481 29.5 428 c 128,-1,11
 43 375 43 375 89 331 c 0,12,13
 103 319 103 319 120 310 c 128,-1,14
 137 301 137 301 157 297 c 0,15,16
 178 293 178 293 202 288.5 c 128,-1,17
 226 284 226 284 246.5 275 c 128,-1,18
 267 266 267 266 282 251.5 c 128,-1,19
 297 237 297 237 300 213 c 0,20,21
 306 178 306 178 286.5 161 c 128,-1,22
 267 144 267 144 240.5 143.5 c 128,-1,23
 214 143 214 143 190.5 159 c 128,-1,24
 167 175 167 175 165 207 c 1,25,26
 131 206 131 206 89 208.5 c 128,-1,27
 47 211 47 211 12 206 c 1,28,-1
 12 203 l 1,29,-1
 12 200 l 2,30,31
 9 152 9 152 29 114.5 c 128,-1,32
 49 77 49 77 83 51 c 128,-1,33
 117 25 117 25 160.5 10.5 c 128,-1,34
 204 -4 204 -4 248 -5 c 0,35,36
 279 -6 279 -6 308.5 0.5 c 128,-1,37
 338 7 338 7 363.5 21 c 128,-1,38
 389 35 389 35 409 57 c 128,-1,39
 429 79 429 79 441 110 c 0,40,41
 453 136 453 136 458.5 164.5 c 128,-1,42
 464 193 464 193 462.5 221 c 128,-1,43
 461 249 461 249 452 275.5 c 128,-1,44
 443 302 443 302 425 325 c 0,45,46
 396 368 396 368 350.5 396 c 128,-1,47
 305 424 305 424 252 430 c 0,48,49
 231 433 231 433 213 441 c 128,-1,50
 195 449 195 449 187 473 c 0,51,52
 186 480 186 480 185.5 486.5 c 128,-1,53
 185 493 185 493 187 500 c 0,54,55
 191 528 191 528 213.5 538 c 128,-1,56
 236 548 236 548 260 543 c 128,-1,57
 284 538 284 538 301 520 c 128,-1,58
 318 502 318 502 312 475 c 1,59,60
 347 465 347 465 387 466.5 c 128,-1,61
 427 468 427 468 462 474 c 1,62,-1
 463 474 l 1,63,0
 477 549 477 549 451 598 c 128,-1,1
EndSplineSet
EndChar

StartChar: Scaron
Encoding: 352 352 49
Width: 485
Flags: W
LayerCount: 2
Fore
SplineSet
163 827 m 128,-1,1
 121 865 121 865 87 911 c 1,2,3
 120 913 120 913 137.5 914 c 128,-1,4
 155 915 155 915 164.5 915.5 c 128,-1,5
 174 916 174 916 179.5 916 c 128,-1,6
 185 916 185 916 194 915 c 0,7,8
 198 914 198 914 205 907 c 128,-1,9
 212 900 212 900 220 891.5 c 128,-1,10
 228 883 228 883 235 875.5 c 128,-1,11
 242 868 242 868 246 866 c 0,12,13
 251 869 251 869 258 877 c 128,-1,14
 265 885 265 885 272.5 893.5 c 128,-1,15
 280 902 280 902 287 908.5 c 128,-1,16
 294 915 294 915 297 915 c 0,17,18
 321 918 321 918 341.5 917 c 128,-1,19
 362 916 362 916 377.5 914 c 128,-1,20
 393 912 393 912 402 910.5 c 128,-1,21
 411 909 411 909 412 910 c 1,22,-1
 249 748 l 1,23,0
 205 789 205 789 163 827 c 128,-1,1
404 598 m 128,-1,25
 378 647 378 647 330 672 c 0,26,27
 306 683 306 683 277.5 690 c 128,-1,28
 249 697 249 697 219.5 698.5 c 128,-1,29
 190 700 190 700 161 696.5 c 128,-1,30
 132 693 132 693 108 683 c 0,31,32
 60 663 60 663 26.5 622 c 128,-1,33
 -7 581 -7 581 -19 531 c 128,-1,34
 -31 481 -31 481 -17.5 428 c 128,-1,35
 -4 375 -4 375 42 331 c 0,36,37
 56 319 56 319 73 310 c 128,-1,38
 90 301 90 301 110 297 c 0,39,40
 131 293 131 293 155 288.5 c 128,-1,41
 179 284 179 284 199.5 275 c 128,-1,42
 220 266 220 266 235 251.5 c 128,-1,43
 250 237 250 237 253 213 c 0,44,45
 259 178 259 178 239.5 161 c 128,-1,46
 220 144 220 144 193.5 143.5 c 128,-1,47
 167 143 167 143 143.5 159 c 128,-1,48
 120 175 120 175 118 207 c 1,49,50
 84 206 84 206 42 208.5 c 128,-1,51
 0 211 0 211 -35 206 c 1,52,-1
 -35 203 l 1,53,-1
 -35 200 l 2,54,55
 -38 152 -38 152 -18 114.5 c 128,-1,56
 2 77 2 77 36 51 c 128,-1,57
 70 25 70 25 113.5 10.5 c 128,-1,58
 157 -4 157 -4 201 -5 c 0,59,60
 232 -6 232 -6 261.5 0.5 c 128,-1,61
 291 7 291 7 316.5 21 c 128,-1,62
 342 35 342 35 362 57 c 128,-1,63
 382 79 382 79 394 110 c 0,64,65
 406 136 406 136 411.5 164.5 c 128,-1,66
 417 193 417 193 415.5 221 c 128,-1,67
 414 249 414 249 405 275.5 c 128,-1,68
 396 302 396 302 378 325 c 0,69,70
 349 368 349 368 303.5 396 c 128,-1,71
 258 424 258 424 205 430 c 0,72,73
 184 433 184 433 166 441 c 128,-1,74
 148 449 148 449 140 473 c 0,75,76
 139 480 139 480 138.5 486.5 c 128,-1,77
 138 493 138 493 140 500 c 0,78,79
 144 528 144 528 166.5 538 c 128,-1,80
 189 548 189 548 213 543 c 128,-1,81
 237 538 237 538 254 520 c 128,-1,82
 271 502 271 502 265 475 c 1,83,84
 300 465 300 465 340 466.5 c 128,-1,85
 380 468 380 468 415 474 c 1,86,-1
 416 474 l 1,87,24
 430 549 430 549 404 598 c 128,-1,25
EndSplineSet
EndChar

StartChar: T
Encoding: 84 84 50
Width: 443
Flags: W
LayerCount: 2
Fore
SplineSet
220.5 705.5 m 128,-1,1
 112 705 112 705 10 704 c 0,2,3
 10 703 10 703 10.5 703 c 128,-1,4
 11 703 11 703 11 702 c 0,5,6
 9 678 9 678 9 652 c 128,-1,7
 9 626 9 626 9.5 603.5 c 128,-1,8
 10 581 10 581 11.5 565 c 128,-1,9
 13 549 13 549 15 545 c 0,10,11
 21 543 21 543 36 543 c 128,-1,12
 51 543 51 543 69 542.5 c 128,-1,13
 87 542 87 542 105 540.5 c 128,-1,14
 123 539 123 539 135 533 c 1,15,-1
 136 532 l 1,16,17
 142 392 142 392 143.5 293 c 128,-1,18
 145 194 145 194 144.5 130.5 c 128,-1,19
 144 67 144 67 143 35 c 128,-1,20
 142 3 142 3 143 -1 c 1,21,22
 161 2 161 2 182 2 c 128,-1,23
 203 2 203 2 224.5 2 c 128,-1,24
 246 2 246 2 267.5 2.5 c 128,-1,25
 289 3 289 3 307 6 c 1,26,-1
 307 7 l 1,27,-1
 307 8 l 2,28,29
 305 117 305 117 304 197.5 c 128,-1,30
 303 278 303 278 302 335.5 c 128,-1,31
 301 393 301 393 300.5 429.5 c 128,-1,32
 300 466 300 466 300 488.5 c 128,-1,33
 300 511 300 511 300.5 521.5 c 128,-1,34
 301 532 301 532 302 537 c 0,35,36
 302 538 302 538 302.5 538.5 c 128,-1,37
 303 539 303 539 303 540 c 1,38,-1
 304 540 l 1,39,-1
 306 540 l 2,40,41
 353 542 353 542 381 543 c 128,-1,42
 409 544 409 544 428 540 c 1,43,44
 433 576 433 576 433.5 619 c 128,-1,45
 434 662 434 662 432 695 c 1,46,0
 329 706 329 706 220.5 705.5 c 128,-1,1
EndSplineSet
EndChar

StartChar: U
Encoding: 85 85 51
Width: 505
Flags: W
LayerCount: 2
Fore
SplineSet
438 678 m 128,-1,1
 419 680 419 680 398 679 c 128,-1,2
 377 678 377 678 356.5 675.5 c 128,-1,3
 336 673 336 673 323 672 c 1,4,5
 320 556 320 556 319.5 432 c 128,-1,6
 319 308 319 308 314 188 c 1,7,8
 309 165 309 165 292 152 c 128,-1,9
 275 139 275 139 255 138 c 128,-1,10
 235 137 235 137 216.5 148 c 128,-1,11
 198 159 198 159 191 183 c 1,12,13
 171 432 171 432 182 674 c 1,14,-1
 182 675 l 1,15,16
 167 679 167 679 149 680.5 c 128,-1,17
 131 682 131 682 112 682 c 128,-1,18
 93 682 93 682 74.5 681 c 128,-1,19
 56 680 56 680 41 680 c 2,20,-1
 40 680 l 1,21,-1
 41 679 l 1,22,23
 43 547 43 547 40 413 c 128,-1,24
 37 279 37 279 37 147 c 0,25,26
 39 101 39 101 63.5 68.5 c 128,-1,27
 88 36 88 36 124.5 16.5 c 128,-1,28
 161 -3 161 -3 206 -10.5 c 128,-1,29
 251 -18 251 -18 293 -14 c 0,30,31
 365 -7 365 -7 407 39 c 128,-1,32
 449 85 449 85 457 151 c 0,33,34
 471 280 471 280 473 410.5 c 128,-1,35
 475 541 475 541 469 669 c 1,36,0
 457 676 457 676 438 678 c 128,-1,1
EndSplineSet
EndChar

StartChar: Uacute
Encoding: 218 218 52
Width: 505
Flags: W
LayerCount: 2
Fore
SplineSet
437.5 678.5 m 128,-1,1
 418 680 418 680 397 678.5 c 128,-1,2
 376 677 376 677 356 675 c 128,-1,3
 336 673 336 673 323 672 c 1,4,5
 320 556 320 556 319.5 432 c 128,-1,6
 319 308 319 308 314 188 c 1,7,8
 309 165 309 165 292 152 c 128,-1,9
 275 139 275 139 255 138 c 128,-1,10
 235 137 235 137 216.5 148 c 128,-1,11
 198 159 198 159 191 183 c 1,12,13
 171 432 171 432 182 674 c 1,14,-1
 182 675 l 1,15,16
 167 679 167 679 149 680.5 c 128,-1,17
 131 682 131 682 112 682 c 128,-1,18
 93 682 93 682 74.5 681 c 128,-1,19
 56 680 56 680 41 680 c 2,20,-1
 40 680 l 1,21,-1
 41 679 l 1,22,23
 43 547 43 547 40 413 c 128,-1,24
 37 279 37 279 37 147 c 0,25,26
 39 101 39 101 63.5 68.5 c 128,-1,27
 88 36 88 36 124.5 16.5 c 128,-1,28
 161 -3 161 -3 206 -10.5 c 128,-1,29
 251 -18 251 -18 293 -14 c 0,30,31
 365 -7 365 -7 407 39 c 128,-1,32
 449 85 449 85 457 151 c 0,33,34
 471 280 471 280 473 410.5 c 128,-1,35
 475 541 475 541 469 669 c 1,36,-1
 469 670 l 1,37,0
 457 677 457 677 437.5 678.5 c 128,-1,1
310 882.5 m 128,-1,39
 288 862 288 862 265.5 838.5 c 128,-1,40
 243 815 243 815 221.5 792.5 c 128,-1,41
 200 770 200 770 183 754 c 1,42,43
 190 752 190 752 205.5 750.5 c 128,-1,44
 221 749 221 749 240.5 748 c 128,-1,45
 260 747 260 747 280.5 747.5 c 128,-1,46
 301 748 301 748 317 750 c 1,47,48
 321 758 321 758 335 771 c 128,-1,49
 349 784 349 784 365 798.5 c 128,-1,50
 381 813 381 813 396 826 c 128,-1,51
 411 839 411 839 418 846 c 2,52,-1
 419 847 l 1,53,-1
 350 917 l 1,54,38
 332 903 332 903 310 882.5 c 128,-1,39
EndSplineSet
EndChar

StartChar: Ucircumflex
Encoding: 219 219 53
Width: 505
Flags: W
LayerCount: 2
Fore
SplineSet
162 839 m 128,-1,1
 120 801 120 801 86 755 c 1,2,3
 119 753 119 753 136.5 752 c 128,-1,4
 154 751 154 751 163.5 750.5 c 128,-1,5
 173 750 173 750 178.5 750 c 128,-1,6
 184 750 184 750 193 751 c 0,7,8
 197 752 197 752 204 759 c 128,-1,9
 211 766 211 766 219 774.5 c 128,-1,10
 227 783 227 783 234 790.5 c 128,-1,11
 241 798 241 798 245 800 c 0,12,13
 250 797 250 797 257 789 c 128,-1,14
 264 781 264 781 271.5 772.5 c 128,-1,15
 279 764 279 764 286 757.5 c 128,-1,16
 293 751 293 751 296 751 c 0,17,18
 320 748 320 748 340.5 749 c 128,-1,19
 361 750 361 750 376.5 752 c 128,-1,20
 392 754 392 754 401 755.5 c 128,-1,21
 410 757 410 757 411 756 c 1,22,-1
 248 918 l 1,23,0
 204 877 204 877 162 839 c 128,-1,1
437.5 678.5 m 128,-1,25
 418 680 418 680 397 678.5 c 128,-1,26
 376 677 376 677 356 675 c 128,-1,27
 336 673 336 673 323 672 c 1,28,29
 320 556 320 556 319.5 432 c 128,-1,30
 319 308 319 308 314 188 c 1,31,32
 309 165 309 165 292 152 c 128,-1,33
 275 139 275 139 255 138 c 128,-1,34
 235 137 235 137 216.5 148 c 128,-1,35
 198 159 198 159 191 183 c 1,36,37
 171 432 171 432 182 674 c 1,38,-1
 182 675 l 1,39,40
 167 679 167 679 149 680.5 c 128,-1,41
 131 682 131 682 112 682 c 128,-1,42
 93 682 93 682 74.5 681 c 128,-1,43
 56 680 56 680 41 680 c 2,44,-1
 40 680 l 1,45,-1
 41 679 l 1,46,47
 43 547 43 547 40 413 c 128,-1,48
 37 279 37 279 37 147 c 0,49,50
 39 101 39 101 63.5 68.5 c 128,-1,51
 88 36 88 36 124.5 16.5 c 128,-1,52
 161 -3 161 -3 206 -10.5 c 128,-1,53
 251 -18 251 -18 293 -14 c 0,54,55
 365 -7 365 -7 407 39 c 128,-1,56
 449 85 449 85 457 151 c 0,57,58
 471 280 471 280 473 410.5 c 128,-1,59
 475 541 475 541 469 669 c 1,60,-1
 469 670 l 1,61,24
 457 677 457 677 437.5 678.5 c 128,-1,25
EndSplineSet
EndChar

StartChar: Udieresis
Encoding: 220 220 54
Width: 505
Flags: W
LayerCount: 2
Fore
SplineSet
214 758 m 1,0,-1
 214 759 l 1,1,-1
 214 760 l 2,2,3
 214 767 214 767 215 783 c 128,-1,4
 216 799 216 799 217 816.5 c 128,-1,5
 218 834 218 834 219 847 c 128,-1,6
 220 860 220 860 220 861 c 0,7,8
 213 864 213 864 198.5 865.5 c 128,-1,9
 184 867 184 867 167.5 867 c 128,-1,10
 151 867 151 867 135.5 865 c 128,-1,11
 120 863 120 863 111 860 c 1,12,13
 111 854 111 854 110.5 841 c 128,-1,14
 110 828 110 828 109.5 813 c 128,-1,15
 109 798 109 798 109.5 783.5 c 128,-1,16
 110 769 110 769 112 759 c 1,17,-1
 115 759 l 1,18,-1
 212 758 l 1,19,-1
 214 758 l 1,0,-1
388 758 m 1,20,-1
 388 759 l 1,21,-1
 388 760 l 2,22,23
 388 767 388 767 389 783 c 128,-1,24
 390 799 390 799 391 816.5 c 128,-1,25
 392 834 392 834 393 847 c 128,-1,26
 394 860 394 860 394 861 c 0,27,28
 387 864 387 864 372.5 865.5 c 128,-1,29
 358 867 358 867 341.5 867 c 128,-1,30
 325 867 325 867 309.5 865 c 128,-1,31
 294 863 294 863 285 860 c 1,32,33
 285 854 285 854 284.5 841 c 128,-1,34
 284 828 284 828 283.5 813 c 128,-1,35
 283 798 283 798 283.5 783.5 c 128,-1,36
 284 769 284 769 286 759 c 1,37,-1
 289 759 l 1,38,-1
 386 758 l 1,39,-1
 388 758 l 1,20,-1
437.5 678.5 m 128,-1,41
 418 680 418 680 397 678.5 c 128,-1,42
 376 677 376 677 356 675 c 128,-1,43
 336 673 336 673 323 672 c 1,44,45
 320 556 320 556 319.5 432 c 128,-1,46
 319 308 319 308 314 188 c 1,47,48
 309 165 309 165 292 152 c 128,-1,49
 275 139 275 139 255 138 c 128,-1,50
 235 137 235 137 216.5 148 c 128,-1,51
 198 159 198 159 191 183 c 1,52,53
 171 432 171 432 182 674 c 1,54,-1
 182 675 l 1,55,56
 167 679 167 679 149 680.5 c 128,-1,57
 131 682 131 682 112 682 c 128,-1,58
 93 682 93 682 74.5 681 c 128,-1,59
 56 680 56 680 41 680 c 2,60,-1
 40 680 l 1,61,-1
 41 679 l 1,62,63
 43 547 43 547 40 413 c 128,-1,64
 37 279 37 279 37 147 c 0,65,66
 39 101 39 101 63.5 68.5 c 128,-1,67
 88 36 88 36 124.5 16.5 c 128,-1,68
 161 -3 161 -3 206 -10.5 c 128,-1,69
 251 -18 251 -18 293 -14 c 0,70,71
 365 -7 365 -7 407 39 c 128,-1,72
 449 85 449 85 457 151 c 0,73,74
 471 280 471 280 473 410.5 c 128,-1,75
 475 541 475 541 469 669 c 1,76,-1
 469 670 l 1,77,40
 457 677 457 677 437.5 678.5 c 128,-1,41
EndSplineSet
EndChar

StartChar: Ugrave
Encoding: 217 217 55
Width: 505
Flags: W
LayerCount: 2
Fore
SplineSet
96 846 m 2,0,1
 103 839 103 839 118 826 c 128,-1,2
 133 813 133 813 149 798.5 c 128,-1,3
 165 784 165 784 178.5 771 c 128,-1,4
 192 758 192 758 197 750 c 1,5,6
 213 748 213 748 233 747.5 c 128,-1,7
 253 747 253 747 272.5 748 c 128,-1,8
 292 749 292 749 308 750.5 c 128,-1,9
 324 752 324 752 331 754 c 1,10,11
 314 770 314 770 292.5 792.5 c 128,-1,12
 271 815 271 815 248.5 838.5 c 128,-1,13
 226 862 226 862 204 882.5 c 128,-1,14
 182 903 182 903 164 917 c 1,15,-1
 95 847 l 1,16,-1
 96 846 l 2,0,1
437.5 678.5 m 128,-1,18
 418 680 418 680 397 678.5 c 128,-1,19
 376 677 376 677 356 675 c 128,-1,20
 336 673 336 673 323 672 c 1,21,22
 320 556 320 556 319.5 432 c 128,-1,23
 319 308 319 308 314 188 c 1,24,25
 309 165 309 165 292 152 c 128,-1,26
 275 139 275 139 255 138 c 128,-1,27
 235 137 235 137 216.5 148 c 128,-1,28
 198 159 198 159 191 183 c 1,29,30
 171 432 171 432 182 674 c 1,31,-1
 182 675 l 1,32,33
 167 679 167 679 149 680.5 c 128,-1,34
 131 682 131 682 112 682 c 128,-1,35
 93 682 93 682 74.5 681 c 128,-1,36
 56 680 56 680 41 680 c 2,37,-1
 40 680 l 1,38,-1
 41 679 l 1,39,40
 43 547 43 547 40 413 c 128,-1,41
 37 279 37 279 37 147 c 0,42,43
 39 101 39 101 63.5 68.5 c 128,-1,44
 88 36 88 36 124.5 16.5 c 128,-1,45
 161 -3 161 -3 206 -10.5 c 128,-1,46
 251 -18 251 -18 293 -14 c 0,47,48
 365 -7 365 -7 407 39 c 128,-1,49
 449 85 449 85 457 151 c 0,50,51
 471 280 471 280 473 410.5 c 128,-1,52
 475 541 475 541 469 669 c 1,53,-1
 469 670 l 1,54,17
 457 677 457 677 437.5 678.5 c 128,-1,18
EndSplineSet
EndChar

StartChar: V
Encoding: 86 86 56
Width: 440
Flags: W
LayerCount: 2
Fore
SplineSet
409.5 687.5 m 128,-1,1
 391 688 391 688 372.5 688 c 128,-1,2
 354 688 354 688 336 688.5 c 128,-1,3
 318 689 318 689 301 693 c 0,4,5
 299 693 299 693 299 691 c 0,6,7
 288 649 288 649 280 601 c 128,-1,8
 272 553 272 553 263 496 c 128,-1,9
 254 439 254 439 242 371.5 c 128,-1,10
 230 304 230 304 211 223 c 1,11,12
 191 304 191 304 181.5 380 c 128,-1,13
 172 456 172 456 168 519 c 128,-1,14
 164 582 164 582 163 627 c 128,-1,15
 162 672 162 672 158 692 c 1,16,17
 150 694 150 694 129 695 c 128,-1,18
 108 696 108 696 85 695.5 c 128,-1,19
 62 695 62 695 42 692 c 128,-1,20
 22 689 22 689 16 682 c 1,21,-1
 16 681 l 1,22,23
 30 508 30 508 59 337.5 c 128,-1,24
 88 167 88 167 133 5 c 1,25,26
 149 0 149 0 171.5 -1.5 c 128,-1,27
 194 -3 194 -3 216 -3 c 0,28,29
 237 -3 237 -3 254 -1 c 128,-1,30
 271 1 271 1 279 1 c 1,31,32
 303 88 303 88 325 172.5 c 128,-1,33
 347 257 347 257 368 341 c 128,-1,34
 389 425 389 425 408.5 510 c 128,-1,35
 428 595 428 595 445 684 c 1,36,0
 428 687 428 687 409.5 687.5 c 128,-1,1
EndSplineSet
EndChar

StartChar: W
Encoding: 87 87 57
Width: 465
Flags: W
LayerCount: 2
Fore
SplineSet
378 700 m 0,1,2
 360 700 360 700 342 699 c 128,-1,3
 324 698 324 698 307 694 c 1,4,-1
 307 693 l 1,5,6
 303 649 303 649 301.5 593.5 c 128,-1,7
 300 538 300 538 298.5 480 c 128,-1,8
 297 422 297 422 295 366.5 c 128,-1,9
 293 311 293 311 289 268 c 1,10,11
 283 283 283 283 275.5 314 c 128,-1,12
 268 345 268 345 260.5 377 c 128,-1,13
 253 409 253 409 245.5 434.5 c 128,-1,14
 238 460 238 460 234 463 c 0,15,16
 233 462 233 462 233 461 c 128,-1,17
 233 460 233 460 232 458 c 0,18,19
 221 413 221 413 210.5 369.5 c 128,-1,20
 200 326 200 326 187 281 c 1,21,22
 176 324 176 324 173 378 c 128,-1,23
 170 432 170 432 170 488 c 128,-1,24
 170 544 170 544 170 599 c 128,-1,25
 170 654 170 654 166 698 c 1,26,27
 148 699 148 699 128 700 c 128,-1,28
 108 701 108 701 88 701 c 0,29,30
 71 701 71 701 54.5 699.5 c 128,-1,31
 38 698 38 698 23 696 c 1,32,-1
 23 695 l 2,33,34
 26 522 26 522 49 349 c 128,-1,35
 72 176 72 176 96 5 c 1,36,-1
 97 5 l 2,37,38
 119 2 119 2 135 2 c 0,39,40
 149 2 149 2 160 3.5 c 128,-1,41
 171 5 171 5 184 7 c 1,42,43
 192 20 192 20 198 44 c 128,-1,44
 204 68 204 68 210 93.5 c 128,-1,45
 216 119 216 119 222.5 141.5 c 128,-1,46
 229 164 229 164 238 173 c 1,47,-1
 239 173 l 1,48,49
 248 159 248 159 255 135 c 128,-1,50
 262 111 262 111 269 85.5 c 128,-1,51
 276 60 276 60 282.5 37.5 c 128,-1,52
 289 15 289 15 298 3 c 1,53,-1
 310 3 l 1,54,-1
 346 3 l 2,55,56
 356 3 356 3 364.5 3 c 128,-1,57
 373 3 373 3 380 5 c 1,58,59
 394 179 394 179 412.5 351 c 128,-1,60
 431 523 431 523 446 696 c 1,61,-1
 445 697 l 1,62,0
 412 700 412 700 378 700 c 0,1,2
EndSplineSet
EndChar

StartChar: X
Encoding: 88 88 58
Width: 436
Flags: W
LayerCount: 2
Fore
SplineSet
439.5 699 m 128,-1,1
 440 699 440 699 440 700 c 1,2,-1
 439 700 l 2,3,4
 382 700 382 700 347 699 c 128,-1,5
 312 698 312 698 286 696 c 1,6,-1
 286 695 l 1,7,8
 279 673 279 673 271 642 c 128,-1,9
 263 611 263 611 254 579 c 128,-1,10
 245 547 245 547 235.5 517 c 128,-1,11
 226 487 226 487 217 467 c 1,12,13
 210 486 210 486 201.5 515.5 c 128,-1,14
 193 545 193 545 184 576 c 128,-1,15
 175 607 175 607 166 637 c 128,-1,16
 157 667 157 667 151 688 c 0,17,18
 148 693 148 693 137 693 c 128,-1,19
 126 693 126 693 99 693 c 0,20,21
 81 693 81 693 56 692 c 128,-1,22
 31 691 31 691 -1 689 c 1,23,24
 32 604 32 604 64 519.5 c 128,-1,25
 96 435 96 435 113 347 c 1,26,27
 104 305 104 305 90 261 c 128,-1,28
 76 217 76 217 61.5 173.5 c 128,-1,29
 47 130 47 130 33 88 c 128,-1,30
 19 46 19 46 9 9 c 1,31,32
 28 2 28 2 51.5 1 c 128,-1,33
 75 0 75 0 98 0 c 0,34,35
 110 0 110 0 122 0.5 c 128,-1,36
 134 1 134 1 145 2 c 1,37,38
 157 27 157 27 165.5 55.5 c 128,-1,39
 174 84 174 84 182 113.5 c 128,-1,40
 190 143 190 143 198.5 172.5 c 128,-1,41
 207 202 207 202 220 231 c 1,42,-1
 221 230 l 1,43,44
 233 206 233 206 240.5 177 c 128,-1,45
 248 148 248 148 255 118 c 128,-1,46
 262 88 262 88 270 59 c 128,-1,47
 278 30 278 30 289 6 c 1,48,-1
 290 5 l 1,49,50
 309 1 309 1 334 1 c 0,51,52
 351 1 351 1 366.5 2 c 128,-1,53
 382 3 382 3 398 3 c 0,54,55
 405 3 405 3 411 3 c 128,-1,56
 417 3 417 3 424 2 c 1,57,58
 414 43 414 43 401 85.5 c 128,-1,59
 388 128 388 128 375 170.5 c 128,-1,60
 362 213 362 213 350 256 c 128,-1,61
 338 299 338 299 331 341 c 1,62,63
 338 387 338 387 350.5 432.5 c 128,-1,64
 363 478 363 478 378 522.5 c 128,-1,65
 393 567 393 567 409 610.5 c 128,-1,66
 425 654 425 654 439 698 c 0,67,0
 439 699 439 699 439.5 699 c 128,-1,1
EndSplineSet
EndChar

StartChar: Y
Encoding: 89 89 59
Width: 435
Flags: W
LayerCount: 2
Fore
SplineSet
434 694.5 m 128,-1,1
 424 695 424 695 412 695 c 0,2,3
 386 695 386 695 355.5 693.5 c 128,-1,4
 325 692 325 692 307 688 c 1,5,6
 298 668 298 668 288 638 c 128,-1,7
 278 608 278 608 267.5 577 c 128,-1,8
 257 546 257 546 246.5 517.5 c 128,-1,9
 236 489 236 489 226 471 c 1,10,11
 217 490 217 490 205.5 518 c 128,-1,12
 194 546 194 546 183.5 577 c 128,-1,13
 173 608 173 608 163.5 638 c 128,-1,14
 154 668 154 668 149 690 c 1,15,16
 138 695 138 695 126 696.5 c 128,-1,17
 114 698 114 698 102 698 c 0,18,19
 80 698 80 698 58 695 c 128,-1,20
 36 692 36 692 16 692 c 1,21,22
 26 650 26 650 43 607 c 128,-1,23
 60 564 60 564 78.5 521 c 128,-1,24
 97 478 97 478 114 434.5 c 128,-1,25
 131 391 131 391 142 347 c 1,26,-1
 142 345 l 1,27,28
 107 257 107 257 72 168.5 c 128,-1,29
 37 80 37 80 11 -1 c 1,30,-1
 13 -1 l 2,31,32
 19 -2 19 -2 25 -2 c 128,-1,33
 31 -2 31 -2 37 -2 c 0,34,35
 60 -2 60 -2 85 -0.5 c 128,-1,36
 110 1 110 1 131 1 c 0,37,38
 138 1 138 1 144 1 c 128,-1,39
 150 1 150 1 156 0 c 1,40,41
 186 88 186 88 225 173.5 c 128,-1,42
 264 259 264 259 305 344.5 c 128,-1,43
 346 430 346 430 384 516 c 128,-1,44
 422 602 422 602 450 692 c 1,45,-1
 450 693 l 1,46,0
 444 694 444 694 434 694.5 c 128,-1,1
EndSplineSet
EndChar

StartChar: Yacute
Encoding: 221 221 60
Width: 434
Flags: W
LayerCount: 2
Fore
SplineSet
421 691 m 128,-1,1
 403 691 403 691 382.5 690.5 c 128,-1,2
 362 690 362 690 342 688.5 c 128,-1,3
 322 687 322 687 308 685 c 0,4,5
 306 684 306 684 306 684 c 1,6,7
 289 643 289 643 268 596 c 128,-1,8
 247 549 247 549 227 513 c 1,9,10
 208 551 208 551 193.5 596 c 128,-1,11
 179 641 179 641 168 686 c 1,12,13
 153 692 153 692 133 693 c 128,-1,14
 113 694 113 694 92.5 693 c 128,-1,15
 72 692 72 692 52 690 c 128,-1,16
 32 688 32 688 16 688 c 1,17,18
 26 646 26 646 43 603 c 128,-1,19
 60 560 60 560 78.5 517.5 c 128,-1,20
 97 475 97 475 113.5 431.5 c 128,-1,21
 130 388 130 388 141 344 c 1,22,-1
 141 342 l 1,23,24
 107 255 107 255 72 167 c 128,-1,25
 37 79 37 79 11 -2 c 1,26,-1
 13 -2 l 2,27,28
 48 -4 48 -4 88 -1 c 128,-1,29
 128 2 128 2 155 -1 c 1,30,31
 185 87 185 87 224 172 c 128,-1,32
 263 257 263 257 303.5 342 c 128,-1,33
 344 427 344 427 382 513 c 128,-1,34
 420 599 420 599 448 688 c 1,35,-1
 448 689 l 1,36,0
 439 691 439 691 421 691 c 128,-1,1
276 882.5 m 128,-1,38
 254 862 254 862 231.5 838.5 c 128,-1,39
 209 815 209 815 187.5 792.5 c 128,-1,40
 166 770 166 770 149 754 c 1,41,42
 156 752 156 752 171.5 750.5 c 128,-1,43
 187 749 187 749 206.5 748 c 128,-1,44
 226 747 226 747 246.5 747.5 c 128,-1,45
 267 748 267 748 283 750 c 1,46,47
 287 758 287 758 301 771 c 128,-1,48
 315 784 315 784 331 798.5 c 128,-1,49
 347 813 347 813 362 826 c 128,-1,50
 377 839 377 839 384 846 c 2,51,-1
 385 847 l 1,52,-1
 316 917 l 1,53,37
 298 903 298 903 276 882.5 c 128,-1,38
EndSplineSet
EndChar

StartChar: Ydieresis
Encoding: 376 376 61
Width: 434
Flags: W
LayerCount: 2
Fore
SplineSet
421 691 m 128,-1,1
 403 691 403 691 382.5 690.5 c 128,-1,2
 362 690 362 690 342 688.5 c 128,-1,3
 322 687 322 687 308 685 c 0,4,5
 306 684 306 684 306 684 c 1,6,7
 289 643 289 643 268 596 c 128,-1,8
 247 549 247 549 227 513 c 1,9,10
 208 551 208 551 193.5 596 c 128,-1,11
 179 641 179 641 168 686 c 1,12,13
 153 692 153 692 133 693 c 128,-1,14
 113 694 113 694 92.5 693 c 128,-1,15
 72 692 72 692 52 690 c 128,-1,16
 32 688 32 688 16 688 c 1,17,18
 26 646 26 646 43 603 c 128,-1,19
 60 560 60 560 78.5 517.5 c 128,-1,20
 97 475 97 475 113.5 431.5 c 128,-1,21
 130 388 130 388 141 344 c 1,22,-1
 141 342 l 1,23,24
 107 255 107 255 72 167 c 128,-1,25
 37 79 37 79 11 -2 c 1,26,-1
 13 -2 l 2,27,28
 48 -4 48 -4 88 -1 c 128,-1,29
 128 2 128 2 155 -1 c 1,30,31
 185 87 185 87 224 172 c 128,-1,32
 263 257 263 257 303.5 342 c 128,-1,33
 344 427 344 427 382 513 c 128,-1,34
 420 599 420 599 448 688 c 1,35,-1
 448 689 l 1,36,0
 439 691 439 691 421 691 c 128,-1,1
192 758 m 1,37,-1
 192 759 l 1,38,-1
 192 760 l 2,39,40
 192 767 192 767 193 783 c 128,-1,41
 194 799 194 799 195 816.5 c 128,-1,42
 196 834 196 834 197 847 c 128,-1,43
 198 860 198 860 198 861 c 0,44,45
 191 864 191 864 176.5 865.5 c 128,-1,46
 162 867 162 867 145.5 867 c 128,-1,47
 129 867 129 867 113.5 865 c 128,-1,48
 98 863 98 863 89 860 c 1,49,50
 89 854 89 854 88.5 841 c 128,-1,51
 88 828 88 828 87.5 813 c 128,-1,52
 87 798 87 798 87.5 783.5 c 128,-1,53
 88 769 88 769 90 759 c 1,54,-1
 93 759 l 1,55,-1
 190 758 l 1,56,-1
 192 758 l 1,37,-1
366 758 m 1,57,-1
 366 759 l 1,58,-1
 366 760 l 2,59,60
 366 767 366 767 367 783 c 128,-1,61
 368 799 368 799 369 816.5 c 128,-1,62
 370 834 370 834 371 847 c 128,-1,63
 372 860 372 860 372 861 c 0,64,65
 365 864 365 864 350.5 865.5 c 128,-1,66
 336 867 336 867 319.5 867 c 128,-1,67
 303 867 303 867 287.5 865 c 128,-1,68
 272 863 272 863 263 860 c 1,69,70
 263 854 263 854 262.5 841 c 128,-1,71
 262 828 262 828 261.5 813 c 128,-1,72
 261 798 261 798 261.5 783.5 c 128,-1,73
 262 769 262 769 264 759 c 1,74,-1
 267 759 l 1,75,-1
 364 758 l 1,76,-1
 366 758 l 1,57,-1
EndSplineSet
EndChar

StartChar: Z
Encoding: 90 90 62
Width: 474
Flags: W
LayerCount: 2
Fore
SplineSet
453 614 m 128,-1,1
 456 655 456 655 451 694 c 1,2,3
 336 695 336 695 226 697.5 c 128,-1,4
 116 700 116 700 13 690 c 1,5,6
 15 688 15 688 15 686 c 2,7,-1
 15 685 l 1,8,9
 20 669 20 669 20.5 649.5 c 128,-1,10
 21 630 21 630 21 611 c 128,-1,11
 21 592 21 592 22 575 c 128,-1,12
 23 558 23 558 29 548 c 1,13,14
 47 548 47 548 78.5 546.5 c 128,-1,15
 110 545 110 545 145 543.5 c 128,-1,16
 180 542 180 542 213.5 540 c 128,-1,17
 247 538 247 538 270 535 c 1,18,19
 241 494 241 494 207.5 448 c 128,-1,20
 174 402 174 402 140.5 354 c 128,-1,21
 107 306 107 306 77 257 c 128,-1,22
 47 208 47 208 25 159 c 1,23,24
 27 138 27 138 26.5 117.5 c 128,-1,25
 26 97 26 97 26 76.5 c 128,-1,26
 26 56 26 56 27 36.5 c 128,-1,27
 28 17 28 17 34 -1 c 1,28,29
 141 5 141 5 244.5 4 c 128,-1,30
 348 3 348 3 443 -2 c 1,31,-1
 443 0 l 2,32,33
 446 36 446 36 448 79 c 128,-1,34
 450 122 450 122 445 160 c 1,35,-1
 445 163 l 1,36,37
 402 161 402 161 372.5 160.5 c 128,-1,38
 343 160 343 160 316.5 159.5 c 128,-1,39
 290 159 290 159 261.5 157 c 128,-1,40
 233 155 233 155 193 150 c 1,41,-1
 194 151 l 1,42,43
 257 248 257 248 325 342 c 128,-1,44
 393 436 393 436 451 534 c 1,45,-1
 451 535 l 2,46,0
 450 573 450 573 453 614 c 128,-1,1
EndSplineSet
EndChar

StartChar: Zcaron
Encoding: 381 381 63
Width: 474
Flags: W
LayerCount: 2
Fore
SplineSet
159 827 m 132,-1,1
 117 865 117 865 83 911 c 5,2,3
 116 913 116 913 133.5 914 c 132,-1,4
 151 915 151 915 160.5 915.5 c 132,-1,5
 170 916 170 916 175.5 916 c 132,-1,6
 181 916 181 916 190 915 c 4,7,8
 194 914 194 914 201 907 c 132,-1,9
 208 900 208 900 216 891.5 c 132,-1,10
 224 883 224 883 231 875.5 c 132,-1,11
 238 868 238 868 242 866 c 4,12,13
 247 869 247 869 254 877 c 132,-1,14
 261 885 261 885 268.5 893.5 c 132,-1,15
 276 902 276 902 283 908.5 c 132,-1,16
 290 915 290 915 293 915 c 4,17,18
 317 918 317 918 337.5 917 c 132,-1,19
 358 916 358 916 373.5 914 c 132,-1,20
 389 912 389 912 398 910.5 c 132,-1,21
 407 909 407 909 408 910 c 5,22,-1
 245 748 l 5,23,0
 201 789 201 789 159 827 c 132,-1,1
438 614 m 128,-1,25
 441 655 441 655 436 694 c 1,26,27
 321 695 321 695 211 697.5 c 128,-1,28
 101 700 101 700 -2 690 c 1,29,30
 0 688 0 688 0 686 c 2,31,-1
 0 685 l 1,32,33
 5 669 5 669 5.5 649.5 c 128,-1,34
 6 630 6 630 6 611 c 128,-1,35
 6 592 6 592 7 575 c 128,-1,36
 8 558 8 558 14 548 c 1,37,38
 32 548 32 548 63.5 546.5 c 128,-1,39
 95 545 95 545 130 543.5 c 128,-1,40
 165 542 165 542 198.5 540 c 128,-1,41
 232 538 232 538 255 535 c 1,42,43
 226 494 226 494 192.5 448 c 128,-1,44
 159 402 159 402 125.5 354 c 128,-1,45
 92 306 92 306 62 257 c 128,-1,46
 32 208 32 208 10 159 c 1,47,48
 12 138 12 138 11.5 117.5 c 128,-1,49
 11 97 11 97 11 76.5 c 128,-1,50
 11 56 11 56 12 36.5 c 128,-1,51
 13 17 13 17 19 -1 c 1,52,53
 126 5 126 5 229.5 4 c 128,-1,54
 333 3 333 3 428 -2 c 1,55,-1
 428 0 l 2,56,57
 431 36 431 36 433 79 c 128,-1,58
 435 122 435 122 430 160 c 1,59,-1
 430 163 l 1,60,61
 387 161 387 161 357.5 160.5 c 128,-1,62
 328 160 328 160 301.5 159.5 c 128,-1,63
 275 159 275 159 246.5 157 c 128,-1,64
 218 155 218 155 178 150 c 1,65,-1
 179 151 l 1,66,67
 242 248 242 248 310 342 c 128,-1,68
 378 436 378 436 436 534 c 1,69,-1
 436 535 l 2,70,24
 435 573 435 573 438 614 c 128,-1,25
EndSplineSet
EndChar

StartChar: a
Encoding: 97 97 64
Width: 476
Flags: W
LayerCount: 2
Fore
SplineSet
382.5 501 m 128,-1,1
 358 502 358 502 341 503 c 0,2,3
 338 503 338 503 330 503 c 128,-1,4
 322 503 322 503 314 503.5 c 128,-1,5
 306 504 306 504 299.5 503.5 c 128,-1,6
 293 503 293 503 293 502 c 0,7,8
 293 490 293 490 290.5 478.5 c 128,-1,9
 288 467 288 467 289 451 c 1,10,11
 282 468 282 468 272 477.5 c 128,-1,12
 262 487 262 487 249 491.5 c 128,-1,13
 236 496 236 496 220.5 496.5 c 128,-1,14
 205 497 205 497 187 497 c 0,15,16
 152 496 152 496 121 478.5 c 128,-1,17
 90 461 90 461 67.5 430.5 c 128,-1,18
 45 400 45 400 32 358 c 128,-1,19
 19 316 19 316 19 266 c 0,20,21
 19 226 19 226 27.5 179 c 128,-1,22
 36 132 36 132 54 92 c 128,-1,23
 72 52 72 52 99.5 25 c 128,-1,24
 127 -2 127 -2 166 -2 c 0,25,26
 201 -2 201 -2 237.5 15 c 128,-1,27
 274 32 274 32 298 56 c 1,28,29
 298 46 298 46 296 39 c 128,-1,30
 294 32 294 32 294 21 c 0,31,32
 294 13 294 13 296.5 7 c 128,-1,33
 299 1 299 1 306 -1 c 0,34,35
 317 -1 317 -1 327.5 0.5 c 128,-1,36
 338 2 338 2 349 2 c 0,37,38
 365 2 365 2 381.5 0.5 c 128,-1,39
 398 -1 398 -1 414 -1 c 2,40,-1
 426 -1 l 2,41,42
 438 1 438 1 438.5 14 c 128,-1,43
 439 27 439 27 439 40 c 0,44,45
 446 147 446 147 442 251.5 c 128,-1,46
 438 356 438 356 441 464 c 2,47,-1
 441 474 l 2,48,49
 441 480 441 480 440.5 486 c 128,-1,50
 440 492 440 492 439 498 c 1,51,0
 407 500 407 500 382.5 501 c 128,-1,1
176.5 343.5 m 128,-1,53
 200 363 200 363 241 363 c 0,54,55
 262 363 262 363 272.5 360 c 128,-1,56
 283 357 283 357 287.5 346 c 128,-1,57
 292 335 292 335 292.5 314.5 c 128,-1,58
 293 294 293 294 293 259 c 0,59,60
 293 231 293 231 292.5 208.5 c 128,-1,61
 292 186 292 186 286.5 170.5 c 128,-1,62
 281 155 281 155 268.5 146.5 c 128,-1,63
 256 138 256 138 231 138 c 0,64,65
 189 138 189 138 165.5 169.5 c 128,-1,66
 142 201 142 201 142 246 c 0,67,68
 142 259 142 259 143 272.5 c 128,-1,69
 144 286 144 286 148 299 c 0,70,52
 153 324 153 324 176.5 343.5 c 128,-1,53
EndSplineSet
EndChar

StartChar: aacute
Encoding: 225 225 65
Width: 476
Flags: W
LayerCount: 2
Fore
SplineSet
382.5 501 m 128,-1,1
 358 502 358 502 341 503 c 0,2,3
 338 503 338 503 330 503 c 128,-1,4
 322 503 322 503 314 503.5 c 128,-1,5
 306 504 306 504 299.5 503.5 c 128,-1,6
 293 503 293 503 293 502 c 0,7,8
 293 490 293 490 290.5 478.5 c 128,-1,9
 288 467 288 467 289 451 c 1,10,11
 282 468 282 468 272 477.5 c 128,-1,12
 262 487 262 487 249 491.5 c 128,-1,13
 236 496 236 496 220.5 496.5 c 128,-1,14
 205 497 205 497 187 497 c 0,15,16
 152 496 152 496 121 478.5 c 128,-1,17
 90 461 90 461 67.5 430.5 c 128,-1,18
 45 400 45 400 32 358 c 128,-1,19
 19 316 19 316 19 266 c 0,20,21
 19 226 19 226 27.5 179 c 128,-1,22
 36 132 36 132 54 92 c 128,-1,23
 72 52 72 52 99.5 25 c 128,-1,24
 127 -2 127 -2 166 -2 c 0,25,26
 201 -2 201 -2 237.5 15 c 128,-1,27
 274 32 274 32 298 56 c 1,28,29
 298 46 298 46 296 39 c 128,-1,30
 294 32 294 32 294 21 c 0,31,32
 294 13 294 13 296.5 7 c 128,-1,33
 299 1 299 1 306 -1 c 0,34,35
 317 -1 317 -1 327.5 0.5 c 128,-1,36
 338 2 338 2 349 2 c 0,37,38
 365 2 365 2 381.5 0.5 c 128,-1,39
 398 -1 398 -1 414 -1 c 2,40,-1
 426 -1 l 2,41,42
 438 1 438 1 438.5 14 c 128,-1,43
 439 27 439 27 439 40 c 0,44,45
 446 147 446 147 442 251.5 c 128,-1,46
 438 356 438 356 441 464 c 2,47,-1
 441 474 l 2,48,49
 441 480 441 480 440.5 486 c 128,-1,50
 440 492 440 492 439 498 c 1,51,0
 407 500 407 500 382.5 501 c 128,-1,1
176.5 343.5 m 128,-1,53
 200 363 200 363 241 363 c 0,54,55
 262 363 262 363 272.5 360 c 128,-1,56
 283 357 283 357 287.5 346 c 128,-1,57
 292 335 292 335 292.5 314.5 c 128,-1,58
 293 294 293 294 293 259 c 0,59,60
 293 231 293 231 292.5 208.5 c 128,-1,61
 292 186 292 186 286.5 170.5 c 128,-1,62
 281 155 281 155 268.5 146.5 c 128,-1,63
 256 138 256 138 231 138 c 0,64,65
 189 138 189 138 165.5 169.5 c 128,-1,66
 142 201 142 201 142 246 c 0,67,68
 142 259 142 259 143 272.5 c 128,-1,69
 144 286 144 286 148 299 c 0,70,52
 153 324 153 324 176.5 343.5 c 128,-1,53
286 719.5 m 128,-1,72
 264 699 264 699 241.5 675.5 c 128,-1,73
 219 652 219 652 197.5 629.5 c 128,-1,74
 176 607 176 607 159 591 c 1,75,76
 166 589 166 589 181.5 587.5 c 128,-1,77
 197 586 197 586 216.5 585 c 128,-1,78
 236 584 236 584 256.5 584.5 c 128,-1,79
 277 585 277 585 293 587 c 1,80,81
 297 595 297 595 311 608 c 128,-1,82
 325 621 325 621 341 635.5 c 128,-1,83
 357 650 357 650 372 663 c 128,-1,84
 387 676 387 676 394 683 c 2,85,-1
 395 684 l 1,86,-1
 326 754 l 1,87,71
 308 740 308 740 286 719.5 c 128,-1,72
EndSplineSet
EndChar

StartChar: acircumflex
Encoding: 226 226 66
Width: 476
Flags: W
LayerCount: 2
Fore
SplineSet
166 678 m 128,-1,1
 124 640 124 640 90 594 c 1,2,3
 123 592 123 592 140.5 591 c 128,-1,4
 158 590 158 590 167.5 589.5 c 128,-1,5
 177 589 177 589 182.5 589 c 128,-1,6
 188 589 188 589 197 590 c 0,7,8
 201 591 201 591 208 598 c 128,-1,9
 215 605 215 605 223 613.5 c 128,-1,10
 231 622 231 622 238 629.5 c 128,-1,11
 245 637 245 637 249 639 c 0,12,13
 254 636 254 636 261 628 c 128,-1,14
 268 620 268 620 275.5 611.5 c 128,-1,15
 283 603 283 603 290 596.5 c 128,-1,16
 297 590 297 590 300 590 c 0,17,18
 324 587 324 587 344.5 588 c 128,-1,19
 365 589 365 589 380.5 591 c 128,-1,20
 396 593 396 593 405 594.5 c 128,-1,21
 414 596 414 596 415 595 c 1,22,-1
 252 757 l 1,23,0
 208 716 208 716 166 678 c 128,-1,1
382.5 501 m 128,-1,25
 358 502 358 502 341 503 c 0,26,27
 338 503 338 503 330 503 c 128,-1,28
 322 503 322 503 314 503.5 c 128,-1,29
 306 504 306 504 299.5 503.5 c 128,-1,30
 293 503 293 503 293 502 c 0,31,32
 293 490 293 490 290.5 478.5 c 128,-1,33
 288 467 288 467 289 451 c 1,34,35
 282 468 282 468 272 477.5 c 128,-1,36
 262 487 262 487 249 491.5 c 128,-1,37
 236 496 236 496 220.5 496.5 c 128,-1,38
 205 497 205 497 187 497 c 0,39,40
 152 496 152 496 121 478.5 c 128,-1,41
 90 461 90 461 67.5 430.5 c 128,-1,42
 45 400 45 400 32 358 c 128,-1,43
 19 316 19 316 19 266 c 0,44,45
 19 226 19 226 27.5 179 c 128,-1,46
 36 132 36 132 54 92 c 128,-1,47
 72 52 72 52 99.5 25 c 128,-1,48
 127 -2 127 -2 166 -2 c 0,49,50
 201 -2 201 -2 237.5 15 c 128,-1,51
 274 32 274 32 298 56 c 1,52,53
 298 46 298 46 296 39 c 128,-1,54
 294 32 294 32 294 21 c 0,55,56
 294 13 294 13 296.5 7 c 128,-1,57
 299 1 299 1 306 -1 c 0,58,59
 317 -1 317 -1 327.5 0.5 c 128,-1,60
 338 2 338 2 349 2 c 0,61,62
 365 2 365 2 381.5 0.5 c 128,-1,63
 398 -1 398 -1 414 -1 c 2,64,-1
 426 -1 l 2,65,66
 438 1 438 1 438.5 14 c 128,-1,67
 439 27 439 27 439 40 c 0,68,69
 446 147 446 147 442 251.5 c 128,-1,70
 438 356 438 356 441 464 c 2,71,-1
 441 474 l 2,72,73
 441 480 441 480 440.5 486 c 128,-1,74
 440 492 440 492 439 498 c 1,75,24
 407 500 407 500 382.5 501 c 128,-1,25
176.5 343.5 m 128,-1,77
 200 363 200 363 241 363 c 0,78,79
 262 363 262 363 272.5 360 c 128,-1,80
 283 357 283 357 287.5 346 c 128,-1,81
 292 335 292 335 292.5 314.5 c 128,-1,82
 293 294 293 294 293 259 c 0,83,84
 293 231 293 231 292.5 208.5 c 128,-1,85
 292 186 292 186 286.5 170.5 c 128,-1,86
 281 155 281 155 268.5 146.5 c 128,-1,87
 256 138 256 138 231 138 c 0,88,89
 189 138 189 138 165.5 169.5 c 128,-1,90
 142 201 142 201 142 246 c 0,91,92
 142 259 142 259 143 272.5 c 128,-1,93
 144 286 144 286 148 299 c 0,94,76
 153 324 153 324 176.5 343.5 c 128,-1,77
EndSplineSet
EndChar

StartChar: adieresis
Encoding: 228 228 67
Width: 476
Flags: W
LayerCount: 2
Fore
SplineSet
382.5 501 m 128,-1,1
 358 502 358 502 341 503 c 0,2,3
 338 503 338 503 330 503 c 128,-1,4
 322 503 322 503 314 503.5 c 128,-1,5
 306 504 306 504 299.5 503.5 c 128,-1,6
 293 503 293 503 293 502 c 0,7,8
 293 490 293 490 290.5 478.5 c 128,-1,9
 288 467 288 467 289 451 c 1,10,11
 282 468 282 468 272 477.5 c 128,-1,12
 262 487 262 487 249 491.5 c 128,-1,13
 236 496 236 496 220.5 496.5 c 128,-1,14
 205 497 205 497 187 497 c 0,15,16
 152 496 152 496 121 478.5 c 128,-1,17
 90 461 90 461 67.5 430.5 c 128,-1,18
 45 400 45 400 32 358 c 128,-1,19
 19 316 19 316 19 266 c 0,20,21
 19 226 19 226 27.5 179 c 128,-1,22
 36 132 36 132 54 92 c 128,-1,23
 72 52 72 52 99.5 25 c 128,-1,24
 127 -2 127 -2 166 -2 c 0,25,26
 201 -2 201 -2 237.5 15 c 128,-1,27
 274 32 274 32 298 56 c 1,28,29
 298 46 298 46 296 39 c 128,-1,30
 294 32 294 32 294 21 c 0,31,32
 294 13 294 13 296.5 7 c 128,-1,33
 299 1 299 1 306 -1 c 0,34,35
 317 -1 317 -1 327.5 0.5 c 128,-1,36
 338 2 338 2 349 2 c 0,37,38
 365 2 365 2 381.5 0.5 c 128,-1,39
 398 -1 398 -1 414 -1 c 2,40,-1
 426 -1 l 2,41,42
 438 1 438 1 438.5 14 c 128,-1,43
 439 27 439 27 439 40 c 0,44,45
 446 147 446 147 442 251.5 c 128,-1,46
 438 356 438 356 441 464 c 2,47,-1
 441 474 l 2,48,49
 441 480 441 480 440.5 486 c 128,-1,50
 440 492 440 492 439 498 c 1,51,0
 407 500 407 500 382.5 501 c 128,-1,1
176.5 343.5 m 128,-1,53
 200 363 200 363 241 363 c 0,54,55
 262 363 262 363 272.5 360 c 128,-1,56
 283 357 283 357 287.5 346 c 128,-1,57
 292 335 292 335 292.5 314.5 c 128,-1,58
 293 294 293 294 293 259 c 0,59,60
 293 231 293 231 292.5 208.5 c 128,-1,61
 292 186 292 186 286.5 170.5 c 128,-1,62
 281 155 281 155 268.5 146.5 c 128,-1,63
 256 138 256 138 231 138 c 0,64,65
 189 138 189 138 165.5 169.5 c 128,-1,66
 142 201 142 201 142 246 c 0,67,68
 142 259 142 259 143 272.5 c 128,-1,69
 144 286 144 286 148 299 c 0,70,52
 153 324 153 324 176.5 343.5 c 128,-1,53
116.5 682.5 m 128,-1,72
 119 651 119 651 119 622 c 1,73,74
 138 623 138 623 160 621.5 c 128,-1,75
 182 620 182 620 201.5 619.5 c 128,-1,76
 221 619 221 619 235.5 621 c 128,-1,77
 250 623 250 623 254 629 c 1,78,79
 254 644 254 644 253.5 663.5 c 128,-1,80
 253 683 253 683 252.5 701.5 c 128,-1,81
 252 720 252 720 251.5 735.5 c 128,-1,82
 251 751 251 751 251 757 c 1,83,-1
 115 760 l 1,84,71
 114 714 114 714 116.5 682.5 c 128,-1,72
300.5 682.5 m 128,-1,86
 303 651 303 651 303 622 c 1,87,88
 322 623 322 623 344 621.5 c 128,-1,89
 366 620 366 620 385.5 619.5 c 128,-1,90
 405 619 405 619 419.5 621 c 128,-1,91
 434 623 434 623 438 629 c 1,92,93
 438 644 438 644 437.5 663.5 c 128,-1,94
 437 683 437 683 436.5 701.5 c 128,-1,95
 436 720 436 720 435.5 735.5 c 128,-1,96
 435 751 435 751 435 757 c 1,97,-1
 299 760 l 1,98,85
 298 714 298 714 300.5 682.5 c 128,-1,86
EndSplineSet
EndChar

StartChar: agrave
Encoding: 224 224 68
Width: 476
Flags: W
LayerCount: 2
Fore
SplineSet
382.5 501 m 128,-1,1
 358 502 358 502 341 503 c 0,2,3
 338 503 338 503 330 503 c 128,-1,4
 322 503 322 503 314 503.5 c 128,-1,5
 306 504 306 504 299.5 503.5 c 128,-1,6
 293 503 293 503 293 502 c 0,7,8
 293 490 293 490 290.5 478.5 c 128,-1,9
 288 467 288 467 289 451 c 1,10,11
 282 468 282 468 272 477.5 c 128,-1,12
 262 487 262 487 249 491.5 c 128,-1,13
 236 496 236 496 220.5 496.5 c 128,-1,14
 205 497 205 497 187 497 c 0,15,16
 152 496 152 496 121 478.5 c 128,-1,17
 90 461 90 461 67.5 430.5 c 128,-1,18
 45 400 45 400 32 358 c 128,-1,19
 19 316 19 316 19 266 c 0,20,21
 19 226 19 226 27.5 179 c 128,-1,22
 36 132 36 132 54 92 c 128,-1,23
 72 52 72 52 99.5 25 c 128,-1,24
 127 -2 127 -2 166 -2 c 0,25,26
 201 -2 201 -2 237.5 15 c 128,-1,27
 274 32 274 32 298 56 c 1,28,29
 298 46 298 46 296 39 c 128,-1,30
 294 32 294 32 294 21 c 0,31,32
 294 13 294 13 296.5 7 c 128,-1,33
 299 1 299 1 306 -1 c 0,34,35
 317 -1 317 -1 327.5 0.5 c 128,-1,36
 338 2 338 2 349 2 c 0,37,38
 365 2 365 2 381.5 0.5 c 128,-1,39
 398 -1 398 -1 414 -1 c 2,40,-1
 426 -1 l 2,41,42
 438 1 438 1 438.5 14 c 128,-1,43
 439 27 439 27 439 40 c 0,44,45
 446 147 446 147 442 251.5 c 128,-1,46
 438 356 438 356 441 464 c 2,47,-1
 441 474 l 2,48,49
 441 480 441 480 440.5 486 c 128,-1,50
 440 492 440 492 439 498 c 1,51,0
 407 500 407 500 382.5 501 c 128,-1,1
176.5 343.5 m 128,-1,53
 200 363 200 363 241 363 c 0,54,55
 262 363 262 363 272.5 360 c 128,-1,56
 283 357 283 357 287.5 346 c 128,-1,57
 292 335 292 335 292.5 314.5 c 128,-1,58
 293 294 293 294 293 259 c 0,59,60
 293 231 293 231 292.5 208.5 c 128,-1,61
 292 186 292 186 286.5 170.5 c 128,-1,62
 281 155 281 155 268.5 146.5 c 128,-1,63
 256 138 256 138 231 138 c 0,64,65
 189 138 189 138 165.5 169.5 c 128,-1,66
 142 201 142 201 142 246 c 0,67,68
 142 259 142 259 143 272.5 c 128,-1,69
 144 286 144 286 148 299 c 0,70,52
 153 324 153 324 176.5 343.5 c 128,-1,53
115 683 m 2,71,72
 122 676 122 676 137 663 c 128,-1,73
 152 650 152 650 168 635.5 c 128,-1,74
 184 621 184 621 197.5 608 c 128,-1,75
 211 595 211 595 216 587 c 1,76,77
 232 585 232 585 252 584.5 c 128,-1,78
 272 584 272 584 291.5 585 c 128,-1,79
 311 586 311 586 327 587.5 c 128,-1,80
 343 589 343 589 350 591 c 1,81,82
 333 607 333 607 311.5 629.5 c 128,-1,83
 290 652 290 652 267.5 675.5 c 128,-1,84
 245 699 245 699 223 719.5 c 128,-1,85
 201 740 201 740 183 754 c 1,86,-1
 114 684 l 1,87,-1
 115 683 l 2,71,72
EndSplineSet
EndChar

StartChar: aring
Encoding: 229 229 69
Width: 527
Flags: W
LayerCount: 2
Fore
SplineSet
391.5 658 m 132,-1,1
 393 692 393 692 384 723 c 5,2,3
 373 739 373 739 349.5 745 c 132,-1,4
 326 751 326 751 305 752 c 4,5,6
 282 754 282 754 261.5 749.5 c 132,-1,7
 241 745 241 745 227 732 c 4,8,9
 219 722 219 722 216 712 c 4,10,11
 209 685 209 685 210.5 655.5 c 132,-1,12
 212 626 212 626 217 598 c 4,13,14
 222 585 222 585 235 577.5 c 132,-1,15
 248 570 248 570 262 569 c 260,16,17
 276 568 276 568 290 568 c 132,-1,18
 304 568 304 568 318 570 c 4,19,20
 335 571 335 571 352 575.5 c 132,-1,21
 369 580 369 580 378 594 c 4,22,0
 390 624 390 624 391.5 658 c 132,-1,1
302 708 m 4,24,25
 313 708 313 708 323 705 c 132,-1,26
 333 702 333 702 341 694 c 4,27,28
 346 686 346 686 348 672 c 4,29,30
 349 661 349 661 347 649 c 132,-1,31
 345 637 345 637 343 627 c 4,32,33
 338 616 338 616 324.5 614.5 c 132,-1,34
 311 613 311 613 300 612 c 6,35,-1
 290 612 l 6,36,37
 275 612 275 612 265 621 c 4,38,39
 257 629 257 629 256 641.5 c 132,-1,40
 255 654 255 654 255 665 c 4,41,42
 255 672 255 672 257 682 c 4,43,44
 260 695 260 695 272 702 c 4,45,23
 285 708 285 708 302 708 c 4,24,25
433.5 501 m 128,-1,47
 409 502 409 502 392 503 c 0,48,49
 389 503 389 503 381 503 c 128,-1,50
 373 503 373 503 365 503.5 c 128,-1,51
 357 504 357 504 350.5 503.5 c 128,-1,52
 344 503 344 503 344 502 c 0,53,54
 344 490 344 490 341.5 478.5 c 128,-1,55
 339 467 339 467 340 451 c 1,56,57
 333 468 333 468 323 477.5 c 128,-1,58
 313 487 313 487 300 491.5 c 128,-1,59
 287 496 287 496 271.5 496.5 c 128,-1,60
 256 497 256 497 238 497 c 0,61,62
 203 496 203 496 172 478.5 c 128,-1,63
 141 461 141 461 118.5 430.5 c 128,-1,64
 96 400 96 400 83 358 c 128,-1,65
 70 316 70 316 70 266 c 0,66,67
 70 226 70 226 78.5 179 c 128,-1,68
 87 132 87 132 105 92 c 128,-1,69
 123 52 123 52 150.5 25 c 128,-1,70
 178 -2 178 -2 217 -2 c 0,71,72
 252 -2 252 -2 288.5 15 c 128,-1,73
 325 32 325 32 349 56 c 1,74,75
 349 46 349 46 347 39 c 128,-1,76
 345 32 345 32 345 21 c 0,77,78
 345 13 345 13 347.5 7 c 128,-1,79
 350 1 350 1 357 -1 c 0,80,81
 368 -1 368 -1 378.5 0.5 c 128,-1,82
 389 2 389 2 400 2 c 0,83,84
 416 2 416 2 432.5 0.5 c 128,-1,85
 449 -1 449 -1 465 -1 c 2,86,-1
 477 -1 l 2,87,88
 489 1 489 1 489.5 14 c 128,-1,89
 490 27 490 27 490 40 c 0,90,91
 497 147 497 147 493 251.5 c 128,-1,92
 489 356 489 356 492 464 c 2,93,-1
 492 474 l 2,94,95
 492 480 492 480 491.5 486 c 128,-1,96
 491 492 491 492 490 498 c 1,97,46
 458 500 458 500 433.5 501 c 128,-1,47
227.5 343.5 m 128,-1,99
 251 363 251 363 292 363 c 0,100,101
 313 363 313 363 323.5 360 c 128,-1,102
 334 357 334 357 338.5 346 c 128,-1,103
 343 335 343 335 343.5 314.5 c 128,-1,104
 344 294 344 294 344 259 c 0,105,106
 344 231 344 231 343.5 208.5 c 128,-1,107
 343 186 343 186 337.5 170.5 c 128,-1,108
 332 155 332 155 319.5 146.5 c 128,-1,109
 307 138 307 138 282 138 c 0,110,111
 240 138 240 138 216.5 169.5 c 128,-1,112
 193 201 193 201 193 246 c 0,113,114
 193 259 193 259 194 272.5 c 128,-1,115
 195 286 195 286 199 299 c 0,116,98
 204 324 204 324 227.5 343.5 c 128,-1,99
EndSplineSet
EndChar

StartChar: atilde
Encoding: 227 227 70
Width: 476
Flags: W
LayerCount: 2
Fore
SplineSet
382.5 501 m 128,-1,1
 358 502 358 502 341 503 c 0,2,3
 338 503 338 503 330 503 c 128,-1,4
 322 503 322 503 314 503.5 c 128,-1,5
 306 504 306 504 299.5 503.5 c 128,-1,6
 293 503 293 503 293 502 c 0,7,8
 293 490 293 490 290.5 478.5 c 128,-1,9
 288 467 288 467 289 451 c 1,10,11
 282 468 282 468 272 477.5 c 128,-1,12
 262 487 262 487 249 491.5 c 128,-1,13
 236 496 236 496 220.5 496.5 c 128,-1,14
 205 497 205 497 187 497 c 0,15,16
 152 496 152 496 121 478.5 c 128,-1,17
 90 461 90 461 67.5 430.5 c 128,-1,18
 45 400 45 400 32 358 c 128,-1,19
 19 316 19 316 19 266 c 0,20,21
 19 226 19 226 27.5 179 c 128,-1,22
 36 132 36 132 54 92 c 128,-1,23
 72 52 72 52 99.5 25 c 128,-1,24
 127 -2 127 -2 166 -2 c 0,25,26
 201 -2 201 -2 237.5 15 c 128,-1,27
 274 32 274 32 298 56 c 1,28,29
 298 46 298 46 296 39 c 128,-1,30
 294 32 294 32 294 21 c 0,31,32
 294 13 294 13 296.5 7 c 128,-1,33
 299 1 299 1 306 -1 c 0,34,35
 317 -1 317 -1 327.5 0.5 c 128,-1,36
 338 2 338 2 349 2 c 0,37,38
 365 2 365 2 381.5 0.5 c 128,-1,39
 398 -1 398 -1 414 -1 c 2,40,-1
 426 -1 l 2,41,42
 438 1 438 1 438.5 14 c 128,-1,43
 439 27 439 27 439 40 c 0,44,45
 446 147 446 147 442 251.5 c 128,-1,46
 438 356 438 356 441 464 c 2,47,-1
 441 474 l 2,48,49
 441 480 441 480 440.5 486 c 128,-1,50
 440 492 440 492 439 498 c 1,51,0
 407 500 407 500 382.5 501 c 128,-1,1
176.5 343.5 m 128,-1,53
 200 363 200 363 241 363 c 0,54,55
 262 363 262 363 272.5 360 c 128,-1,56
 283 357 283 357 287.5 346 c 128,-1,57
 292 335 292 335 292.5 314.5 c 128,-1,58
 293 294 293 294 293 259 c 0,59,60
 293 231 293 231 292.5 208.5 c 128,-1,61
 292 186 292 186 286.5 170.5 c 128,-1,62
 281 155 281 155 268.5 146.5 c 128,-1,63
 256 138 256 138 231 138 c 0,64,65
 189 138 189 138 165.5 169.5 c 128,-1,66
 142 201 142 201 142 246 c 0,67,68
 142 259 142 259 143 272.5 c 128,-1,69
 144 286 144 286 148 299 c 0,70,52
 153 324 153 324 176.5 343.5 c 128,-1,53
160 610.5 m 128,-1,72
 160 619 160 619 164 630 c 2,73,-1
 167 636 l 2,74,75
 175 649 175 649 191 653.5 c 128,-1,76
 207 658 207 658 218 658 c 0,77,78
 231 657 231 657 239 651 c 128,-1,79
 247 645 247 645 253 635 c 0,80,81
 266 604 266 604 295 592.5 c 128,-1,82
 324 581 324 581 355 586 c 0,83,84
 381 590 381 590 400.5 606.5 c 128,-1,85
 420 623 420 623 432 646 c 128,-1,86
 444 669 444 669 448.5 695.5 c 128,-1,87
 453 722 453 722 450 745 c 2,88,-1
 450 746 l 1,89,90
 449 746 449 746 449 747 c 2,91,-1
 448 748 l 1,92,93
 427 747 427 747 406.5 747 c 128,-1,94
 386 747 386 747 366 745 c 1,95,96
 363 736 363 736 356.5 721.5 c 128,-1,97
 350 707 350 707 339.5 696.5 c 128,-1,98
 329 686 329 686 316.5 682.5 c 128,-1,99
 304 679 304 679 289 692 c 0,100,101
 276 700 276 700 267 715 c 128,-1,102
 258 730 258 730 242 740 c 0,103,104
 226 751 226 751 208 754.5 c 128,-1,105
 190 758 190 758 172 755 c 128,-1,106
 154 752 154 752 137 743 c 128,-1,107
 120 734 120 734 107 721 c 0,108,109
 97 710 97 710 88 693 c 128,-1,110
 79 676 79 676 71 657 c 128,-1,111
 63 638 63 638 56.5 620.5 c 128,-1,112
 50 603 50 603 47 592 c 1,113,114
 73 593 73 593 96 593 c 0,115,116
 116 593 116 593 135 592 c 128,-1,117
 154 591 154 591 164 589 c 1,118,-1
 164 590 l 1,119,71
 160 602 160 602 160 610.5 c 128,-1,72
EndSplineSet
EndChar

StartChar: ae
Encoding: 230 230 71
Width: 703
Flags: W
LayerCount: 2
Fore
SplineSet
482.5 245.5 m 128,-1,1
 520 245 520 245 561.5 246.5 c 128,-1,2
 603 248 603 248 638 251 c 128,-1,3
 673 254 673 254 683 257 c 1,4,5
 686 296 686 296 683.5 334.5 c 128,-1,6
 681 373 681 373 667.5 405 c 128,-1,7
 654 437 654 437 627.5 459.5 c 128,-1,8
 601 482 601 482 557 490 c 0,9,10
 530 497 530 497 501.5 498 c 128,-1,11
 473 499 473 499 446.5 494 c 128,-1,12
 420 489 420 489 396 478 c 128,-1,13
 372 467 372 467 354 451 c 1,14,15
 335 469 335 469 302.5 479 c 128,-1,16
 270 489 270 489 233 489.5 c 128,-1,17
 196 490 196 490 158 481.5 c 128,-1,18
 120 473 120 473 90.5 454.5 c 128,-1,19
 61 436 61 436 44 407.5 c 128,-1,20
 27 379 27 379 32 340 c 1,21,22
 42 335 42 335 58 333.5 c 128,-1,23
 74 332 74 332 92 332.5 c 128,-1,24
 110 333 110 333 127 335 c 128,-1,25
 144 337 144 337 156 339 c 1,26,27
 156 364 156 364 173 379.5 c 128,-1,28
 190 395 190 395 211 397.5 c 128,-1,29
 232 400 232 400 251.5 389 c 128,-1,30
 271 378 271 378 277 351 c 0,31,32
 279 345 279 345 279 339.5 c 128,-1,33
 279 334 279 334 279 325.5 c 128,-1,34
 279 317 279 317 279 303.5 c 128,-1,35
 279 290 279 290 280 268 c 1,36,37
 255 282 255 282 220 287.5 c 128,-1,38
 185 293 185 293 150 289.5 c 128,-1,39
 115 286 115 286 84 272 c 128,-1,40
 53 258 53 258 37 233 c 0,41,42
 11 189 11 189 9.5 150.5 c 128,-1,43
 8 112 8 112 24 81 c 128,-1,44
 40 50 40 50 70 28.5 c 128,-1,45
 100 7 100 7 137.5 -2 c 128,-1,46
 175 -11 175 -11 216.5 -6 c 128,-1,47
 258 -1 258 -1 297 21 c 0,48,49
 313 31 313 31 325.5 40.5 c 128,-1,50
 338 50 338 50 349 59 c 1,51,52
 364 38 364 38 386 23 c 128,-1,53
 408 8 408 8 438 3 c 1,54,55
 465 3 465 3 496 0.5 c 128,-1,56
 527 -2 527 -2 557 0.5 c 128,-1,57
 587 3 587 3 613 12 c 128,-1,58
 639 21 639 21 655 43 c 0,59,60
 662 49 662 49 666 63.5 c 128,-1,61
 670 78 670 78 673 98.5 c 128,-1,62
 676 119 676 119 677.5 143 c 128,-1,63
 679 167 679 167 681 191 c 1,64,65
 671 194 671 194 655 194.5 c 128,-1,66
 639 195 639 195 621.5 194 c 128,-1,67
 604 193 604 193 588 192.5 c 128,-1,68
 572 192 572 192 563 193 c 1,69,70
 565 154 565 154 551 135 c 128,-1,71
 537 116 537 116 517.5 112 c 128,-1,72
 498 108 498 108 477.5 118.5 c 128,-1,73
 457 129 457 129 445 150 c 0,74,75
 434 167 434 167 432.5 185 c 128,-1,76
 431 203 431 203 430 232 c 2,77,-1
 430 249 l 1,78,0
 445 246 445 246 482.5 245.5 c 128,-1,1
129 113.5 m 128,-1,80
 117 126 117 126 115.5 140.5 c 128,-1,81
 114 155 114 155 120.5 169.5 c 128,-1,82
 127 184 127 184 136 193 c 0,83,84
 162 216 162 216 191.5 215 c 128,-1,85
 221 214 221 214 251 200 c 0,86,87
 263 193 263 193 269.5 173 c 128,-1,88
 276 153 276 153 269.5 133.5 c 128,-1,89
 263 114 263 114 240 101.5 c 128,-1,90
 217 89 217 89 169 97 c 0,91,79
 141 101 141 101 129 113.5 c 128,-1,80
571.5 369.5 m 128,-1,93
 581 352 581 352 581 333 c 0,94,95
 581 326 581 326 581 323 c 128,-1,96
 581 320 581 320 576 320 c 128,-1,97
 571 320 571 320 559 321 c 128,-1,98
 547 322 547 322 522 322 c 0,99,100
 486 322 486 322 467.5 321.5 c 128,-1,101
 449 321 449 321 440.5 322.5 c 128,-1,102
 432 324 432 324 431.5 328 c 128,-1,103
 431 332 431 332 433 343 c 0,104,105
 435 355 435 355 439.5 366.5 c 128,-1,106
 444 378 444 378 452.5 386 c 128,-1,107
 461 394 461 394 475 399 c 128,-1,108
 489 404 489 404 512 404 c 0,109,110
 522 404 522 404 529.5 401.5 c 128,-1,111
 537 399 537 399 545 395 c 0,112,92
 562 387 562 387 571.5 369.5 c 128,-1,93
EndSplineSet
EndChar

StartChar: b
Encoding: 98 98 72
Width: 464
Flags: W
LayerCount: 2
Fore
SplineSet
153.5 705.5 m 128,-1,1
 140 707 140 707 120.5 707.5 c 128,-1,2
 101 708 101 708 79 707.5 c 128,-1,3
 57 707 57 707 41 704 c 1,4,-1
 41 638 l 2,5,6
 41 555 41 555 39 472 c 128,-1,7
 37 389 37 389 35.5 308.5 c 128,-1,8
 34 228 34 228 33.5 150.5 c 128,-1,9
 33 73 33 73 35 1 c 1,10,11
 66 1 66 1 103 -0.5 c 128,-1,12
 140 -2 140 -2 170 2 c 0,13,14
 171 4 171 4 171 9 c 0,15,16
 171 19 171 19 171.5 25 c 128,-1,17
 172 31 172 31 172 42 c 0,18,19
 174 47 174 47 176.5 49.5 c 128,-1,20
 179 52 179 52 182 46 c 0,21,22
 197 16 197 16 222 7.5 c 128,-1,23
 247 -1 247 -1 275 3 c 0,24,25
 332 7 332 7 365 32.5 c 128,-1,26
 398 58 398 58 414.5 97.5 c 128,-1,27
 431 137 431 137 436 186 c 128,-1,28
 441 235 441 235 443 285 c 0,29,30
 443 320 443 320 438.5 353 c 128,-1,31
 434 386 434 386 424.5 413.5 c 128,-1,32
 415 441 415 441 399.5 460.5 c 128,-1,33
 384 480 384 480 362 488 c 0,34,35
 335 498 335 498 302.5 500.5 c 128,-1,36
 270 503 270 503 241 500.5 c 128,-1,37
 212 498 212 498 192 491 c 128,-1,38
 172 484 172 484 170 475 c 1,39,40
 171 522 171 522 171 551 c 128,-1,41
 171 580 171 580 171 597.5 c 128,-1,42
 171 615 171 615 170.5 624.5 c 128,-1,43
 170 634 170 634 169.5 642.5 c 128,-1,44
 169 651 169 651 168.5 661.5 c 128,-1,45
 168 672 168 672 167 692 c 2,46,-1
 167 703 l 2,47,0
 167 704 167 704 153.5 705.5 c 128,-1,1
328 286 m 128,-1,49
 329 271 329 271 329 257 c 0,50,51
 329 232 329 232 323 208.5 c 128,-1,52
 317 185 317 185 305 166.5 c 128,-1,53
 293 148 293 148 276 137 c 128,-1,54
 259 126 259 126 238 126 c 0,55,56
 212 126 212 126 198 137 c 128,-1,57
 184 148 184 148 176.5 167 c 128,-1,58
 169 186 169 186 167.5 212.5 c 128,-1,59
 166 239 166 239 166 271 c 0,60,61
 166 310 166 310 167.5 332.5 c 128,-1,62
 169 355 169 355 175 367 c 128,-1,63
 181 379 181 379 193.5 382.5 c 128,-1,64
 206 386 206 386 227 386 c 0,65,66
 268 386 268 386 292.5 368 c 128,-1,67
 317 350 317 350 322 315 c 0,68,48
 327 301 327 301 328 286 c 128,-1,49
EndSplineSet
EndChar

StartChar: c
Encoding: 99 99 73
Width: 442
Flags: W
LayerCount: 2
Fore
SplineSet
393 195.5 m 128,-1,1
 376 196 376 196 357 195 c 128,-1,2
 338 194 338 194 321 193.5 c 128,-1,3
 304 193 304 193 294 194 c 1,4,5
 291 181 291 181 285.5 164.5 c 128,-1,6
 280 148 280 148 270 141 c 0,7,8
 258 133 258 133 238 130.5 c 128,-1,9
 218 128 218 128 199 132.5 c 128,-1,10
 180 137 180 137 166.5 150 c 128,-1,11
 153 163 153 163 155 186 c 0,12,13
 157 221 157 221 157 253 c 128,-1,14
 157 285 157 285 161 316 c 0,15,16
 164 332 164 332 170 336 c 0,17,18
 183 352 183 352 204 358 c 0,19,20
 243 368 243 368 267 348.5 c 128,-1,21
 291 329 291 329 296 294 c 1,22,23
 309 292 309 292 325.5 290 c 128,-1,24
 342 288 342 288 359.5 287 c 128,-1,25
 377 286 377 286 393.5 286 c 128,-1,26
 410 286 410 286 423 289 c 1,27,28
 422 322 422 322 421.5 350.5 c 128,-1,29
 421 379 421 379 417 402 c 128,-1,30
 413 425 413 425 405.5 442 c 128,-1,31
 398 459 398 459 384 469 c 0,32,33
 363 489 363 489 334 499 c 128,-1,34
 305 509 305 509 273 511 c 0,35,36
 252 513 252 513 233.5 511.5 c 128,-1,37
 215 510 215 510 195 512 c 0,38,39
 171 512 171 512 147.5 509 c 128,-1,40
 124 506 124 506 103.5 498.5 c 128,-1,41
 83 491 83 491 67.5 480 c 128,-1,42
 52 469 52 469 45 454 c 0,43,44
 42 444 42 444 36 425 c 128,-1,45
 30 406 30 406 29 395 c 0,46,47
 23 359 23 359 23 323 c 1,48,49
 27 290 27 290 25.5 250 c 128,-1,50
 24 210 24 210 26 170.5 c 128,-1,51
 28 131 28 131 38 95 c 128,-1,52
 48 59 48 59 75 35 c 0,53,54
 110 0 110 0 161 -9 c 1,55,56
 189 -9 189 -9 223 -11.5 c 128,-1,57
 257 -14 257 -14 289 -11.5 c 128,-1,58
 321 -9 321 -9 348.5 1 c 128,-1,59
 376 11 376 11 393 35 c 0,60,61
 400 42 400 42 404.5 57.5 c 128,-1,62
 409 73 409 73 412 94.5 c 128,-1,63
 415 116 415 116 417 141 c 128,-1,64
 419 166 419 166 421 192 c 1,65,0
 410 195 410 195 393 195.5 c 128,-1,1
EndSplineSet
EndChar

StartChar: ccedilla
Encoding: 231 231 74
Width: 443
Flags: W
LayerCount: 2
Fore
SplineSet
345.5 -0.5 m 128,-1,1
 375 9 375 9 393 35 c 0,2,3
 400 42 400 42 404.5 57.5 c 128,-1,4
 409 73 409 73 412 94.5 c 128,-1,5
 415 116 415 116 417 141 c 128,-1,6
 419 166 419 166 421 192 c 1,7,8
 410 195 410 195 393 195.5 c 128,-1,9
 376 196 376 196 357 195 c 128,-1,10
 338 194 338 194 321 193.5 c 128,-1,11
 304 193 304 193 294 194 c 1,12,13
 291 181 291 181 285.5 164.5 c 128,-1,14
 280 148 280 148 270 141 c 0,15,16
 258 133 258 133 238 130.5 c 128,-1,17
 218 128 218 128 199 132.5 c 128,-1,18
 180 137 180 137 166.5 150 c 128,-1,19
 153 163 153 163 155 186 c 0,20,21
 157 221 157 221 157 253 c 128,-1,22
 157 285 157 285 161 316 c 0,23,24
 164 332 164 332 170 336 c 0,25,26
 183 352 183 352 204 358 c 0,27,28
 243 368 243 368 267 348.5 c 128,-1,29
 291 329 291 329 296 294 c 1,30,31
 309 292 309 292 325.5 290 c 128,-1,32
 342 288 342 288 359.5 287 c 128,-1,33
 377 286 377 286 393.5 286 c 128,-1,34
 410 286 410 286 423 289 c 1,35,36
 422 322 422 322 421.5 350.5 c 128,-1,37
 421 379 421 379 417 402 c 128,-1,38
 413 425 413 425 405.5 442 c 128,-1,39
 398 459 398 459 384 469 c 0,40,41
 363 489 363 489 334 499 c 128,-1,42
 305 509 305 509 273 511 c 0,43,44
 252 513 252 513 233.5 511.5 c 128,-1,45
 215 510 215 510 195 512 c 0,46,47
 171 512 171 512 147.5 509 c 128,-1,48
 124 506 124 506 103.5 498.5 c 128,-1,49
 83 491 83 491 67.5 480 c 128,-1,50
 52 469 52 469 45 454 c 0,51,52
 42 444 42 444 36 425 c 128,-1,53
 30 406 30 406 29 395 c 0,54,55
 23 359 23 359 23 323 c 1,56,57
 27 290 27 290 25.5 250 c 128,-1,58
 24 210 24 210 26 170.5 c 128,-1,59
 28 131 28 131 38 95 c 128,-1,60
 48 59 48 59 75 35 c 0,61,62
 110 0 110 0 161 -9 c 1,63,-1
 174 -10 l 1,64,65
 168 -28 168 -28 165 -37 c 128,-1,66
 162 -46 162 -46 158.5 -57 c 128,-1,67
 155 -68 155 -68 148 -87.5 c 128,-1,68
 141 -107 141 -107 126 -147 c 0,69,70
 126 -148 126 -148 140 -148 c 128,-1,71
 154 -148 154 -148 172.5 -148 c 128,-1,72
 191 -148 191 -148 209 -148 c 128,-1,73
 227 -148 227 -148 235 -148 c 1,74,-1
 235 -147 l 2,75,76
 237 -138 237 -138 243.5 -120 c 128,-1,77
 250 -102 250 -102 257.5 -81.5 c 128,-1,78
 265 -61 265 -61 271.5 -42 c 128,-1,79
 278 -23 278 -23 281 -12 c 1,80,0
 316 -10 316 -10 345.5 -0.5 c 128,-1,1
424 -89 m 2,81,82
 424 -90 424 -90 425 -90 c 1,83,-1
 424 -88 l 1,84,-1
 424 -89 l 2,81,82
EndSplineSet
EndChar

StartChar: d
Encoding: 100 100 75
Width: 463
Flags: W
LayerCount: 2
Fore
SplineSet
295.5 661.5 m 128,-1,1
 295 651 295 651 294.5 642.5 c 128,-1,2
 294 634 294 634 293.5 624.5 c 128,-1,3
 293 615 293 615 293 597.5 c 128,-1,4
 293 580 293 580 293 551 c 128,-1,5
 293 522 293 522 294 475 c 1,6,7
 292 484 292 484 272 491 c 128,-1,8
 252 498 252 498 223 500.5 c 128,-1,9
 194 503 194 503 161.5 500.5 c 128,-1,10
 129 498 129 498 102 488 c 0,11,12
 80 480 80 480 64.5 460.5 c 128,-1,13
 49 441 49 441 39.5 413.5 c 128,-1,14
 30 386 30 386 25.5 353 c 128,-1,15
 21 320 21 320 21 285 c 0,16,17
 22 235 22 235 27.5 186 c 128,-1,18
 33 137 33 137 49.5 97.5 c 128,-1,19
 66 58 66 58 99 32.5 c 128,-1,20
 132 7 132 7 189 3 c 0,21,22
 217 -1 217 -1 242 7.5 c 128,-1,23
 267 16 267 16 282 46 c 0,24,25
 285 52 285 52 287.5 49.5 c 128,-1,26
 290 47 290 47 292 42 c 0,27,28
 292 31 292 31 292.5 25 c 128,-1,29
 293 19 293 19 293 9 c 0,30,31
 293 4 293 4 294 2 c 0,32,33
 324 -2 324 -2 361 -0.5 c 128,-1,34
 398 1 398 1 429 1 c 1,35,36
 433 145 433 145 428 308 c 128,-1,37
 423 471 423 471 423 638 c 2,38,-1
 423 704 l 1,39,40
 407 707 407 707 385 707.5 c 128,-1,41
 363 708 363 708 343.5 707.5 c 128,-1,42
 324 707 324 707 310.5 705.5 c 128,-1,43
 297 704 297 704 297 703 c 2,44,-1
 297 692 l 2,45,0
 296 672 296 672 295.5 661.5 c 128,-1,1
171.5 368 m 128,-1,47
 196 386 196 386 237 386 c 0,48,49
 258 386 258 386 270.5 382.5 c 128,-1,50
 283 379 283 379 289 367 c 128,-1,51
 295 355 295 355 296.5 332.5 c 128,-1,52
 298 310 298 310 298 271 c 0,53,54
 298 239 298 239 296.5 212.5 c 128,-1,55
 295 186 295 186 287.5 167 c 128,-1,56
 280 148 280 148 265.5 137 c 128,-1,57
 251 126 251 126 226 126 c 0,58,59
 205 126 205 126 188 137 c 128,-1,60
 171 148 171 148 159 166.5 c 128,-1,61
 147 185 147 185 141 208.5 c 128,-1,62
 135 232 135 232 135 257 c 0,63,64
 135 271 135 271 136 286 c 128,-1,65
 137 301 137 301 142 315 c 0,66,46
 147 350 147 350 171.5 368 c 128,-1,47
EndSplineSet
EndChar

StartChar: eth
Encoding: 240 240 76
Width: 531
Flags: W
LayerCount: 2
Fore
SplineSet
155.5 275.5 m 128,-1,1
 169 305 169 305 211 310 c 0,2,3
 231 312 231 312 256 308 c 128,-1,4
 281 304 281 304 303.5 292.5 c 128,-1,5
 326 281 326 281 342.5 262 c 128,-1,6
 359 243 359 243 362 215 c 0,7,8
 367 177 367 177 345 155 c 128,-1,9
 323 133 323 133 279 128 c 0,10,11
 260 126 260 126 239.5 128.5 c 128,-1,12
 219 131 219 131 201 138.5 c 128,-1,13
 183 146 183 146 169 159.5 c 128,-1,14
 155 173 155 173 149 192 c 2,15,-1
 147 208 l 2,16,0
 142 246 142 246 155.5 275.5 c 128,-1,1
245.5 792.5 m 128,-1,18
 231 800 231 800 218 808 c 128,-1,19
 205 816 205 816 191 824 c 128,-1,20
 177 832 177 832 159 839 c 0,21,22
 154 841 154 841 142 834.5 c 128,-1,23
 130 828 130 828 115.5 817.5 c 128,-1,24
 101 807 101 807 84.5 794 c 128,-1,25
 68 781 68 781 55.5 769.5 c 128,-1,26
 43 758 43 758 35 750.5 c 128,-1,27
 27 743 27 743 28 742 c 0,28,29
 68 725 68 725 94.5 707.5 c 128,-1,30
 121 690 121 690 147 684 c 1,31,32
 122 666 122 666 100.5 650.5 c 128,-1,33
 79 635 79 635 62.5 623 c 128,-1,34
 46 611 46 611 36 604 c 128,-1,35
 26 597 26 597 26 597 c 2,36,37
 28 594 28 594 37 587 c 128,-1,38
 46 580 46 580 58 571 c 128,-1,39
 70 562 70 562 81.5 551.5 c 128,-1,40
 93 541 93 541 100 531 c 0,41,42
 103 533 103 533 116.5 541.5 c 128,-1,43
 130 550 130 550 151 564 c 128,-1,44
 172 578 172 578 199.5 596 c 128,-1,45
 227 614 227 614 258 635 c 1,46,47
 289 609 289 609 303 577.5 c 128,-1,48
 317 546 317 546 323 516 c 0,49,50
 328 493 328 493 328.5 471 c 128,-1,51
 329 449 329 449 334 425 c 1,52,53
 326 429 326 429 313 434.5 c 128,-1,54
 300 440 300 440 280.5 444.5 c 128,-1,55
 261 449 261 449 234 450 c 128,-1,56
 207 451 207 451 170 447 c 0,57,58
 123 441 123 441 92.5 422 c 128,-1,59
 62 403 62 403 44.5 372 c 128,-1,60
 27 341 27 341 21.5 299 c 128,-1,61
 16 257 16 257 18 206 c 2,62,-1
 19 178 l 2,63,64
 19 172 19 172 19.5 166 c 128,-1,65
 20 160 20 160 21 155 c 0,66,67
 27 102 27 102 54 65.5 c 128,-1,68
 81 29 81 29 121.5 8 c 128,-1,69
 162 -13 162 -13 211.5 -20 c 128,-1,70
 261 -27 261 -27 313 -21 c 0,71,72
 386 -12 386 -12 428 25 c 128,-1,73
 470 62 470 62 489 117.5 c 128,-1,74
 508 173 508 173 509 243 c 128,-1,75
 510 313 510 313 501 388 c 0,76,77
 493 458 493 458 481.5 526.5 c 128,-1,78
 470 595 470 595 444 647 c 0,79,80
 432 671 432 671 416.5 690 c 128,-1,81
 401 709 401 709 382 725 c 1,82,83
 396 734 396 734 407 741 c 128,-1,84
 418 748 418 748 429 754.5 c 128,-1,85
 440 761 440 761 451 767.5 c 128,-1,86
 462 774 462 774 476 783 c 1,87,88
 462 798 462 798 450.5 805 c 128,-1,89
 439 812 439 812 429 817.5 c 128,-1,90
 419 823 419 823 409 831 c 128,-1,91
 399 839 399 839 387 855 c 1,92,93
 376 849 376 849 347 828 c 128,-1,94
 318 807 318 807 279 779 c 1,95,17
 260 785 260 785 245.5 792.5 c 128,-1,18
EndSplineSet
EndChar

StartChar: e
Encoding: 101 101 77
Width: 444
Flags: W
LayerCount: 2
Fore
SplineSet
188 248 m 128,-1,1
 210 247 210 247 237.5 247 c 128,-1,2
 265 247 265 247 295 248 c 128,-1,3
 325 249 325 249 351.5 251 c 128,-1,4
 378 253 378 253 397.5 255 c 128,-1,5
 417 257 417 257 424 259 c 1,6,7
 427 301 427 301 424 342 c 128,-1,8
 421 383 421 383 406.5 417 c 128,-1,9
 392 451 392 451 364 475 c 128,-1,10
 336 499 336 499 290 507 c 0,11,12
 254 516 254 516 216 515 c 128,-1,13
 178 514 178 514 144 503.5 c 128,-1,14
 110 493 110 493 83 472.5 c 128,-1,15
 56 452 56 452 43 423 c 0,16,17
 31 390 31 390 27.5 355.5 c 128,-1,18
 24 321 24 321 21 284 c 0,19,20
 19 243 19 243 23 202 c 128,-1,21
 27 161 27 161 38 124.5 c 128,-1,22
 49 88 49 88 67 57.5 c 128,-1,23
 85 27 85 27 112 8 c 0,24,25
 136 -6 136 -6 164 -10 c 0,26,27
 192 -10 192 -10 225.5 -12 c 128,-1,28
 259 -14 259 -14 291 -12 c 128,-1,29
 323 -10 323 -10 350 0 c 128,-1,30
 377 10 377 10 394 34 c 0,31,32
 401 40 401 40 405.5 55.5 c 128,-1,33
 410 71 410 71 413 92.5 c 128,-1,34
 416 114 416 114 418 139 c 128,-1,35
 420 164 420 164 422 190 c 1,36,37
 411 193 411 193 394 193.5 c 128,-1,38
 377 194 377 194 358.5 193 c 128,-1,39
 340 192 340 192 323 191.5 c 128,-1,40
 306 191 306 191 296 192 c 1,41,42
 298 151 298 151 283.5 130.5 c 128,-1,43
 269 110 269 110 248 106 c 128,-1,44
 227 102 227 102 205 113 c 128,-1,45
 183 124 183 124 171 147 c 0,46,47
 160 165 160 165 158.5 184 c 128,-1,48
 157 203 157 203 156 233 c 2,49,-1
 156 251 l 1,50,0
 166 249 166 249 188 248 c 128,-1,1
305.5 379 m 128,-1,52
 316 361 316 361 316 341 c 0,53,54
 316 333 316 333 316 330.5 c 128,-1,55
 316 328 316 328 310.5 327.5 c 128,-1,56
 305 327 305 327 292 328 c 128,-1,57
 279 329 279 329 253 329 c 0,58,59
 215 329 215 329 195.5 328.5 c 128,-1,60
 176 328 176 328 167 329.5 c 128,-1,61
 158 331 158 331 157.5 335.5 c 128,-1,62
 157 340 157 340 159 351 c 0,63,64
 161 364 161 364 165.5 376 c 128,-1,65
 170 388 170 388 179 397 c 128,-1,66
 188 406 188 406 203 411 c 128,-1,67
 218 416 218 416 242 416 c 0,68,69
 253 416 253 416 261 413.5 c 128,-1,70
 269 411 269 411 277 406 c 0,71,51
 295 397 295 397 305.5 379 c 128,-1,52
EndSplineSet
EndChar

StartChar: eacute
Encoding: 233 233 78
Width: 444
Flags: W
LayerCount: 2
Fore
SplineSet
271 719.5 m 128,-1,1
 249 699 249 699 226.5 675.5 c 128,-1,2
 204 652 204 652 182.5 629.5 c 128,-1,3
 161 607 161 607 144 591 c 1,4,5
 151 589 151 589 166.5 587.5 c 128,-1,6
 182 586 182 586 201.5 585 c 128,-1,7
 221 584 221 584 241.5 584.5 c 128,-1,8
 262 585 262 585 278 587 c 1,9,10
 282 595 282 595 296 608 c 128,-1,11
 310 621 310 621 326 635.5 c 128,-1,12
 342 650 342 650 357 663 c 128,-1,13
 372 676 372 676 379 683 c 2,14,-1
 380 684 l 1,15,-1
 311 754 l 1,16,0
 293 740 293 740 271 719.5 c 128,-1,1
188.5 248 m 128,-1,18
 210 247 210 247 237.5 247 c 128,-1,19
 265 247 265 247 295 248 c 128,-1,20
 325 249 325 249 351.5 251 c 128,-1,21
 378 253 378 253 397.5 255 c 128,-1,22
 417 257 417 257 424 259 c 1,23,24
 427 301 427 301 424 342 c 128,-1,25
 421 383 421 383 406.5 417 c 128,-1,26
 392 451 392 451 364 475 c 128,-1,27
 336 499 336 499 290 507 c 0,28,29
 254 516 254 516 216 515 c 128,-1,30
 178 514 178 514 144 503.5 c 128,-1,31
 110 493 110 493 83 472.5 c 128,-1,32
 56 452 56 452 43 423 c 0,33,34
 31 390 31 390 27.5 355.5 c 128,-1,35
 24 321 24 321 21 284 c 0,36,37
 19 243 19 243 23 202 c 128,-1,38
 27 161 27 161 38 124.5 c 128,-1,39
 49 88 49 88 67 57.5 c 128,-1,40
 85 27 85 27 112 8 c 0,41,42
 136 -6 136 -6 164 -10 c 0,43,44
 192 -10 192 -10 225.5 -12 c 128,-1,45
 259 -14 259 -14 291 -12 c 128,-1,46
 323 -10 323 -10 350 0 c 128,-1,47
 377 10 377 10 394 34 c 0,48,49
 401 40 401 40 405.5 55.5 c 128,-1,50
 410 71 410 71 413 92.5 c 128,-1,51
 416 114 416 114 418 139 c 128,-1,52
 420 164 420 164 422 190 c 1,53,54
 411 193 411 193 394 193.5 c 128,-1,55
 377 194 377 194 358.5 193 c 128,-1,56
 340 192 340 192 323 191.5 c 128,-1,57
 306 191 306 191 296 192 c 1,58,59
 298 151 298 151 283.5 130.5 c 128,-1,60
 269 110 269 110 248 106 c 128,-1,61
 227 102 227 102 205 113 c 128,-1,62
 183 124 183 124 171 147 c 0,63,64
 160 165 160 165 158.5 184 c 128,-1,65
 157 203 157 203 156 233 c 2,66,-1
 156 251 l 1,67,17
 167 249 167 249 188.5 248 c 128,-1,18
305.5 379 m 128,-1,69
 316 361 316 361 316 341 c 0,70,71
 316 333 316 333 316 330.5 c 128,-1,72
 316 328 316 328 310.5 327.5 c 128,-1,73
 305 327 305 327 292 328 c 128,-1,74
 279 329 279 329 253 329 c 0,75,76
 215 329 215 329 195.5 328.5 c 128,-1,77
 176 328 176 328 167 329.5 c 128,-1,78
 158 331 158 331 157.5 335.5 c 128,-1,79
 157 340 157 340 159 351 c 0,80,81
 161 364 161 364 165.5 376 c 128,-1,82
 170 388 170 388 179 397 c 128,-1,83
 188 406 188 406 203 411 c 128,-1,84
 218 416 218 416 242 416 c 0,85,86
 253 416 253 416 261 413.5 c 128,-1,87
 269 411 269 411 277 406 c 0,88,68
 295 397 295 397 305.5 379 c 128,-1,69
EndSplineSet
EndChar

StartChar: ecircumflex
Encoding: 234 234 79
Width: 444
Flags: W
LayerCount: 2
Fore
SplineSet
148 678 m 128,-1,1
 106 640 106 640 72 594 c 1,2,3
 105 592 105 592 122.5 591 c 128,-1,4
 140 590 140 590 149.5 589.5 c 128,-1,5
 159 589 159 589 164.5 589 c 128,-1,6
 170 589 170 589 179 590 c 0,7,8
 183 591 183 591 190 598 c 128,-1,9
 197 605 197 605 205 613.5 c 128,-1,10
 213 622 213 622 220 629.5 c 128,-1,11
 227 637 227 637 231 639 c 0,12,13
 236 636 236 636 243 628 c 128,-1,14
 250 620 250 620 257.5 611.5 c 128,-1,15
 265 603 265 603 272 596.5 c 128,-1,16
 279 590 279 590 282 590 c 0,17,18
 306 587 306 587 326.5 588 c 128,-1,19
 347 589 347 589 362.5 591 c 128,-1,20
 378 593 378 593 387 594.5 c 128,-1,21
 396 596 396 596 397 595 c 1,22,-1
 234 757 l 1,23,0
 190 716 190 716 148 678 c 128,-1,1
188.5 248 m 128,-1,25
 210 247 210 247 237.5 247 c 128,-1,26
 265 247 265 247 295 248 c 128,-1,27
 325 249 325 249 351.5 251 c 128,-1,28
 378 253 378 253 397.5 255 c 128,-1,29
 417 257 417 257 424 259 c 1,30,31
 427 301 427 301 424 342 c 128,-1,32
 421 383 421 383 406.5 417 c 128,-1,33
 392 451 392 451 364 475 c 128,-1,34
 336 499 336 499 290 507 c 0,35,36
 254 516 254 516 216 515 c 128,-1,37
 178 514 178 514 144 503.5 c 128,-1,38
 110 493 110 493 83 472.5 c 128,-1,39
 56 452 56 452 43 423 c 0,40,41
 31 390 31 390 27.5 355.5 c 128,-1,42
 24 321 24 321 21 284 c 0,43,44
 19 243 19 243 23 202 c 128,-1,45
 27 161 27 161 38 124.5 c 128,-1,46
 49 88 49 88 67 57.5 c 128,-1,47
 85 27 85 27 112 8 c 0,48,49
 136 -6 136 -6 164 -10 c 0,50,51
 192 -10 192 -10 225.5 -12 c 128,-1,52
 259 -14 259 -14 291 -12 c 128,-1,53
 323 -10 323 -10 350 0 c 128,-1,54
 377 10 377 10 394 34 c 0,55,56
 401 40 401 40 405.5 55.5 c 128,-1,57
 410 71 410 71 413 92.5 c 128,-1,58
 416 114 416 114 418 139 c 128,-1,59
 420 164 420 164 422 190 c 1,60,61
 411 193 411 193 394 193.5 c 128,-1,62
 377 194 377 194 358.5 193 c 128,-1,63
 340 192 340 192 323 191.5 c 128,-1,64
 306 191 306 191 296 192 c 1,65,66
 298 151 298 151 283.5 130.5 c 128,-1,67
 269 110 269 110 248 106 c 128,-1,68
 227 102 227 102 205 113 c 128,-1,69
 183 124 183 124 171 147 c 0,70,71
 160 165 160 165 158.5 184 c 128,-1,72
 157 203 157 203 156 233 c 2,73,-1
 156 251 l 1,74,24
 167 249 167 249 188.5 248 c 128,-1,25
305.5 379 m 128,-1,76
 316 361 316 361 316 341 c 0,77,78
 316 333 316 333 316 330.5 c 128,-1,79
 316 328 316 328 310.5 327.5 c 128,-1,80
 305 327 305 327 292 328 c 128,-1,81
 279 329 279 329 253 329 c 0,82,83
 215 329 215 329 195.5 328.5 c 128,-1,84
 176 328 176 328 167 329.5 c 128,-1,85
 158 331 158 331 157.5 335.5 c 128,-1,86
 157 340 157 340 159 351 c 0,87,88
 161 364 161 364 165.5 376 c 128,-1,89
 170 388 170 388 179 397 c 128,-1,90
 188 406 188 406 203 411 c 128,-1,91
 218 416 218 416 242 416 c 0,92,93
 253 416 253 416 261 413.5 c 128,-1,94
 269 411 269 411 277 406 c 0,95,75
 295 397 295 397 305.5 379 c 128,-1,76
EndSplineSet
EndChar

StartChar: edieresis
Encoding: 235 235 80
Width: 444
Flags: W
LayerCount: 2
Fore
SplineSet
63.5 682.5 m 128,-1,1
 66 651 66 651 66 622 c 1,2,3
 85 623 85 623 107 621.5 c 128,-1,4
 129 620 129 620 148.5 619.5 c 128,-1,5
 168 619 168 619 182.5 621 c 128,-1,6
 197 623 197 623 201 629 c 1,7,8
 201 644 201 644 200.5 663.5 c 128,-1,9
 200 683 200 683 199.5 701.5 c 128,-1,10
 199 720 199 720 198.5 735.5 c 128,-1,11
 198 751 198 751 198 757 c 1,12,-1
 62 760 l 1,13,0
 61 714 61 714 63.5 682.5 c 128,-1,1
247.5 682.5 m 128,-1,15
 250 651 250 651 250 622 c 1,16,17
 269 623 269 623 291 621.5 c 128,-1,18
 313 620 313 620 332.5 619.5 c 128,-1,19
 352 619 352 619 366.5 621 c 128,-1,20
 381 623 381 623 385 629 c 1,21,22
 385 644 385 644 384.5 663.5 c 128,-1,23
 384 683 384 683 383.5 701.5 c 128,-1,24
 383 720 383 720 382.5 735.5 c 128,-1,25
 382 751 382 751 382 757 c 1,26,-1
 246 760 l 1,27,14
 245 714 245 714 247.5 682.5 c 128,-1,15
188 248 m 128,-1,29
 210 247 210 247 237.5 247 c 128,-1,30
 265 247 265 247 295 248 c 128,-1,31
 325 249 325 249 351.5 251 c 128,-1,32
 378 253 378 253 397.5 255 c 128,-1,33
 417 257 417 257 424 259 c 1,34,35
 427 301 427 301 424 342 c 128,-1,36
 421 383 421 383 406.5 417 c 128,-1,37
 392 451 392 451 364 475 c 128,-1,38
 336 499 336 499 290 507 c 0,39,40
 254 516 254 516 216 515 c 128,-1,41
 178 514 178 514 144 503.5 c 128,-1,42
 110 493 110 493 83 472.5 c 128,-1,43
 56 452 56 452 43 423 c 0,44,45
 31 390 31 390 27.5 355.5 c 128,-1,46
 24 321 24 321 21 284 c 0,47,48
 19 243 19 243 23 202 c 128,-1,49
 27 161 27 161 38 124.5 c 128,-1,50
 49 88 49 88 67 57.5 c 128,-1,51
 85 27 85 27 112 8 c 0,52,53
 136 -6 136 -6 164 -10 c 0,54,55
 192 -10 192 -10 225.5 -12 c 128,-1,56
 259 -14 259 -14 291 -12 c 128,-1,57
 323 -10 323 -10 350 0 c 128,-1,58
 377 10 377 10 394 34 c 0,59,60
 401 40 401 40 405.5 55.5 c 128,-1,61
 410 71 410 71 413 92.5 c 128,-1,62
 416 114 416 114 418 139 c 128,-1,63
 420 164 420 164 422 190 c 1,64,65
 411 193 411 193 394 193.5 c 128,-1,66
 377 194 377 194 358.5 193 c 128,-1,67
 340 192 340 192 323 191.5 c 128,-1,68
 306 191 306 191 296 192 c 1,69,70
 298 151 298 151 283.5 130.5 c 128,-1,71
 269 110 269 110 248 106 c 128,-1,72
 227 102 227 102 205 113 c 128,-1,73
 183 124 183 124 171 147 c 0,74,75
 160 165 160 165 158.5 184 c 128,-1,76
 157 203 157 203 156 233 c 2,77,-1
 156 251 l 1,78,28
 166 249 166 249 188 248 c 128,-1,29
305.5 379 m 128,-1,80
 316 361 316 361 316 341 c 0,81,82
 316 333 316 333 316 330.5 c 128,-1,83
 316 328 316 328 310.5 327.5 c 128,-1,84
 305 327 305 327 292 328 c 128,-1,85
 279 329 279 329 253 329 c 0,86,87
 215 329 215 329 195.5 328.5 c 128,-1,88
 176 328 176 328 167 329.5 c 128,-1,89
 158 331 158 331 157.5 335.5 c 128,-1,90
 157 340 157 340 159 351 c 0,91,92
 161 364 161 364 165.5 376 c 128,-1,93
 170 388 170 388 179 397 c 128,-1,94
 188 406 188 406 203 411 c 128,-1,95
 218 416 218 416 242 416 c 0,96,97
 253 416 253 416 261 413.5 c 128,-1,98
 269 411 269 411 277 406 c 0,99,79
 295 397 295 397 305.5 379 c 128,-1,80
EndSplineSet
EndChar

StartChar: egrave
Encoding: 232 232 81
Width: 444
Flags: W
LayerCount: 2
Fore
SplineSet
93 683 m 2,0,1
 100 676 100 676 115 663 c 128,-1,2
 130 650 130 650 146 635.5 c 128,-1,3
 162 621 162 621 175.5 608 c 128,-1,4
 189 595 189 595 194 587 c 1,5,6
 210 585 210 585 230 584.5 c 128,-1,7
 250 584 250 584 269.5 585 c 128,-1,8
 289 586 289 586 305 587.5 c 128,-1,9
 321 589 321 589 328 591 c 1,10,11
 311 607 311 607 289.5 629.5 c 128,-1,12
 268 652 268 652 245.5 675.5 c 128,-1,13
 223 699 223 699 201 719.5 c 128,-1,14
 179 740 179 740 161 754 c 1,15,-1
 92 684 l 1,16,-1
 93 683 l 2,0,1
188 248 m 128,-1,18
 210 247 210 247 237.5 247 c 128,-1,19
 265 247 265 247 295 248 c 128,-1,20
 325 249 325 249 351.5 251 c 128,-1,21
 378 253 378 253 397.5 255 c 128,-1,22
 417 257 417 257 424 259 c 1,23,24
 427 301 427 301 424 342 c 128,-1,25
 421 383 421 383 406.5 417 c 128,-1,26
 392 451 392 451 364 475 c 128,-1,27
 336 499 336 499 290 507 c 0,28,29
 254 516 254 516 216 515 c 128,-1,30
 178 514 178 514 144 503.5 c 128,-1,31
 110 493 110 493 83 472.5 c 128,-1,32
 56 452 56 452 43 423 c 0,33,34
 31 390 31 390 27.5 355.5 c 128,-1,35
 24 321 24 321 21 284 c 0,36,37
 19 243 19 243 23 202 c 128,-1,38
 27 161 27 161 38 124.5 c 128,-1,39
 49 88 49 88 67 57.5 c 128,-1,40
 85 27 85 27 112 8 c 0,41,42
 136 -6 136 -6 164 -10 c 0,43,44
 192 -10 192 -10 225.5 -12 c 128,-1,45
 259 -14 259 -14 291 -12 c 128,-1,46
 323 -10 323 -10 350 0 c 128,-1,47
 377 10 377 10 394 34 c 0,48,49
 401 40 401 40 405.5 55.5 c 128,-1,50
 410 71 410 71 413 92.5 c 128,-1,51
 416 114 416 114 418 139 c 128,-1,52
 420 164 420 164 422 190 c 1,53,54
 411 193 411 193 394 193.5 c 128,-1,55
 377 194 377 194 358.5 193 c 128,-1,56
 340 192 340 192 323 191.5 c 128,-1,57
 306 191 306 191 296 192 c 1,58,59
 298 151 298 151 283.5 130.5 c 128,-1,60
 269 110 269 110 248 106 c 128,-1,61
 227 102 227 102 205 113 c 128,-1,62
 183 124 183 124 171 147 c 0,63,64
 160 165 160 165 158.5 184 c 128,-1,65
 157 203 157 203 156 233 c 2,66,-1
 156 251 l 1,67,17
 166 249 166 249 188 248 c 128,-1,18
305.5 379 m 128,-1,69
 316 361 316 361 316 341 c 0,70,71
 316 333 316 333 316 330.5 c 128,-1,72
 316 328 316 328 310.5 327.5 c 128,-1,73
 305 327 305 327 292 328 c 128,-1,74
 279 329 279 329 253 329 c 0,75,76
 215 329 215 329 195.5 328.5 c 128,-1,77
 176 328 176 328 167 329.5 c 128,-1,78
 158 331 158 331 157.5 335.5 c 128,-1,79
 157 340 157 340 159 351 c 0,80,81
 161 364 161 364 165.5 376 c 128,-1,82
 170 388 170 388 179 397 c 128,-1,83
 188 406 188 406 203 411 c 128,-1,84
 218 416 218 416 242 416 c 0,85,86
 253 416 253 416 261 413.5 c 128,-1,87
 269 411 269 411 277 406 c 0,88,68
 295 397 295 397 305.5 379 c 128,-1,69
EndSplineSet
EndChar

StartChar: f
Encoding: 102 102 82
Width: 379
Flags: W
LayerCount: 2
Fore
SplineSet
216 356 m 1,0,1
 247 355 247 355 281.5 353 c 128,-1,2
 316 351 316 351 367 348 c 1,3,4
 369 367 369 367 370 378 c 128,-1,5
 371 389 371 389 371.5 396 c 128,-1,6
 372 403 372 403 372 409.5 c 128,-1,7
 372 416 372 416 372 427 c 0,8,9
 373 441 373 441 372 451.5 c 128,-1,10
 371 462 371 462 373 473 c 1,11,-1
 220 473 l 1,12,13
 215 498 215 498 220.5 517.5 c 128,-1,14
 226 537 226 537 249 541 c 0,15,16
 263 543 263 543 280 545.5 c 128,-1,17
 297 548 297 548 314 550 c 128,-1,18
 331 552 331 552 346.5 553 c 128,-1,19
 362 554 362 554 374 553 c 1,20,21
 376 567 376 567 378 584 c 128,-1,22
 380 601 380 601 381 619 c 128,-1,23
 382 637 382 637 380.5 655 c 128,-1,24
 379 673 379 673 374 688 c 1,25,26
 327 690 327 690 277.5 686.5 c 128,-1,27
 228 683 228 683 186 669 c 0,28,29
 152 658 152 658 131 635.5 c 128,-1,30
 110 613 110 613 98.5 585.5 c 128,-1,31
 87 558 87 558 84 529 c 128,-1,32
 81 500 81 500 83 475 c 1,33,34
 67 476 67 476 49.5 476 c 128,-1,35
 32 476 32 476 11 476 c 1,36,-1
 14 354 l 1,37,38
 34 355 34 355 51.5 355 c 128,-1,39
 69 355 69 355 85 355 c 1,40,41
 85 340 85 340 84.5 312 c 128,-1,42
 84 284 84 284 83.5 248.5 c 128,-1,43
 83 213 83 213 83 175 c 128,-1,44
 83 137 83 137 83.5 102.5 c 128,-1,45
 84 68 84 68 84.5 40.5 c 128,-1,46
 85 13 85 13 87 1 c 1,47,48
 100 -1 100 -1 115.5 0 c 128,-1,49
 131 1 131 1 148 2.5 c 128,-1,50
 165 4 165 4 182 5 c 128,-1,51
 199 6 199 6 216 4 c 1,52,-1
 216 138 l 1,53,-1
 216 356 l 1,0,1
EndSplineSet
EndChar

StartChar: g
Encoding: 103 103 83
Width: 467
Flags: W
LayerCount: 2
Fore
SplineSet
135 256.5 m 128,-1,1
 135 266 135 266 137 276 c 0,2,3
 141 299 141 299 151.5 319.5 c 128,-1,4
 162 340 162 340 177 357 c 0,5,6
 189 367 189 367 204.5 371.5 c 128,-1,7
 220 376 220 376 236 374 c 128,-1,8
 252 372 252 372 265.5 363.5 c 128,-1,9
 279 355 279 355 285 340 c 0,10,11
 295 302 295 302 296.5 260.5 c 128,-1,12
 298 219 298 219 298 179 c 0,13,14
 297 170 297 170 295.5 160.5 c 128,-1,15
 294 151 294 151 291 142.5 c 128,-1,16
 288 134 288 134 283 127.5 c 128,-1,17
 278 121 278 121 269 118 c 0,18,19
 243 110 243 110 213 114.5 c 128,-1,20
 183 119 183 119 165 141 c 0,21,22
 135 177 135 177 135 228 c 2,23,-1
 135 237 l 2,24,0
 135 247 135 247 135 256.5 c 128,-1,1
334 -196 m 128,-1,26
 348 -193 348 -193 362 -185.5 c 128,-1,27
 376 -178 376 -178 390.5 -165 c 128,-1,28
 405 -152 405 -152 419 -130 c 0,29,30
 429 -114 429 -114 428 -90.5 c 128,-1,31
 427 -67 427 -67 428 -43 c 0,32,33
 434 101 434 101 433.5 237.5 c 128,-1,34
 433 374 433 374 429 499 c 1,35,36
 395 499 395 499 361 500.5 c 128,-1,37
 327 502 327 502 294 498 c 1,38,39
 291 493 291 493 291.5 484.5 c 128,-1,40
 292 476 292 476 292.5 467.5 c 128,-1,41
 293 459 293 459 292.5 453.5 c 128,-1,42
 292 448 292 448 288 450 c 0,43,44
 276 478 276 478 248.5 488.5 c 128,-1,45
 221 499 221 499 189 497 c 0,46,47
 125 493 125 493 91 460.5 c 128,-1,48
 57 428 57 428 41.5 380.5 c 128,-1,49
 26 333 26 333 24 279 c 128,-1,50
 22 225 22 225 22 178 c 0,51,52
 24 147 24 147 30 117.5 c 128,-1,53
 36 88 36 88 50 61 c 0,54,55
 59 42 59 42 73 30 c 128,-1,56
 87 18 87 18 104.5 11 c 128,-1,57
 122 4 122 4 141.5 1 c 128,-1,58
 161 -2 161 -2 180 -2 c 0,59,60
 194 -1 194 -1 210 -1 c 128,-1,61
 226 -1 226 -1 241.5 1 c 128,-1,62
 257 3 257 3 270.5 8 c 128,-1,63
 284 13 284 13 294 24 c 1,64,65
 292 6 292 6 294 -11 c 0,66,67
 295 -19 295 -19 294 -29.5 c 128,-1,68
 293 -40 293 -40 292 -50 c 0,69,70
 286 -78 286 -78 266.5 -90 c 128,-1,71
 247 -102 247 -102 226.5 -100 c 128,-1,72
 206 -98 206 -98 189.5 -82.5 c 128,-1,73
 173 -67 173 -67 173 -41 c 1,74,75
 161 -39 161 -39 143.5 -37.5 c 128,-1,76
 126 -36 126 -36 107.5 -35.5 c 128,-1,77
 89 -35 89 -35 72 -36.5 c 128,-1,78
 55 -38 55 -38 45 -42 c 1,79,80
 44 -50 44 -50 44.5 -61 c 128,-1,81
 45 -72 45 -72 47.5 -84 c 128,-1,82
 50 -96 50 -96 53.5 -107.5 c 128,-1,83
 57 -119 57 -119 61 -126 c 0,84,85
 84 -160 84 -160 121 -180 c 128,-1,86
 158 -200 158 -200 205 -200 c 0,87,88
 246 -200 246 -200 272 -201 c 128,-1,89
 298 -202 298 -202 308 -200 c 0,90,25
 320 -199 320 -199 334 -196 c 128,-1,26
EndSplineSet
EndChar

StartChar: h
Encoding: 104 104 84
Width: 448
Flags: W
LayerCount: 2
Fore
SplineSet
167 471 m 128,-1,1
 167 492 167 492 167 521 c 128,-1,2
 167 550 167 550 167 583.5 c 128,-1,3
 167 617 167 617 167 646.5 c 128,-1,4
 167 676 167 676 167 697.5 c 128,-1,5
 167 719 167 719 166 724 c 0,6,7
 166 727 166 727 158 727.5 c 128,-1,8
 150 728 150 728 140 727 c 128,-1,9
 130 726 130 726 120 724.5 c 128,-1,10
 110 723 110 723 106 723 c 0,11,12
 94 722 94 722 86 721.5 c 128,-1,13
 78 721 78 721 71 721 c 128,-1,14
 64 721 64 721 56 721.5 c 128,-1,15
 48 722 48 722 36 723 c 1,16,17
 35 679 35 679 34.5 619.5 c 128,-1,18
 34 560 34 560 34 493 c 128,-1,19
 34 426 34 426 34 355.5 c 128,-1,20
 34 285 34 285 34.5 219 c 128,-1,21
 35 153 35 153 35.5 95.5 c 128,-1,22
 36 38 36 38 36 -3 c 1,23,24
 60 -1 60 -1 76 -2 c 128,-1,25
 92 -3 92 -3 105 -3.5 c 128,-1,26
 118 -4 118 -4 130.5 -3 c 128,-1,27
 143 -2 143 -2 160 3 c 1,28,-1
 160 7 l 1,29,30
 164 40 164 40 164 73 c 128,-1,31
 164 106 164 106 162.5 139.5 c 128,-1,32
 161 173 161 173 160 206.5 c 128,-1,33
 159 240 159 240 161 275 c 0,34,35
 163 302 163 302 175 315.5 c 128,-1,36
 187 329 187 329 202 333.5 c 128,-1,37
 217 338 217 338 232.5 335.5 c 128,-1,38
 248 333 248 333 256 329 c 0,39,40
 257 328 257 328 258 328 c 128,-1,41
 259 328 259 328 260 327 c 0,42,43
 268 321 268 321 272.5 310 c 128,-1,44
 277 299 277 299 279.5 285 c 128,-1,45
 282 271 282 271 283 256.5 c 128,-1,46
 284 242 284 242 285 230 c 0,47,48
 287 203 287 203 287.5 172 c 128,-1,49
 288 141 288 141 287.5 110 c 128,-1,50
 287 79 287 79 287 50 c 128,-1,51
 287 21 287 21 289 -2 c 1,52,53
 324 -2 324 -2 351.5 -2.5 c 128,-1,54
 379 -3 379 -3 414 2 c 1,55,56
 412 36 412 36 413 81 c 128,-1,57
 414 126 414 126 415 174.5 c 128,-1,58
 416 223 416 223 416.5 270.5 c 128,-1,59
 417 318 417 318 415.5 358 c 128,-1,60
 414 398 414 398 408.5 426.5 c 128,-1,61
 403 455 403 455 393 464 c 0,62,63
 372 482 372 482 346 489 c 128,-1,64
 320 496 320 496 292.5 495 c 128,-1,65
 265 494 265 494 239 485 c 128,-1,66
 213 476 213 476 192 461 c 0,67,68
 187 457 187 457 179.5 453 c 128,-1,69
 172 449 172 449 167 446 c 1,70,0
 167 450 167 450 167 471 c 128,-1,1
EndSplineSet
EndChar

StartChar: i
Encoding: 105 105 85
Width: 207
Flags: W
LayerCount: 2
Fore
SplineSet
103 503 m 128,-1,1
 80 504 80 504 67 505 c 0,2,3
 62 505 62 505 52.5 506 c 128,-1,4
 43 507 43 507 39 506 c 1,5,-1
 39 505 l 1,6,7
 33 446 33 446 33 383.5 c 128,-1,8
 33 321 33 321 35 257 c 128,-1,9
 37 193 37 193 37.5 128 c 128,-1,10
 38 63 38 63 33 0 c 1,11,12
 40 2 40 2 61 1 c 128,-1,13
 82 0 82 0 105.5 -0.5 c 128,-1,14
 129 -1 129 -1 149 -0.5 c 128,-1,15
 169 0 169 0 174 6 c 1,16,17
 167 127 167 127 170.5 253 c 128,-1,18
 174 379 174 379 175 500 c 2,19,-1
 175 503 l 1,20,-1
 158 503 l 2,21,0
 126 502 126 502 103 503 c 128,-1,1
36.5 643.5 m 128,-1,23
 39 612 39 612 39 583 c 1,24,25
 58 584 58 584 80 582.5 c 128,-1,26
 102 581 102 581 121.5 580.5 c 128,-1,27
 141 580 141 580 155.5 582 c 128,-1,28
 170 584 170 584 174 590 c 1,29,30
 174 605 174 605 173.5 624.5 c 128,-1,31
 173 644 173 644 172.5 662.5 c 128,-1,32
 172 681 172 681 171.5 696.5 c 128,-1,33
 171 712 171 712 171 718 c 1,34,-1
 35 721 l 1,35,22
 34 675 34 675 36.5 643.5 c 128,-1,23
EndSplineSet
EndChar

StartChar: iacute
Encoding: 237 237 86
Width: 207
Flags: W
LayerCount: 2
Fore
SplineSet
32 500 m 2,0,1
 33 379 33 379 36.5 253 c 128,-1,2
 40 127 40 127 33 6 c 1,3,4
 38 0 38 0 58 -0.5 c 128,-1,5
 78 -1 78 -1 101.5 -0.5 c 128,-1,6
 125 0 125 0 146 1 c 128,-1,7
 167 2 167 2 174 0 c 1,8,9
 169 63 169 63 169.5 128 c 128,-1,10
 170 193 170 193 172 257 c 128,-1,11
 174 321 174 321 174 383.5 c 128,-1,12
 174 446 174 446 168 505 c 1,13,-1
 168 506 l 1,14,15
 164 507 164 507 154.5 506 c 128,-1,16
 145 505 145 505 140 505 c 0,17,18
 127 504 127 504 104 503 c 128,-1,19
 81 502 81 502 49 503 c 2,20,-1
 32 503 l 1,21,-1
 32 500 l 2,0,1
154 719.5 m 128,-1,23
 132 699 132 699 109.5 675.5 c 128,-1,24
 87 652 87 652 65.5 629.5 c 128,-1,25
 44 607 44 607 27 591 c 1,26,27
 34 589 34 589 49.5 587.5 c 128,-1,28
 65 586 65 586 84.5 585 c 128,-1,29
 104 584 104 584 124.5 584.5 c 128,-1,30
 145 585 145 585 161 587 c 1,31,32
 165 595 165 595 179 608 c 128,-1,33
 193 621 193 621 209 635.5 c 128,-1,34
 225 650 225 650 240 663 c 128,-1,35
 255 676 255 676 262 683 c 2,36,-1
 263 684 l 1,37,-1
 194 754 l 1,38,22
 176 740 176 740 154 719.5 c 128,-1,23
EndSplineSet
EndChar

StartChar: icircumflex
Encoding: 238 238 87
Width: 207
Flags: W
LayerCount: 2
Fore
SplineSet
103 503 m 128,-1,1
 80 504 80 504 67 505 c 0,2,3
 62 505 62 505 52.5 506 c 128,-1,4
 43 507 43 507 39 506 c 1,5,-1
 39 505 l 1,6,7
 33 446 33 446 33 383.5 c 128,-1,8
 33 321 33 321 35 257 c 128,-1,9
 37 193 37 193 37.5 128 c 128,-1,10
 38 63 38 63 33 0 c 1,11,12
 40 2 40 2 61 1 c 128,-1,13
 82 0 82 0 105.5 -0.5 c 128,-1,14
 129 -1 129 -1 149 -0.5 c 128,-1,15
 169 0 169 0 174 6 c 1,16,17
 167 127 167 127 170.5 253 c 128,-1,18
 174 379 174 379 175 500 c 2,19,-1
 175 503 l 1,20,-1
 158 503 l 2,21,0
 126 502 126 502 103 503 c 128,-1,1
22 678 m 128,-1,23
 -20 640 -20 640 -54 594 c 1,24,25
 -21 592 -21 592 -3.5 591 c 128,-1,26
 14 590 14 590 23.5 589.5 c 128,-1,27
 33 589 33 589 38.5 589 c 128,-1,28
 44 589 44 589 53 590 c 0,29,30
 57 591 57 591 64 598 c 128,-1,31
 71 605 71 605 79 613.5 c 128,-1,32
 87 622 87 622 94 629.5 c 128,-1,33
 101 637 101 637 105 639 c 0,34,35
 110 636 110 636 117 628 c 128,-1,36
 124 620 124 620 131.5 611.5 c 128,-1,37
 139 603 139 603 146 596.5 c 128,-1,38
 153 590 153 590 156 590 c 0,39,40
 180 587 180 587 200.5 588 c 128,-1,41
 221 589 221 589 236.5 591 c 128,-1,42
 252 593 252 593 261 594.5 c 128,-1,43
 270 596 270 596 271 595 c 1,44,-1
 108 757 l 1,45,22
 64 716 64 716 22 678 c 128,-1,23
EndSplineSet
EndChar

StartChar: idieresis
Encoding: 239 239 88
Width: 207
Flags: W
LayerCount: 2
Fore
SplineSet
-53.5 682.5 m 128,-1,1
 -51 651 -51 651 -51 622 c 1,2,3
 -32 623 -32 623 -10 621.5 c 128,-1,4
 12 620 12 620 31.5 619.5 c 128,-1,5
 51 619 51 619 65.5 621 c 128,-1,6
 80 623 80 623 84 629 c 1,7,8
 84 644 84 644 83.5 663.5 c 128,-1,9
 83 683 83 683 82.5 701.5 c 128,-1,10
 82 720 82 720 81.5 735.5 c 128,-1,11
 81 751 81 751 81 757 c 1,12,-1
 -55 760 l 1,13,0
 -56 714 -56 714 -53.5 682.5 c 128,-1,1
130.5 682.5 m 128,-1,15
 133 651 133 651 133 622 c 1,16,17
 152 623 152 623 174 621.5 c 128,-1,18
 196 620 196 620 215.5 619.5 c 128,-1,19
 235 619 235 619 249.5 621 c 128,-1,20
 264 623 264 623 268 629 c 1,21,22
 268 644 268 644 267.5 663.5 c 128,-1,23
 267 683 267 683 266.5 701.5 c 128,-1,24
 266 720 266 720 265.5 735.5 c 128,-1,25
 265 751 265 751 265 757 c 1,26,-1
 129 760 l 1,27,14
 128 714 128 714 130.5 682.5 c 128,-1,15
103 503 m 128,-1,29
 80 504 80 504 67 505 c 0,30,31
 62 505 62 505 52.5 506 c 128,-1,32
 43 507 43 507 39 506 c 1,33,-1
 39 505 l 1,34,35
 33 446 33 446 33 383.5 c 128,-1,36
 33 321 33 321 35 257 c 128,-1,37
 37 193 37 193 37.5 128 c 128,-1,38
 38 63 38 63 33 0 c 1,39,40
 40 2 40 2 61 1 c 128,-1,41
 82 0 82 0 105.5 -0.5 c 128,-1,42
 129 -1 129 -1 149 -0.5 c 128,-1,43
 169 0 169 0 174 6 c 1,44,45
 167 127 167 127 170.5 253 c 128,-1,46
 174 379 174 379 175 500 c 2,47,-1
 175 503 l 1,48,-1
 158 503 l 2,49,28
 126 502 126 502 103 503 c 128,-1,29
EndSplineSet
EndChar

StartChar: igrave
Encoding: 236 236 89
Width: 207
Flags: W
LayerCount: 2
Fore
SplineSet
103 503 m 128,-1,1
 80 504 80 504 67 505 c 0,2,3
 62 505 62 505 52.5 506 c 128,-1,4
 43 507 43 507 39 506 c 1,5,-1
 39 505 l 1,6,7
 33 446 33 446 33 383.5 c 128,-1,8
 33 321 33 321 35 257 c 128,-1,9
 37 193 37 193 37.5 128 c 128,-1,10
 38 63 38 63 33 0 c 1,11,12
 40 2 40 2 61 1 c 128,-1,13
 82 0 82 0 105.5 -0.5 c 128,-1,14
 129 -1 129 -1 149 -0.5 c 128,-1,15
 169 0 169 0 174 6 c 1,16,17
 167 127 167 127 170.5 253 c 128,-1,18
 174 379 174 379 175 500 c 2,19,-1
 175 503 l 1,20,-1
 158 503 l 2,21,0
 126 502 126 502 103 503 c 128,-1,1
-55 683 m 2,22,23
 -48 676 -48 676 -33 663 c 128,-1,24
 -18 650 -18 650 -2 635.5 c 128,-1,25
 14 621 14 621 27.5 608 c 128,-1,26
 41 595 41 595 46 587 c 1,27,28
 62 585 62 585 82 584.5 c 128,-1,29
 102 584 102 584 121.5 585 c 128,-1,30
 141 586 141 586 157 587.5 c 128,-1,31
 173 589 173 589 180 591 c 1,32,33
 163 607 163 607 141.5 629.5 c 128,-1,34
 120 652 120 652 97.5 675.5 c 128,-1,35
 75 699 75 699 53 719.5 c 128,-1,36
 31 740 31 740 13 754 c 1,37,-1
 -56 684 l 1,38,-1
 -55 683 l 2,22,23
EndSplineSet
EndChar

StartChar: ij
Encoding: 307 307 90
Width: 500
Flags: W
LayerCount: 2
Fore
SplineSet
103 503 m 128,-1,1
 80 504 80 504 67 505 c 0,2,3
 62 505 62 505 52.5 506 c 128,-1,4
 43 507 43 507 39 506 c 1,5,-1
 39 505 l 1,6,7
 33 446 33 446 33 383.5 c 128,-1,8
 33 321 33 321 35 257 c 128,-1,9
 37 193 37 193 37.5 128 c 128,-1,10
 38 63 38 63 33 0 c 1,11,12
 40 2 40 2 61 1 c 128,-1,13
 82 0 82 0 105.5 -0.5 c 128,-1,14
 129 -1 129 -1 149 -0.5 c 128,-1,15
 169 0 169 0 174 6 c 1,16,17
 167 127 167 127 170.5 253 c 128,-1,18
 174 379 174 379 175 500 c 2,19,-1
 175 503 l 1,20,-1
 158 503 l 2,21,0
 126 502 126 502 103 503 c 128,-1,1
36.5 643.5 m 128,-1,23
 39 612 39 612 39 583 c 1,24,25
 58 584 58 584 80 582.5 c 128,-1,26
 102 581 102 581 121.5 580.5 c 128,-1,27
 141 580 141 580 155.5 582 c 128,-1,28
 170 584 170 584 174 590 c 1,29,30
 174 605 174 605 173.5 624.5 c 128,-1,31
 173 644 173 644 172.5 662.5 c 128,-1,32
 172 681 172 681 171.5 696.5 c 128,-1,33
 171 712 171 712 171 718 c 1,34,-1
 35 721 l 1,35,22
 34 675 34 675 36.5 643.5 c 128,-1,23
331.5 276 m 128,-1,37
 331 228 331 228 331 178 c 128,-1,38
 331 128 331 128 331 79 c 128,-1,39
 331 30 331 30 330 -12 c 1,40,41
 320 -26 320 -26 301 -34 c 128,-1,42
 282 -42 282 -42 260 -46.5 c 128,-1,43
 238 -51 238 -51 215.5 -52 c 128,-1,44
 193 -53 193 -53 176 -52 c 1,45,46
 174 -66 174 -66 172 -83 c 128,-1,47
 170 -100 170 -100 169 -118 c 128,-1,48
 168 -136 168 -136 169.5 -154 c 128,-1,49
 171 -172 171 -172 176 -187 c 1,50,51
 216 -189 216 -189 259 -186.5 c 128,-1,52
 302 -184 302 -184 340 -175 c 128,-1,53
 378 -166 378 -166 407.5 -148 c 128,-1,54
 437 -130 437 -130 450 -99 c 1,55,56
 458 -51 458 -51 461.5 -6.5 c 128,-1,57
 465 38 465 38 465.5 81.5 c 128,-1,58
 466 125 466 125 465.5 169.5 c 128,-1,59
 465 214 465 214 465 263 c 0,60,61
 463 281 463 281 464 311.5 c 128,-1,62
 465 342 465 342 465.5 375.5 c 128,-1,63
 466 409 466 409 466 442.5 c 128,-1,64
 466 476 466 476 463 500 c 1,65,66
 450 502 450 502 434.5 501 c 128,-1,67
 419 500 419 500 402 498.5 c 128,-1,68
 385 497 385 497 367.5 496 c 128,-1,69
 350 495 350 495 334 497 c 1,70,-1
 334 363 l 2,71,36
 332 324 332 324 331.5 276 c 128,-1,37
329.5 643.5 m 128,-1,73
 332 612 332 612 332 583 c 1,74,75
 351 584 351 584 373 582.5 c 128,-1,76
 395 581 395 581 413.5 580.5 c 128,-1,77
 432 580 432 580 446 582 c 128,-1,78
 460 584 460 584 464 590 c 1,79,80
 464 605 464 605 463.5 624.5 c 128,-1,81
 463 644 463 644 462.5 662.5 c 128,-1,82
 462 681 462 681 461.5 696.5 c 128,-1,83
 461 712 461 712 461 718 c 1,84,-1
 328 721 l 1,85,72
 327 675 327 675 329.5 643.5 c 128,-1,73
EndSplineSet
EndChar

StartChar: j
Encoding: 106 106 91
Width: 204
Flags: W
LayerCount: 2
Fore
SplineSet
35.5 276 m 128,-1,1
 35 228 35 228 35 178 c 128,-1,2
 35 128 35 128 35 79 c 128,-1,3
 35 30 35 30 34 -12 c 1,4,5
 24 -26 24 -26 5 -34 c 128,-1,6
 -14 -42 -14 -42 -36 -46.5 c 128,-1,7
 -58 -51 -58 -51 -80.5 -52 c 128,-1,8
 -103 -53 -103 -53 -120 -52 c 1,9,10
 -122 -66 -122 -66 -124 -83 c 128,-1,11
 -126 -100 -126 -100 -127 -118 c 128,-1,12
 -128 -136 -128 -136 -126.5 -154 c 128,-1,13
 -125 -172 -125 -172 -120 -187 c 1,14,15
 -80 -189 -80 -189 -37 -186.5 c 128,-1,16
 6 -184 6 -184 44 -175 c 128,-1,17
 82 -166 82 -166 111.5 -148 c 128,-1,18
 141 -130 141 -130 154 -99 c 1,19,20
 162 -51 162 -51 165.5 -6.5 c 128,-1,21
 169 38 169 38 169.5 81.5 c 128,-1,22
 170 125 170 125 169.5 169.5 c 128,-1,23
 169 214 169 214 169 263 c 0,24,25
 167 281 167 281 168 311.5 c 128,-1,26
 169 342 169 342 169.5 375.5 c 128,-1,27
 170 409 170 409 170 442.5 c 128,-1,28
 170 476 170 476 167 500 c 1,29,30
 154 502 154 502 138.5 501 c 128,-1,31
 123 500 123 500 106 498.5 c 128,-1,32
 89 497 89 497 71.5 496 c 128,-1,33
 54 495 54 495 38 497 c 1,34,-1
 38 363 l 2,35,0
 36 324 36 324 35.5 276 c 128,-1,1
33.5 643.5 m 128,-1,37
 36 612 36 612 36 583 c 1,38,39
 55 584 55 584 77 582.5 c 128,-1,40
 99 581 99 581 117.5 580.5 c 128,-1,41
 136 580 136 580 150 582 c 128,-1,42
 164 584 164 584 168 590 c 1,43,44
 168 605 168 605 167.5 624.5 c 128,-1,45
 167 644 167 644 166.5 662.5 c 128,-1,46
 166 681 166 681 165.5 696.5 c 128,-1,47
 165 712 165 712 165 718 c 1,48,-1
 32 721 l 1,49,36
 31 675 31 675 33.5 643.5 c 128,-1,37
EndSplineSet
EndChar

StartChar: k
Encoding: 107 107 92
Width: 435
Flags: W
LayerCount: 2
Fore
SplineSet
144 728 m 128,-1,1
 127 728 127 728 108.5 727.5 c 128,-1,2
 90 727 90 727 71.5 726.5 c 128,-1,3
 53 726 53 726 38 726 c 1,4,5
 39 544 39 544 35 365 c 128,-1,6
 31 186 31 186 38 0 c 1,7,8
 53 -2 53 -2 71.5 -2 c 128,-1,9
 90 -2 90 -2 108 -1 c 128,-1,10
 126 0 126 0 142.5 0.5 c 128,-1,11
 159 1 159 1 170 0 c 1,12,13
 174 22 174 22 175 48.5 c 128,-1,14
 176 75 176 75 176 101 c 128,-1,15
 176 127 176 127 175 151 c 128,-1,16
 174 175 174 175 174 193 c 1,17,18
 191 171 191 171 204.5 147 c 128,-1,19
 218 123 218 123 230 98.5 c 128,-1,20
 242 74 242 74 254.5 49 c 128,-1,21
 267 24 267 24 282 0 c 1,22,23
 297 -3 297 -3 318.5 -4 c 128,-1,24
 340 -5 340 -5 363 -4 c 128,-1,25
 386 -3 386 -3 407.5 -1.5 c 128,-1,26
 429 0 429 0 443 0 c 1,27,28
 405 77 405 77 359.5 148.5 c 128,-1,29
 314 220 314 220 269 293 c 1,30,31
 311 349 311 349 354 404.5 c 128,-1,32
 397 460 397 460 434 517 c 1,33,34
 420 518 420 518 398 516.5 c 128,-1,35
 376 515 376 515 353.5 514.5 c 128,-1,36
 331 514 331 514 310 514.5 c 128,-1,37
 289 515 289 515 276 520 c 1,38,39
 261 503 261 503 249.5 484 c 128,-1,40
 238 465 238 465 227 446.5 c 128,-1,41
 216 428 216 428 203.5 410 c 128,-1,42
 191 392 191 392 174 377 c 1,43,44
 171 400 171 400 172.5 437 c 128,-1,45
 174 474 174 474 174 507 c 2,46,-1
 174 726 l 1,47,0
 161 728 161 728 144 728 c 128,-1,1
EndSplineSet
EndChar

StartChar: l
Encoding: 108 108 93
Width: 206
Flags: W
LayerCount: 2
Fore
SplineSet
30.5 545 m 128,-1,1
 31 454 31 454 34 363 c 128,-1,2
 37 272 37 272 38.5 181 c 128,-1,3
 40 90 40 90 33 0 c 1,4,5
 40 2 40 2 61 1 c 128,-1,6
 82 0 82 0 105.5 -0.5 c 128,-1,7
 129 -1 129 -1 149 -0.5 c 128,-1,8
 169 0 169 0 174 6 c 1,9,10
 172 46 172 46 171 103.5 c 128,-1,11
 170 161 170 161 170 227 c 128,-1,12
 170 293 170 293 170.5 364 c 128,-1,13
 171 435 171 435 172 501 c 128,-1,14
 173 567 173 567 174 625 c 128,-1,15
 175 683 175 683 175 724 c 1,16,-1
 39 727 l 1,17,0
 30 636 30 636 30.5 545 c 128,-1,1
EndSplineSet
EndChar

StartChar: m
Encoding: 109 109 94
Width: 684
Flags: W
LayerCount: 2
Fore
SplineSet
167.5 471 m 128,-1,1
 168 482 168 482 166 499 c 0,2,3
 166 502 166 502 158 502.5 c 128,-1,4
 150 503 150 503 140 502 c 128,-1,5
 130 501 130 501 120 499.5 c 128,-1,6
 110 498 110 498 106 498 c 0,7,8
 94 497 94 497 86 496.5 c 128,-1,9
 78 496 78 496 71 496 c 128,-1,10
 64 496 64 496 56 496.5 c 128,-1,11
 48 497 48 497 36 498 c 1,12,13
 32 366 32 366 34.5 243 c 128,-1,14
 37 120 37 120 37 -3 c 1,15,16
 61 -1 61 -1 77 -2 c 128,-1,17
 93 -3 93 -3 106 -3.5 c 128,-1,18
 119 -4 119 -4 131.5 -3 c 128,-1,19
 144 -2 144 -2 161 3 c 1,20,-1
 161 7 l 1,21,22
 165 40 165 40 165 73 c 128,-1,23
 165 106 165 106 163.5 139.5 c 128,-1,24
 162 173 162 173 161 206.5 c 128,-1,25
 160 240 160 240 162 275 c 0,26,27
 164 302 164 302 176 315.5 c 128,-1,28
 188 329 188 329 203 333.5 c 128,-1,29
 218 338 218 338 233.5 335.5 c 128,-1,30
 249 333 249 333 257 329 c 0,31,32
 258 328 258 328 259 328 c 128,-1,33
 260 328 260 328 261 327 c 0,34,35
 269 321 269 321 273.5 310 c 128,-1,36
 278 299 278 299 280.5 285 c 128,-1,37
 283 271 283 271 284 256.5 c 128,-1,38
 285 242 285 242 286 230 c 0,39,40
 288 203 288 203 288.5 172 c 128,-1,41
 289 141 289 141 288.5 110 c 128,-1,42
 288 79 288 79 288 50 c 128,-1,43
 288 21 288 21 290 -2 c 1,44,45
 325 -2 325 -2 352.5 -2.5 c 128,-1,46
 380 -3 380 -3 415 2 c 1,47,48
 413 32 413 32 413.5 71.5 c 128,-1,49
 414 111 414 111 415 153.5 c 128,-1,50
 416 196 416 196 417 239.5 c 128,-1,51
 418 283 418 283 417 322 c 1,52,53
 426 329 426 329 436.5 332.5 c 128,-1,54
 447 336 447 336 457.5 336 c 128,-1,55
 468 336 468 336 477 334 c 128,-1,56
 486 332 486 332 492 329 c 0,57,58
 493 328 493 328 494 328 c 128,-1,59
 495 328 495 328 496 327 c 0,60,61
 504 321 504 321 508.5 310 c 128,-1,62
 513 299 513 299 515.5 285 c 128,-1,63
 518 271 518 271 519 256.5 c 128,-1,64
 520 242 520 242 521 230 c 0,65,66
 523 203 523 203 523.5 172 c 128,-1,67
 524 141 524 141 523.5 110 c 128,-1,68
 523 79 523 79 523 50 c 128,-1,69
 523 21 523 21 525 -2 c 1,70,71
 560 -2 560 -2 587.5 -2.5 c 128,-1,72
 615 -3 615 -3 650 2 c 1,73,74
 648 36 648 36 649 81 c 128,-1,75
 650 126 650 126 651 174.5 c 128,-1,76
 652 223 652 223 652.5 270.5 c 128,-1,77
 653 318 653 318 651.5 358 c 128,-1,78
 650 398 650 398 644.5 426.5 c 128,-1,79
 639 455 639 455 629 464 c 0,80,81
 608 482 608 482 582 489 c 128,-1,82
 556 496 556 496 528.5 495 c 128,-1,83
 501 494 501 494 475 485 c 128,-1,84
 449 476 449 476 428 461 c 0,85,86
 423 457 423 457 416 453.5 c 128,-1,87
 409 450 409 450 404 447 c 1,88,89
 399 459 399 459 394 464 c 0,90,91
 373 482 373 482 347 489 c 128,-1,92
 321 496 321 496 293.5 495 c 128,-1,93
 266 494 266 494 240 485 c 128,-1,94
 214 476 214 476 193 461 c 0,95,96
 188 457 188 457 180.5 453 c 128,-1,97
 173 449 173 449 168 446 c 1,98,0
 167 460 167 460 167.5 471 c 128,-1,1
EndSplineSet
EndChar

StartChar: n
Encoding: 110 110 95
Width: 450
Flags: W
LayerCount: 2
Fore
SplineSet
168.5 471 m 128,-1,1
 169 482 169 482 167 499 c 0,2,3
 167 502 167 502 159 502.5 c 128,-1,4
 151 503 151 503 141 502 c 128,-1,5
 131 501 131 501 121 499.5 c 128,-1,6
 111 498 111 498 107 498 c 0,7,8
 95 497 95 497 87 496.5 c 128,-1,9
 79 496 79 496 72 496 c 128,-1,10
 65 496 65 496 57 496.5 c 128,-1,11
 49 497 49 497 37 498 c 1,12,13
 33 366 33 366 35.5 243 c 128,-1,14
 38 120 38 120 38 -3 c 1,15,16
 62 -1 62 -1 78 -2 c 128,-1,17
 94 -3 94 -3 107 -3.5 c 128,-1,18
 120 -4 120 -4 132.5 -3 c 128,-1,19
 145 -2 145 -2 162 3 c 1,20,-1
 162 7 l 1,21,22
 166 40 166 40 166 73 c 128,-1,23
 166 106 166 106 164.5 139.5 c 128,-1,24
 163 173 163 173 162 206.5 c 128,-1,25
 161 240 161 240 163 275 c 0,26,27
 165 302 165 302 177 315.5 c 128,-1,28
 189 329 189 329 204 333.5 c 128,-1,29
 219 338 219 338 234.5 335.5 c 128,-1,30
 250 333 250 333 258 329 c 0,31,32
 259 328 259 328 260 328 c 128,-1,33
 261 328 261 328 262 327 c 0,34,35
 270 321 270 321 274.5 310 c 128,-1,36
 279 299 279 299 281.5 285 c 128,-1,37
 284 271 284 271 285 256.5 c 128,-1,38
 286 242 286 242 287 230 c 0,39,40
 289 203 289 203 289.5 172 c 128,-1,41
 290 141 290 141 289.5 110 c 128,-1,42
 289 79 289 79 289 50 c 128,-1,43
 289 21 289 21 291 -2 c 1,44,45
 326 -2 326 -2 353.5 -2.5 c 128,-1,46
 381 -3 381 -3 416 2 c 1,47,48
 414 36 414 36 415 81 c 128,-1,49
 416 126 416 126 417 174.5 c 128,-1,50
 418 223 418 223 418.5 270.5 c 128,-1,51
 419 318 419 318 417.5 358 c 128,-1,52
 416 398 416 398 410.5 426.5 c 128,-1,53
 405 455 405 455 395 464 c 0,54,55
 374 482 374 482 348 489 c 128,-1,56
 322 496 322 496 294.5 495 c 128,-1,57
 267 494 267 494 241 485 c 128,-1,58
 215 476 215 476 194 461 c 0,59,60
 189 457 189 457 181.5 453 c 128,-1,61
 174 449 174 449 169 446 c 1,62,0
 168 460 168 460 168.5 471 c 128,-1,1
EndSplineSet
EndChar

StartChar: ntilde
Encoding: 241 241 96
Width: 450
Flags: W
LayerCount: 2
Fore
SplineSet
168.5 471 m 128,-1,1
 169 482 169 482 167 499 c 0,2,3
 167 502 167 502 159 502.5 c 128,-1,4
 151 503 151 503 141 502 c 128,-1,5
 131 501 131 501 121 499.5 c 128,-1,6
 111 498 111 498 107 498 c 0,7,8
 95 497 95 497 87 496.5 c 128,-1,9
 79 496 79 496 72 496 c 128,-1,10
 65 496 65 496 57 496.5 c 128,-1,11
 49 497 49 497 37 498 c 1,12,13
 33 366 33 366 35.5 243 c 128,-1,14
 38 120 38 120 38 -3 c 1,15,16
 62 -1 62 -1 78 -2 c 128,-1,17
 94 -3 94 -3 107 -3.5 c 128,-1,18
 120 -4 120 -4 132.5 -3 c 128,-1,19
 145 -2 145 -2 162 3 c 1,20,-1
 162 7 l 1,21,22
 166 40 166 40 166 73 c 128,-1,23
 166 106 166 106 164.5 139.5 c 128,-1,24
 163 173 163 173 162 206.5 c 128,-1,25
 161 240 161 240 163 275 c 0,26,27
 165 302 165 302 177 315.5 c 128,-1,28
 189 329 189 329 204 333.5 c 128,-1,29
 219 338 219 338 234.5 335.5 c 128,-1,30
 250 333 250 333 258 329 c 0,31,32
 259 328 259 328 260 328 c 128,-1,33
 261 328 261 328 262 327 c 0,34,35
 270 321 270 321 274.5 310 c 128,-1,36
 279 299 279 299 281.5 285 c 128,-1,37
 284 271 284 271 285 256.5 c 128,-1,38
 286 242 286 242 287 230 c 0,39,40
 289 203 289 203 289.5 172 c 128,-1,41
 290 141 290 141 289.5 110 c 128,-1,42
 289 79 289 79 289 50 c 128,-1,43
 289 21 289 21 291 -2 c 1,44,45
 326 -2 326 -2 353.5 -2.5 c 128,-1,46
 381 -3 381 -3 416 2 c 1,47,48
 414 36 414 36 415 81 c 128,-1,49
 416 126 416 126 417 174.5 c 128,-1,50
 418 223 418 223 418.5 270.5 c 128,-1,51
 419 318 419 318 417.5 358 c 128,-1,52
 416 398 416 398 410.5 426.5 c 128,-1,53
 405 455 405 455 395 464 c 0,54,55
 374 482 374 482 348 489 c 128,-1,56
 322 496 322 496 294.5 495 c 128,-1,57
 267 494 267 494 241 485 c 128,-1,58
 215 476 215 476 194 461 c 0,59,60
 189 457 189 457 181.5 453 c 128,-1,61
 174 449 174 449 169 446 c 1,62,0
 168 460 168 460 168.5 471 c 128,-1,1
138 610.5 m 128,-1,64
 138 619 138 619 142 630 c 2,65,-1
 145 636 l 2,66,67
 153 649 153 649 169 653.5 c 128,-1,68
 185 658 185 658 196 658 c 0,69,70
 209 657 209 657 217 651 c 128,-1,71
 225 645 225 645 231 635 c 0,72,73
 244 604 244 604 273 592.5 c 128,-1,74
 302 581 302 581 333 586 c 0,75,76
 359 590 359 590 378.5 606.5 c 128,-1,77
 398 623 398 623 410 646 c 128,-1,78
 422 669 422 669 426.5 695.5 c 128,-1,79
 431 722 431 722 428 745 c 2,80,-1
 428 746 l 1,81,82
 427 746 427 746 427 747 c 2,83,-1
 426 748 l 1,84,85
 405 747 405 747 384.5 747 c 128,-1,86
 364 747 364 747 344 745 c 1,87,88
 341 736 341 736 334.5 721.5 c 128,-1,89
 328 707 328 707 317.5 696.5 c 128,-1,90
 307 686 307 686 294.5 682.5 c 128,-1,91
 282 679 282 679 267 692 c 0,92,93
 254 700 254 700 245 715 c 128,-1,94
 236 730 236 730 220 740 c 0,95,96
 204 751 204 751 186 754.5 c 128,-1,97
 168 758 168 758 150 755 c 128,-1,98
 132 752 132 752 115 743 c 128,-1,99
 98 734 98 734 85 721 c 0,100,101
 75 710 75 710 66 693 c 128,-1,102
 57 676 57 676 49 657 c 128,-1,103
 41 638 41 638 34.5 620.5 c 128,-1,104
 28 603 28 603 25 592 c 1,105,106
 51 593 51 593 74 593 c 0,107,108
 94 593 94 593 113 592 c 128,-1,109
 132 591 132 591 142 589 c 1,110,-1
 142 590 l 1,111,63
 138 602 138 602 138 610.5 c 128,-1,64
EndSplineSet
EndChar

StartChar: o
Encoding: 111 111 97
Width: 448
Flags: W
LayerCount: 2
Fore
SplineSet
36 426.5 m 128,-1,1
 30 408 30 408 29 397 c 0,2,3
 26 378 26 378 25 360.5 c 128,-1,4
 24 343 24 343 24 325 c 0,5,6
 27 292 27 292 25.5 252 c 128,-1,7
 24 212 24 212 26 172.5 c 128,-1,8
 28 133 28 133 38 97 c 128,-1,9
 48 61 48 61 75 37 c 0,10,11
 110 2 110 2 161 -7 c 1,12,13
 189 -7 189 -7 223 -9.5 c 128,-1,14
 257 -12 257 -12 289 -9.5 c 128,-1,15
 321 -7 321 -7 348.5 3 c 128,-1,16
 376 13 376 13 393 37 c 0,17,18
 403 47 403 47 408.5 74 c 128,-1,19
 414 101 414 101 417.5 135 c 128,-1,20
 421 169 421 169 422.5 206 c 128,-1,21
 424 243 424 243 425 272 c 0,22,23
 424 305 424 305 423 336.5 c 128,-1,24
 422 368 422 368 418 394.5 c 128,-1,25
 414 421 414 421 406 441 c 128,-1,26
 398 461 398 461 384 470 c 0,27,28
 363 490 363 490 334 500.5 c 128,-1,29
 305 511 305 511 273 513 c 0,30,31
 252 515 252 515 233.5 513.5 c 128,-1,32
 215 512 215 512 195 514 c 0,33,34
 171 514 171 514 147.5 511 c 128,-1,35
 124 508 124 508 103.5 500.5 c 128,-1,36
 83 493 83 493 67.5 482 c 128,-1,37
 52 471 52 471 45 456 c 0,38,0
 42 445 42 445 36 426.5 c 128,-1,1
204 360 m 0,40,41
 243 369 243 369 267 353 c 128,-1,42
 291 337 291 337 296 302 c 0,43,44
 302 273 302 273 299.5 240.5 c 128,-1,45
 297 208 297 208 293 176 c 0,46,47
 287 151 287 151 270 143 c 0,48,49
 257 136 257 136 237 133.5 c 128,-1,50
 217 131 217 131 198.5 135.5 c 128,-1,51
 180 140 180 140 167 152.5 c 128,-1,52
 154 165 154 165 155 188 c 0,53,54
 157 223 157 223 157 254.5 c 128,-1,55
 157 286 157 286 161 318 c 0,56,57
 164 334 164 334 170 338 c 0,58,39
 183 354 183 354 204 360 c 0,40,41
EndSplineSet
EndChar

StartChar: oacute
Encoding: 243 243 98
Width: 448
Flags: W
LayerCount: 2
Fore
SplineSet
271 719.5 m 128,-1,1
 249 699 249 699 226.5 675.5 c 128,-1,2
 204 652 204 652 182.5 629.5 c 128,-1,3
 161 607 161 607 144 591 c 1,4,5
 151 589 151 589 166.5 587.5 c 128,-1,6
 182 586 182 586 201.5 585 c 128,-1,7
 221 584 221 584 241.5 584.5 c 128,-1,8
 262 585 262 585 278 587 c 1,9,10
 282 595 282 595 296 608 c 128,-1,11
 310 621 310 621 326 635.5 c 128,-1,12
 342 650 342 650 357 663 c 128,-1,13
 372 676 372 676 379 683 c 2,14,-1
 380 684 l 1,15,-1
 311 754 l 1,16,0
 293 740 293 740 271 719.5 c 128,-1,1
36 426.5 m 128,-1,18
 30 408 30 408 29 397 c 0,19,20
 26 378 26 378 25 360.5 c 128,-1,21
 24 343 24 343 24 325 c 0,22,23
 27 292 27 292 25.5 252 c 128,-1,24
 24 212 24 212 26 172.5 c 128,-1,25
 28 133 28 133 38 97 c 128,-1,26
 48 61 48 61 75 37 c 0,27,28
 110 2 110 2 161 -7 c 1,29,30
 189 -7 189 -7 223 -9.5 c 128,-1,31
 257 -12 257 -12 289 -9.5 c 128,-1,32
 321 -7 321 -7 348.5 3 c 128,-1,33
 376 13 376 13 393 37 c 0,34,35
 403 47 403 47 408.5 74 c 128,-1,36
 414 101 414 101 417.5 135 c 128,-1,37
 421 169 421 169 422.5 206 c 128,-1,38
 424 243 424 243 425 272 c 0,39,40
 424 305 424 305 423 336.5 c 128,-1,41
 422 368 422 368 418 394.5 c 128,-1,42
 414 421 414 421 406 441 c 128,-1,43
 398 461 398 461 384 470 c 0,44,45
 363 490 363 490 334 500.5 c 128,-1,46
 305 511 305 511 273 513 c 0,47,48
 252 515 252 515 233.5 513.5 c 128,-1,49
 215 512 215 512 195 514 c 0,50,51
 171 514 171 514 147.5 511 c 128,-1,52
 124 508 124 508 103.5 500.5 c 128,-1,53
 83 493 83 493 67.5 482 c 128,-1,54
 52 471 52 471 45 456 c 0,55,17
 42 445 42 445 36 426.5 c 128,-1,18
204 360 m 0,57,58
 243 369 243 369 267 353 c 128,-1,59
 291 337 291 337 296 302 c 0,60,61
 302 273 302 273 299.5 240.5 c 128,-1,62
 297 208 297 208 293 176 c 0,63,64
 287 151 287 151 270 143 c 0,65,66
 257 136 257 136 237 133.5 c 128,-1,67
 217 131 217 131 198.5 135.5 c 128,-1,68
 180 140 180 140 167 152.5 c 128,-1,69
 154 165 154 165 155 188 c 0,70,71
 157 223 157 223 157 254.5 c 128,-1,72
 157 286 157 286 161 318 c 0,73,74
 164 334 164 334 170 338 c 0,75,56
 183 354 183 354 204 360 c 0,57,58
EndSplineSet
EndChar

